%TF.GenerationSoftware,KiCad,Pcbnew,7.0.7*%
%TF.CreationDate,2023-09-17T23:44:39+05:30*%
%TF.ProjectId,Tachometer,54616368-6f6d-4657-9465-722e6b696361,v1*%
%TF.SameCoordinates,Original*%
%TF.FileFunction,AssemblyDrawing,Bot*%
%FSLAX46Y46*%
G04 Gerber Fmt 4.6, Leading zero omitted, Abs format (unit mm)*
G04 Created by KiCad (PCBNEW 7.0.7) date 2023-09-17 23:44:39*
%MOMM*%
%LPD*%
G01*
G04 APERTURE LIST*
%ADD10C,0.100000*%
%ADD11C,0.150000*%
%ADD12C,0.300000*%
%ADD13C,0.400000*%
%ADD14C,0.125000*%
G04 APERTURE END LIST*
D10*
D11*
X177002200Y-166007200D02*
X285002200Y-166007200D01*
X285002200Y-198007200D01*
X177002200Y-198007200D01*
X177002200Y-166007200D01*
D10*
D11*
X10000000Y-10000000D02*
X287002200Y-10000000D01*
X287002200Y-200007200D01*
X10000000Y-200007200D01*
X10000000Y-10000000D01*
D10*
D11*
X12000000Y-12000000D02*
X285002200Y-12000000D01*
X285002200Y-198007200D01*
X12000000Y-198007200D01*
X12000000Y-12000000D01*
D10*
D11*
X60000000Y-12000000D02*
X60000000Y-10000000D01*
D10*
D11*
X110000000Y-12000000D02*
X110000000Y-10000000D01*
D10*
D11*
X160000000Y-12000000D02*
X160000000Y-10000000D01*
D10*
D11*
X210000000Y-12000000D02*
X210000000Y-10000000D01*
D10*
D11*
X260000000Y-12000000D02*
X260000000Y-10000000D01*
D10*
D11*
X36089160Y-11593604D02*
X35346303Y-11593604D01*
X35717731Y-11593604D02*
X35717731Y-10293604D01*
X35717731Y-10293604D02*
X35593922Y-10479319D01*
X35593922Y-10479319D02*
X35470112Y-10603128D01*
X35470112Y-10603128D02*
X35346303Y-10665033D01*
D10*
D11*
X85346303Y-10417414D02*
X85408207Y-10355509D01*
X85408207Y-10355509D02*
X85532017Y-10293604D01*
X85532017Y-10293604D02*
X85841541Y-10293604D01*
X85841541Y-10293604D02*
X85965350Y-10355509D01*
X85965350Y-10355509D02*
X86027255Y-10417414D01*
X86027255Y-10417414D02*
X86089160Y-10541223D01*
X86089160Y-10541223D02*
X86089160Y-10665033D01*
X86089160Y-10665033D02*
X86027255Y-10850747D01*
X86027255Y-10850747D02*
X85284398Y-11593604D01*
X85284398Y-11593604D02*
X86089160Y-11593604D01*
D10*
D11*
X135284398Y-10293604D02*
X136089160Y-10293604D01*
X136089160Y-10293604D02*
X135655826Y-10788842D01*
X135655826Y-10788842D02*
X135841541Y-10788842D01*
X135841541Y-10788842D02*
X135965350Y-10850747D01*
X135965350Y-10850747D02*
X136027255Y-10912652D01*
X136027255Y-10912652D02*
X136089160Y-11036461D01*
X136089160Y-11036461D02*
X136089160Y-11345985D01*
X136089160Y-11345985D02*
X136027255Y-11469795D01*
X136027255Y-11469795D02*
X135965350Y-11531700D01*
X135965350Y-11531700D02*
X135841541Y-11593604D01*
X135841541Y-11593604D02*
X135470112Y-11593604D01*
X135470112Y-11593604D02*
X135346303Y-11531700D01*
X135346303Y-11531700D02*
X135284398Y-11469795D01*
D10*
D11*
X185965350Y-10726938D02*
X185965350Y-11593604D01*
X185655826Y-10231700D02*
X185346303Y-11160271D01*
X185346303Y-11160271D02*
X186151064Y-11160271D01*
D10*
D11*
X236027255Y-10293604D02*
X235408207Y-10293604D01*
X235408207Y-10293604D02*
X235346303Y-10912652D01*
X235346303Y-10912652D02*
X235408207Y-10850747D01*
X235408207Y-10850747D02*
X235532017Y-10788842D01*
X235532017Y-10788842D02*
X235841541Y-10788842D01*
X235841541Y-10788842D02*
X235965350Y-10850747D01*
X235965350Y-10850747D02*
X236027255Y-10912652D01*
X236027255Y-10912652D02*
X236089160Y-11036461D01*
X236089160Y-11036461D02*
X236089160Y-11345985D01*
X236089160Y-11345985D02*
X236027255Y-11469795D01*
X236027255Y-11469795D02*
X235965350Y-11531700D01*
X235965350Y-11531700D02*
X235841541Y-11593604D01*
X235841541Y-11593604D02*
X235532017Y-11593604D01*
X235532017Y-11593604D02*
X235408207Y-11531700D01*
X235408207Y-11531700D02*
X235346303Y-11469795D01*
D10*
D11*
X285965350Y-10293604D02*
X285717731Y-10293604D01*
X285717731Y-10293604D02*
X285593922Y-10355509D01*
X285593922Y-10355509D02*
X285532017Y-10417414D01*
X285532017Y-10417414D02*
X285408207Y-10603128D01*
X285408207Y-10603128D02*
X285346303Y-10850747D01*
X285346303Y-10850747D02*
X285346303Y-11345985D01*
X285346303Y-11345985D02*
X285408207Y-11469795D01*
X285408207Y-11469795D02*
X285470112Y-11531700D01*
X285470112Y-11531700D02*
X285593922Y-11593604D01*
X285593922Y-11593604D02*
X285841541Y-11593604D01*
X285841541Y-11593604D02*
X285965350Y-11531700D01*
X285965350Y-11531700D02*
X286027255Y-11469795D01*
X286027255Y-11469795D02*
X286089160Y-11345985D01*
X286089160Y-11345985D02*
X286089160Y-11036461D01*
X286089160Y-11036461D02*
X286027255Y-10912652D01*
X286027255Y-10912652D02*
X285965350Y-10850747D01*
X285965350Y-10850747D02*
X285841541Y-10788842D01*
X285841541Y-10788842D02*
X285593922Y-10788842D01*
X285593922Y-10788842D02*
X285470112Y-10850747D01*
X285470112Y-10850747D02*
X285408207Y-10912652D01*
X285408207Y-10912652D02*
X285346303Y-11036461D01*
D10*
D11*
X60000000Y-198007200D02*
X60000000Y-200007200D01*
D10*
D11*
X110000000Y-198007200D02*
X110000000Y-200007200D01*
D10*
D11*
X160000000Y-198007200D02*
X160000000Y-200007200D01*
D10*
D11*
X210000000Y-198007200D02*
X210000000Y-200007200D01*
D10*
D11*
X260000000Y-198007200D02*
X260000000Y-200007200D01*
D10*
D11*
X36089160Y-199600804D02*
X35346303Y-199600804D01*
X35717731Y-199600804D02*
X35717731Y-198300804D01*
X35717731Y-198300804D02*
X35593922Y-198486519D01*
X35593922Y-198486519D02*
X35470112Y-198610328D01*
X35470112Y-198610328D02*
X35346303Y-198672233D01*
D10*
D11*
X85346303Y-198424614D02*
X85408207Y-198362709D01*
X85408207Y-198362709D02*
X85532017Y-198300804D01*
X85532017Y-198300804D02*
X85841541Y-198300804D01*
X85841541Y-198300804D02*
X85965350Y-198362709D01*
X85965350Y-198362709D02*
X86027255Y-198424614D01*
X86027255Y-198424614D02*
X86089160Y-198548423D01*
X86089160Y-198548423D02*
X86089160Y-198672233D01*
X86089160Y-198672233D02*
X86027255Y-198857947D01*
X86027255Y-198857947D02*
X85284398Y-199600804D01*
X85284398Y-199600804D02*
X86089160Y-199600804D01*
D10*
D11*
X135284398Y-198300804D02*
X136089160Y-198300804D01*
X136089160Y-198300804D02*
X135655826Y-198796042D01*
X135655826Y-198796042D02*
X135841541Y-198796042D01*
X135841541Y-198796042D02*
X135965350Y-198857947D01*
X135965350Y-198857947D02*
X136027255Y-198919852D01*
X136027255Y-198919852D02*
X136089160Y-199043661D01*
X136089160Y-199043661D02*
X136089160Y-199353185D01*
X136089160Y-199353185D02*
X136027255Y-199476995D01*
X136027255Y-199476995D02*
X135965350Y-199538900D01*
X135965350Y-199538900D02*
X135841541Y-199600804D01*
X135841541Y-199600804D02*
X135470112Y-199600804D01*
X135470112Y-199600804D02*
X135346303Y-199538900D01*
X135346303Y-199538900D02*
X135284398Y-199476995D01*
D10*
D11*
X185965350Y-198734138D02*
X185965350Y-199600804D01*
X185655826Y-198238900D02*
X185346303Y-199167471D01*
X185346303Y-199167471D02*
X186151064Y-199167471D01*
D10*
D11*
X236027255Y-198300804D02*
X235408207Y-198300804D01*
X235408207Y-198300804D02*
X235346303Y-198919852D01*
X235346303Y-198919852D02*
X235408207Y-198857947D01*
X235408207Y-198857947D02*
X235532017Y-198796042D01*
X235532017Y-198796042D02*
X235841541Y-198796042D01*
X235841541Y-198796042D02*
X235965350Y-198857947D01*
X235965350Y-198857947D02*
X236027255Y-198919852D01*
X236027255Y-198919852D02*
X236089160Y-199043661D01*
X236089160Y-199043661D02*
X236089160Y-199353185D01*
X236089160Y-199353185D02*
X236027255Y-199476995D01*
X236027255Y-199476995D02*
X235965350Y-199538900D01*
X235965350Y-199538900D02*
X235841541Y-199600804D01*
X235841541Y-199600804D02*
X235532017Y-199600804D01*
X235532017Y-199600804D02*
X235408207Y-199538900D01*
X235408207Y-199538900D02*
X235346303Y-199476995D01*
D10*
D11*
X285965350Y-198300804D02*
X285717731Y-198300804D01*
X285717731Y-198300804D02*
X285593922Y-198362709D01*
X285593922Y-198362709D02*
X285532017Y-198424614D01*
X285532017Y-198424614D02*
X285408207Y-198610328D01*
X285408207Y-198610328D02*
X285346303Y-198857947D01*
X285346303Y-198857947D02*
X285346303Y-199353185D01*
X285346303Y-199353185D02*
X285408207Y-199476995D01*
X285408207Y-199476995D02*
X285470112Y-199538900D01*
X285470112Y-199538900D02*
X285593922Y-199600804D01*
X285593922Y-199600804D02*
X285841541Y-199600804D01*
X285841541Y-199600804D02*
X285965350Y-199538900D01*
X285965350Y-199538900D02*
X286027255Y-199476995D01*
X286027255Y-199476995D02*
X286089160Y-199353185D01*
X286089160Y-199353185D02*
X286089160Y-199043661D01*
X286089160Y-199043661D02*
X286027255Y-198919852D01*
X286027255Y-198919852D02*
X285965350Y-198857947D01*
X285965350Y-198857947D02*
X285841541Y-198796042D01*
X285841541Y-198796042D02*
X285593922Y-198796042D01*
X285593922Y-198796042D02*
X285470112Y-198857947D01*
X285470112Y-198857947D02*
X285408207Y-198919852D01*
X285408207Y-198919852D02*
X285346303Y-199043661D01*
D10*
D11*
X10000000Y-60000000D02*
X12000000Y-60000000D01*
D10*
D11*
X10000000Y-110000000D02*
X12000000Y-110000000D01*
D10*
D11*
X10000000Y-160000000D02*
X12000000Y-160000000D01*
D10*
D11*
X10690476Y-35222176D02*
X11309523Y-35222176D01*
X10566666Y-35593604D02*
X10999999Y-34293604D01*
X10999999Y-34293604D02*
X11433333Y-35593604D01*
D10*
D11*
X11092857Y-84912652D02*
X11278571Y-84974557D01*
X11278571Y-84974557D02*
X11340476Y-85036461D01*
X11340476Y-85036461D02*
X11402380Y-85160271D01*
X11402380Y-85160271D02*
X11402380Y-85345985D01*
X11402380Y-85345985D02*
X11340476Y-85469795D01*
X11340476Y-85469795D02*
X11278571Y-85531700D01*
X11278571Y-85531700D02*
X11154761Y-85593604D01*
X11154761Y-85593604D02*
X10659523Y-85593604D01*
X10659523Y-85593604D02*
X10659523Y-84293604D01*
X10659523Y-84293604D02*
X11092857Y-84293604D01*
X11092857Y-84293604D02*
X11216666Y-84355509D01*
X11216666Y-84355509D02*
X11278571Y-84417414D01*
X11278571Y-84417414D02*
X11340476Y-84541223D01*
X11340476Y-84541223D02*
X11340476Y-84665033D01*
X11340476Y-84665033D02*
X11278571Y-84788842D01*
X11278571Y-84788842D02*
X11216666Y-84850747D01*
X11216666Y-84850747D02*
X11092857Y-84912652D01*
X11092857Y-84912652D02*
X10659523Y-84912652D01*
D10*
D11*
X11402380Y-135469795D02*
X11340476Y-135531700D01*
X11340476Y-135531700D02*
X11154761Y-135593604D01*
X11154761Y-135593604D02*
X11030952Y-135593604D01*
X11030952Y-135593604D02*
X10845238Y-135531700D01*
X10845238Y-135531700D02*
X10721428Y-135407890D01*
X10721428Y-135407890D02*
X10659523Y-135284080D01*
X10659523Y-135284080D02*
X10597619Y-135036461D01*
X10597619Y-135036461D02*
X10597619Y-134850747D01*
X10597619Y-134850747D02*
X10659523Y-134603128D01*
X10659523Y-134603128D02*
X10721428Y-134479319D01*
X10721428Y-134479319D02*
X10845238Y-134355509D01*
X10845238Y-134355509D02*
X11030952Y-134293604D01*
X11030952Y-134293604D02*
X11154761Y-134293604D01*
X11154761Y-134293604D02*
X11340476Y-134355509D01*
X11340476Y-134355509D02*
X11402380Y-134417414D01*
D10*
D11*
X10659523Y-185593604D02*
X10659523Y-184293604D01*
X10659523Y-184293604D02*
X10969047Y-184293604D01*
X10969047Y-184293604D02*
X11154761Y-184355509D01*
X11154761Y-184355509D02*
X11278571Y-184479319D01*
X11278571Y-184479319D02*
X11340476Y-184603128D01*
X11340476Y-184603128D02*
X11402380Y-184850747D01*
X11402380Y-184850747D02*
X11402380Y-185036461D01*
X11402380Y-185036461D02*
X11340476Y-185284080D01*
X11340476Y-185284080D02*
X11278571Y-185407890D01*
X11278571Y-185407890D02*
X11154761Y-185531700D01*
X11154761Y-185531700D02*
X10969047Y-185593604D01*
X10969047Y-185593604D02*
X10659523Y-185593604D01*
D10*
D11*
X287002200Y-60000000D02*
X285002200Y-60000000D01*
D10*
D11*
X287002200Y-110000000D02*
X285002200Y-110000000D01*
D10*
D11*
X287002200Y-160000000D02*
X285002200Y-160000000D01*
D10*
D11*
X285692676Y-35222176D02*
X286311723Y-35222176D01*
X285568866Y-35593604D02*
X286002199Y-34293604D01*
X286002199Y-34293604D02*
X286435533Y-35593604D01*
D10*
D11*
X286095057Y-84912652D02*
X286280771Y-84974557D01*
X286280771Y-84974557D02*
X286342676Y-85036461D01*
X286342676Y-85036461D02*
X286404580Y-85160271D01*
X286404580Y-85160271D02*
X286404580Y-85345985D01*
X286404580Y-85345985D02*
X286342676Y-85469795D01*
X286342676Y-85469795D02*
X286280771Y-85531700D01*
X286280771Y-85531700D02*
X286156961Y-85593604D01*
X286156961Y-85593604D02*
X285661723Y-85593604D01*
X285661723Y-85593604D02*
X285661723Y-84293604D01*
X285661723Y-84293604D02*
X286095057Y-84293604D01*
X286095057Y-84293604D02*
X286218866Y-84355509D01*
X286218866Y-84355509D02*
X286280771Y-84417414D01*
X286280771Y-84417414D02*
X286342676Y-84541223D01*
X286342676Y-84541223D02*
X286342676Y-84665033D01*
X286342676Y-84665033D02*
X286280771Y-84788842D01*
X286280771Y-84788842D02*
X286218866Y-84850747D01*
X286218866Y-84850747D02*
X286095057Y-84912652D01*
X286095057Y-84912652D02*
X285661723Y-84912652D01*
D10*
D11*
X286404580Y-135469795D02*
X286342676Y-135531700D01*
X286342676Y-135531700D02*
X286156961Y-135593604D01*
X286156961Y-135593604D02*
X286033152Y-135593604D01*
X286033152Y-135593604D02*
X285847438Y-135531700D01*
X285847438Y-135531700D02*
X285723628Y-135407890D01*
X285723628Y-135407890D02*
X285661723Y-135284080D01*
X285661723Y-135284080D02*
X285599819Y-135036461D01*
X285599819Y-135036461D02*
X285599819Y-134850747D01*
X285599819Y-134850747D02*
X285661723Y-134603128D01*
X285661723Y-134603128D02*
X285723628Y-134479319D01*
X285723628Y-134479319D02*
X285847438Y-134355509D01*
X285847438Y-134355509D02*
X286033152Y-134293604D01*
X286033152Y-134293604D02*
X286156961Y-134293604D01*
X286156961Y-134293604D02*
X286342676Y-134355509D01*
X286342676Y-134355509D02*
X286404580Y-134417414D01*
D10*
D11*
X285661723Y-185593604D02*
X285661723Y-184293604D01*
X285661723Y-184293604D02*
X285971247Y-184293604D01*
X285971247Y-184293604D02*
X286156961Y-184355509D01*
X286156961Y-184355509D02*
X286280771Y-184479319D01*
X286280771Y-184479319D02*
X286342676Y-184603128D01*
X286342676Y-184603128D02*
X286404580Y-184850747D01*
X286404580Y-184850747D02*
X286404580Y-185036461D01*
X286404580Y-185036461D02*
X286342676Y-185284080D01*
X286342676Y-185284080D02*
X286280771Y-185407890D01*
X286280771Y-185407890D02*
X286156961Y-185531700D01*
X286156961Y-185531700D02*
X285971247Y-185593604D01*
X285971247Y-185593604D02*
X285661723Y-185593604D01*
D10*
D11*
X200458026Y-193793328D02*
X200458026Y-192293328D01*
X200458026Y-192293328D02*
X200815169Y-192293328D01*
X200815169Y-192293328D02*
X201029455Y-192364757D01*
X201029455Y-192364757D02*
X201172312Y-192507614D01*
X201172312Y-192507614D02*
X201243741Y-192650471D01*
X201243741Y-192650471D02*
X201315169Y-192936185D01*
X201315169Y-192936185D02*
X201315169Y-193150471D01*
X201315169Y-193150471D02*
X201243741Y-193436185D01*
X201243741Y-193436185D02*
X201172312Y-193579042D01*
X201172312Y-193579042D02*
X201029455Y-193721900D01*
X201029455Y-193721900D02*
X200815169Y-193793328D01*
X200815169Y-193793328D02*
X200458026Y-193793328D01*
X202600884Y-193793328D02*
X202600884Y-193007614D01*
X202600884Y-193007614D02*
X202529455Y-192864757D01*
X202529455Y-192864757D02*
X202386598Y-192793328D01*
X202386598Y-192793328D02*
X202100884Y-192793328D01*
X202100884Y-192793328D02*
X201958026Y-192864757D01*
X202600884Y-193721900D02*
X202458026Y-193793328D01*
X202458026Y-193793328D02*
X202100884Y-193793328D01*
X202100884Y-193793328D02*
X201958026Y-193721900D01*
X201958026Y-193721900D02*
X201886598Y-193579042D01*
X201886598Y-193579042D02*
X201886598Y-193436185D01*
X201886598Y-193436185D02*
X201958026Y-193293328D01*
X201958026Y-193293328D02*
X202100884Y-193221900D01*
X202100884Y-193221900D02*
X202458026Y-193221900D01*
X202458026Y-193221900D02*
X202600884Y-193150471D01*
X203100884Y-192793328D02*
X203672312Y-192793328D01*
X203315169Y-192293328D02*
X203315169Y-193579042D01*
X203315169Y-193579042D02*
X203386598Y-193721900D01*
X203386598Y-193721900D02*
X203529455Y-193793328D01*
X203529455Y-193793328D02*
X203672312Y-193793328D01*
X204743741Y-193721900D02*
X204600884Y-193793328D01*
X204600884Y-193793328D02*
X204315170Y-193793328D01*
X204315170Y-193793328D02*
X204172312Y-193721900D01*
X204172312Y-193721900D02*
X204100884Y-193579042D01*
X204100884Y-193579042D02*
X204100884Y-193007614D01*
X204100884Y-193007614D02*
X204172312Y-192864757D01*
X204172312Y-192864757D02*
X204315170Y-192793328D01*
X204315170Y-192793328D02*
X204600884Y-192793328D01*
X204600884Y-192793328D02*
X204743741Y-192864757D01*
X204743741Y-192864757D02*
X204815170Y-193007614D01*
X204815170Y-193007614D02*
X204815170Y-193150471D01*
X204815170Y-193150471D02*
X204100884Y-193293328D01*
X205458026Y-193650471D02*
X205529455Y-193721900D01*
X205529455Y-193721900D02*
X205458026Y-193793328D01*
X205458026Y-193793328D02*
X205386598Y-193721900D01*
X205386598Y-193721900D02*
X205458026Y-193650471D01*
X205458026Y-193650471D02*
X205458026Y-193793328D01*
X205458026Y-192864757D02*
X205529455Y-192936185D01*
X205529455Y-192936185D02*
X205458026Y-193007614D01*
X205458026Y-193007614D02*
X205386598Y-192936185D01*
X205386598Y-192936185D02*
X205458026Y-192864757D01*
X205458026Y-192864757D02*
X205458026Y-193007614D01*
X207243741Y-192436185D02*
X207315169Y-192364757D01*
X207315169Y-192364757D02*
X207458027Y-192293328D01*
X207458027Y-192293328D02*
X207815169Y-192293328D01*
X207815169Y-192293328D02*
X207958027Y-192364757D01*
X207958027Y-192364757D02*
X208029455Y-192436185D01*
X208029455Y-192436185D02*
X208100884Y-192579042D01*
X208100884Y-192579042D02*
X208100884Y-192721900D01*
X208100884Y-192721900D02*
X208029455Y-192936185D01*
X208029455Y-192936185D02*
X207172312Y-193793328D01*
X207172312Y-193793328D02*
X208100884Y-193793328D01*
X209029455Y-192293328D02*
X209172312Y-192293328D01*
X209172312Y-192293328D02*
X209315169Y-192364757D01*
X209315169Y-192364757D02*
X209386598Y-192436185D01*
X209386598Y-192436185D02*
X209458026Y-192579042D01*
X209458026Y-192579042D02*
X209529455Y-192864757D01*
X209529455Y-192864757D02*
X209529455Y-193221900D01*
X209529455Y-193221900D02*
X209458026Y-193507614D01*
X209458026Y-193507614D02*
X209386598Y-193650471D01*
X209386598Y-193650471D02*
X209315169Y-193721900D01*
X209315169Y-193721900D02*
X209172312Y-193793328D01*
X209172312Y-193793328D02*
X209029455Y-193793328D01*
X209029455Y-193793328D02*
X208886598Y-193721900D01*
X208886598Y-193721900D02*
X208815169Y-193650471D01*
X208815169Y-193650471D02*
X208743740Y-193507614D01*
X208743740Y-193507614D02*
X208672312Y-193221900D01*
X208672312Y-193221900D02*
X208672312Y-192864757D01*
X208672312Y-192864757D02*
X208743740Y-192579042D01*
X208743740Y-192579042D02*
X208815169Y-192436185D01*
X208815169Y-192436185D02*
X208886598Y-192364757D01*
X208886598Y-192364757D02*
X209029455Y-192293328D01*
X210100883Y-192436185D02*
X210172311Y-192364757D01*
X210172311Y-192364757D02*
X210315169Y-192293328D01*
X210315169Y-192293328D02*
X210672311Y-192293328D01*
X210672311Y-192293328D02*
X210815169Y-192364757D01*
X210815169Y-192364757D02*
X210886597Y-192436185D01*
X210886597Y-192436185D02*
X210958026Y-192579042D01*
X210958026Y-192579042D02*
X210958026Y-192721900D01*
X210958026Y-192721900D02*
X210886597Y-192936185D01*
X210886597Y-192936185D02*
X210029454Y-193793328D01*
X210029454Y-193793328D02*
X210958026Y-193793328D01*
X211458025Y-192293328D02*
X212386597Y-192293328D01*
X212386597Y-192293328D02*
X211886597Y-192864757D01*
X211886597Y-192864757D02*
X212100882Y-192864757D01*
X212100882Y-192864757D02*
X212243740Y-192936185D01*
X212243740Y-192936185D02*
X212315168Y-193007614D01*
X212315168Y-193007614D02*
X212386597Y-193150471D01*
X212386597Y-193150471D02*
X212386597Y-193507614D01*
X212386597Y-193507614D02*
X212315168Y-193650471D01*
X212315168Y-193650471D02*
X212243740Y-193721900D01*
X212243740Y-193721900D02*
X212100882Y-193793328D01*
X212100882Y-193793328D02*
X211672311Y-193793328D01*
X211672311Y-193793328D02*
X211529454Y-193721900D01*
X211529454Y-193721900D02*
X211458025Y-193650471D01*
X213029453Y-193221900D02*
X214172311Y-193221900D01*
X215172311Y-192293328D02*
X215315168Y-192293328D01*
X215315168Y-192293328D02*
X215458025Y-192364757D01*
X215458025Y-192364757D02*
X215529454Y-192436185D01*
X215529454Y-192436185D02*
X215600882Y-192579042D01*
X215600882Y-192579042D02*
X215672311Y-192864757D01*
X215672311Y-192864757D02*
X215672311Y-193221900D01*
X215672311Y-193221900D02*
X215600882Y-193507614D01*
X215600882Y-193507614D02*
X215529454Y-193650471D01*
X215529454Y-193650471D02*
X215458025Y-193721900D01*
X215458025Y-193721900D02*
X215315168Y-193793328D01*
X215315168Y-193793328D02*
X215172311Y-193793328D01*
X215172311Y-193793328D02*
X215029454Y-193721900D01*
X215029454Y-193721900D02*
X214958025Y-193650471D01*
X214958025Y-193650471D02*
X214886596Y-193507614D01*
X214886596Y-193507614D02*
X214815168Y-193221900D01*
X214815168Y-193221900D02*
X214815168Y-192864757D01*
X214815168Y-192864757D02*
X214886596Y-192579042D01*
X214886596Y-192579042D02*
X214958025Y-192436185D01*
X214958025Y-192436185D02*
X215029454Y-192364757D01*
X215029454Y-192364757D02*
X215172311Y-192293328D01*
X216386596Y-193793328D02*
X216672310Y-193793328D01*
X216672310Y-193793328D02*
X216815167Y-193721900D01*
X216815167Y-193721900D02*
X216886596Y-193650471D01*
X216886596Y-193650471D02*
X217029453Y-193436185D01*
X217029453Y-193436185D02*
X217100882Y-193150471D01*
X217100882Y-193150471D02*
X217100882Y-192579042D01*
X217100882Y-192579042D02*
X217029453Y-192436185D01*
X217029453Y-192436185D02*
X216958025Y-192364757D01*
X216958025Y-192364757D02*
X216815167Y-192293328D01*
X216815167Y-192293328D02*
X216529453Y-192293328D01*
X216529453Y-192293328D02*
X216386596Y-192364757D01*
X216386596Y-192364757D02*
X216315167Y-192436185D01*
X216315167Y-192436185D02*
X216243739Y-192579042D01*
X216243739Y-192579042D02*
X216243739Y-192936185D01*
X216243739Y-192936185D02*
X216315167Y-193079042D01*
X216315167Y-193079042D02*
X216386596Y-193150471D01*
X216386596Y-193150471D02*
X216529453Y-193221900D01*
X216529453Y-193221900D02*
X216815167Y-193221900D01*
X216815167Y-193221900D02*
X216958025Y-193150471D01*
X216958025Y-193150471D02*
X217029453Y-193079042D01*
X217029453Y-193079042D02*
X217100882Y-192936185D01*
X217743738Y-193221900D02*
X218886596Y-193221900D01*
X219886596Y-192293328D02*
X220029453Y-192293328D01*
X220029453Y-192293328D02*
X220172310Y-192364757D01*
X220172310Y-192364757D02*
X220243739Y-192436185D01*
X220243739Y-192436185D02*
X220315167Y-192579042D01*
X220315167Y-192579042D02*
X220386596Y-192864757D01*
X220386596Y-192864757D02*
X220386596Y-193221900D01*
X220386596Y-193221900D02*
X220315167Y-193507614D01*
X220315167Y-193507614D02*
X220243739Y-193650471D01*
X220243739Y-193650471D02*
X220172310Y-193721900D01*
X220172310Y-193721900D02*
X220029453Y-193793328D01*
X220029453Y-193793328D02*
X219886596Y-193793328D01*
X219886596Y-193793328D02*
X219743739Y-193721900D01*
X219743739Y-193721900D02*
X219672310Y-193650471D01*
X219672310Y-193650471D02*
X219600881Y-193507614D01*
X219600881Y-193507614D02*
X219529453Y-193221900D01*
X219529453Y-193221900D02*
X219529453Y-192864757D01*
X219529453Y-192864757D02*
X219600881Y-192579042D01*
X219600881Y-192579042D02*
X219672310Y-192436185D01*
X219672310Y-192436185D02*
X219743739Y-192364757D01*
X219743739Y-192364757D02*
X219886596Y-192293328D01*
X221100881Y-193793328D02*
X221386595Y-193793328D01*
X221386595Y-193793328D02*
X221529452Y-193721900D01*
X221529452Y-193721900D02*
X221600881Y-193650471D01*
X221600881Y-193650471D02*
X221743738Y-193436185D01*
X221743738Y-193436185D02*
X221815167Y-193150471D01*
X221815167Y-193150471D02*
X221815167Y-192579042D01*
X221815167Y-192579042D02*
X221743738Y-192436185D01*
X221743738Y-192436185D02*
X221672310Y-192364757D01*
X221672310Y-192364757D02*
X221529452Y-192293328D01*
X221529452Y-192293328D02*
X221243738Y-192293328D01*
X221243738Y-192293328D02*
X221100881Y-192364757D01*
X221100881Y-192364757D02*
X221029452Y-192436185D01*
X221029452Y-192436185D02*
X220958024Y-192579042D01*
X220958024Y-192579042D02*
X220958024Y-192936185D01*
X220958024Y-192936185D02*
X221029452Y-193079042D01*
X221029452Y-193079042D02*
X221100881Y-193150471D01*
X221100881Y-193150471D02*
X221243738Y-193221900D01*
X221243738Y-193221900D02*
X221529452Y-193221900D01*
X221529452Y-193221900D02*
X221672310Y-193150471D01*
X221672310Y-193150471D02*
X221743738Y-193079042D01*
X221743738Y-193079042D02*
X221815167Y-192936185D01*
D10*
D11*
X177002200Y-194507200D02*
X285002200Y-194507200D01*
D10*
D11*
X178458026Y-196593328D02*
X178458026Y-195093328D01*
X179315169Y-196593328D02*
X178672312Y-195736185D01*
X179315169Y-195093328D02*
X178458026Y-195950471D01*
X179958026Y-196593328D02*
X179958026Y-195593328D01*
X179958026Y-195093328D02*
X179886598Y-195164757D01*
X179886598Y-195164757D02*
X179958026Y-195236185D01*
X179958026Y-195236185D02*
X180029455Y-195164757D01*
X180029455Y-195164757D02*
X179958026Y-195093328D01*
X179958026Y-195093328D02*
X179958026Y-195236185D01*
X181529455Y-196450471D02*
X181458027Y-196521900D01*
X181458027Y-196521900D02*
X181243741Y-196593328D01*
X181243741Y-196593328D02*
X181100884Y-196593328D01*
X181100884Y-196593328D02*
X180886598Y-196521900D01*
X180886598Y-196521900D02*
X180743741Y-196379042D01*
X180743741Y-196379042D02*
X180672312Y-196236185D01*
X180672312Y-196236185D02*
X180600884Y-195950471D01*
X180600884Y-195950471D02*
X180600884Y-195736185D01*
X180600884Y-195736185D02*
X180672312Y-195450471D01*
X180672312Y-195450471D02*
X180743741Y-195307614D01*
X180743741Y-195307614D02*
X180886598Y-195164757D01*
X180886598Y-195164757D02*
X181100884Y-195093328D01*
X181100884Y-195093328D02*
X181243741Y-195093328D01*
X181243741Y-195093328D02*
X181458027Y-195164757D01*
X181458027Y-195164757D02*
X181529455Y-195236185D01*
X182815170Y-196593328D02*
X182815170Y-195807614D01*
X182815170Y-195807614D02*
X182743741Y-195664757D01*
X182743741Y-195664757D02*
X182600884Y-195593328D01*
X182600884Y-195593328D02*
X182315170Y-195593328D01*
X182315170Y-195593328D02*
X182172312Y-195664757D01*
X182815170Y-196521900D02*
X182672312Y-196593328D01*
X182672312Y-196593328D02*
X182315170Y-196593328D01*
X182315170Y-196593328D02*
X182172312Y-196521900D01*
X182172312Y-196521900D02*
X182100884Y-196379042D01*
X182100884Y-196379042D02*
X182100884Y-196236185D01*
X182100884Y-196236185D02*
X182172312Y-196093328D01*
X182172312Y-196093328D02*
X182315170Y-196021900D01*
X182315170Y-196021900D02*
X182672312Y-196021900D01*
X182672312Y-196021900D02*
X182815170Y-195950471D01*
X184172313Y-196593328D02*
X184172313Y-195093328D01*
X184172313Y-196521900D02*
X184029455Y-196593328D01*
X184029455Y-196593328D02*
X183743741Y-196593328D01*
X183743741Y-196593328D02*
X183600884Y-196521900D01*
X183600884Y-196521900D02*
X183529455Y-196450471D01*
X183529455Y-196450471D02*
X183458027Y-196307614D01*
X183458027Y-196307614D02*
X183458027Y-195879042D01*
X183458027Y-195879042D02*
X183529455Y-195736185D01*
X183529455Y-195736185D02*
X183600884Y-195664757D01*
X183600884Y-195664757D02*
X183743741Y-195593328D01*
X183743741Y-195593328D02*
X184029455Y-195593328D01*
X184029455Y-195593328D02*
X184172313Y-195664757D01*
X186029455Y-195807614D02*
X186529455Y-195807614D01*
X186743741Y-196593328D02*
X186029455Y-196593328D01*
X186029455Y-196593328D02*
X186029455Y-195093328D01*
X186029455Y-195093328D02*
X186743741Y-195093328D01*
X187386598Y-196450471D02*
X187458027Y-196521900D01*
X187458027Y-196521900D02*
X187386598Y-196593328D01*
X187386598Y-196593328D02*
X187315170Y-196521900D01*
X187315170Y-196521900D02*
X187386598Y-196450471D01*
X187386598Y-196450471D02*
X187386598Y-196593328D01*
X188100884Y-196593328D02*
X188100884Y-195093328D01*
X188100884Y-195093328D02*
X188458027Y-195093328D01*
X188458027Y-195093328D02*
X188672313Y-195164757D01*
X188672313Y-195164757D02*
X188815170Y-195307614D01*
X188815170Y-195307614D02*
X188886599Y-195450471D01*
X188886599Y-195450471D02*
X188958027Y-195736185D01*
X188958027Y-195736185D02*
X188958027Y-195950471D01*
X188958027Y-195950471D02*
X188886599Y-196236185D01*
X188886599Y-196236185D02*
X188815170Y-196379042D01*
X188815170Y-196379042D02*
X188672313Y-196521900D01*
X188672313Y-196521900D02*
X188458027Y-196593328D01*
X188458027Y-196593328D02*
X188100884Y-196593328D01*
X189600884Y-196450471D02*
X189672313Y-196521900D01*
X189672313Y-196521900D02*
X189600884Y-196593328D01*
X189600884Y-196593328D02*
X189529456Y-196521900D01*
X189529456Y-196521900D02*
X189600884Y-196450471D01*
X189600884Y-196450471D02*
X189600884Y-196593328D01*
X190243742Y-196164757D02*
X190958028Y-196164757D01*
X190100885Y-196593328D02*
X190600885Y-195093328D01*
X190600885Y-195093328D02*
X191100885Y-196593328D01*
X191600884Y-196450471D02*
X191672313Y-196521900D01*
X191672313Y-196521900D02*
X191600884Y-196593328D01*
X191600884Y-196593328D02*
X191529456Y-196521900D01*
X191529456Y-196521900D02*
X191600884Y-196450471D01*
X191600884Y-196450471D02*
X191600884Y-196593328D01*
X194600884Y-196593328D02*
X194600884Y-195093328D01*
X194743742Y-196021900D02*
X195172313Y-196593328D01*
X195172313Y-195593328D02*
X194600884Y-196164757D01*
X195815170Y-196593328D02*
X195815170Y-195593328D01*
X195815170Y-195093328D02*
X195743742Y-195164757D01*
X195743742Y-195164757D02*
X195815170Y-195236185D01*
X195815170Y-195236185D02*
X195886599Y-195164757D01*
X195886599Y-195164757D02*
X195815170Y-195093328D01*
X195815170Y-195093328D02*
X195815170Y-195236185D01*
X197172314Y-196521900D02*
X197029456Y-196593328D01*
X197029456Y-196593328D02*
X196743742Y-196593328D01*
X196743742Y-196593328D02*
X196600885Y-196521900D01*
X196600885Y-196521900D02*
X196529456Y-196450471D01*
X196529456Y-196450471D02*
X196458028Y-196307614D01*
X196458028Y-196307614D02*
X196458028Y-195879042D01*
X196458028Y-195879042D02*
X196529456Y-195736185D01*
X196529456Y-195736185D02*
X196600885Y-195664757D01*
X196600885Y-195664757D02*
X196743742Y-195593328D01*
X196743742Y-195593328D02*
X197029456Y-195593328D01*
X197029456Y-195593328D02*
X197172314Y-195664757D01*
X198458028Y-196593328D02*
X198458028Y-195807614D01*
X198458028Y-195807614D02*
X198386599Y-195664757D01*
X198386599Y-195664757D02*
X198243742Y-195593328D01*
X198243742Y-195593328D02*
X197958028Y-195593328D01*
X197958028Y-195593328D02*
X197815170Y-195664757D01*
X198458028Y-196521900D02*
X198315170Y-196593328D01*
X198315170Y-196593328D02*
X197958028Y-196593328D01*
X197958028Y-196593328D02*
X197815170Y-196521900D01*
X197815170Y-196521900D02*
X197743742Y-196379042D01*
X197743742Y-196379042D02*
X197743742Y-196236185D01*
X197743742Y-196236185D02*
X197815170Y-196093328D01*
X197815170Y-196093328D02*
X197958028Y-196021900D01*
X197958028Y-196021900D02*
X198315170Y-196021900D01*
X198315170Y-196021900D02*
X198458028Y-195950471D01*
X199815171Y-196593328D02*
X199815171Y-195093328D01*
X199815171Y-196521900D02*
X199672313Y-196593328D01*
X199672313Y-196593328D02*
X199386599Y-196593328D01*
X199386599Y-196593328D02*
X199243742Y-196521900D01*
X199243742Y-196521900D02*
X199172313Y-196450471D01*
X199172313Y-196450471D02*
X199100885Y-196307614D01*
X199100885Y-196307614D02*
X199100885Y-195879042D01*
X199100885Y-195879042D02*
X199172313Y-195736185D01*
X199172313Y-195736185D02*
X199243742Y-195664757D01*
X199243742Y-195664757D02*
X199386599Y-195593328D01*
X199386599Y-195593328D02*
X199672313Y-195593328D01*
X199672313Y-195593328D02*
X199815171Y-195664757D01*
X201529456Y-195093328D02*
X202529456Y-195093328D01*
X202529456Y-195093328D02*
X201886599Y-196593328D01*
X203100884Y-196450471D02*
X203172313Y-196521900D01*
X203172313Y-196521900D02*
X203100884Y-196593328D01*
X203100884Y-196593328D02*
X203029456Y-196521900D01*
X203029456Y-196521900D02*
X203100884Y-196450471D01*
X203100884Y-196450471D02*
X203100884Y-196593328D01*
X204100885Y-195093328D02*
X204243742Y-195093328D01*
X204243742Y-195093328D02*
X204386599Y-195164757D01*
X204386599Y-195164757D02*
X204458028Y-195236185D01*
X204458028Y-195236185D02*
X204529456Y-195379042D01*
X204529456Y-195379042D02*
X204600885Y-195664757D01*
X204600885Y-195664757D02*
X204600885Y-196021900D01*
X204600885Y-196021900D02*
X204529456Y-196307614D01*
X204529456Y-196307614D02*
X204458028Y-196450471D01*
X204458028Y-196450471D02*
X204386599Y-196521900D01*
X204386599Y-196521900D02*
X204243742Y-196593328D01*
X204243742Y-196593328D02*
X204100885Y-196593328D01*
X204100885Y-196593328D02*
X203958028Y-196521900D01*
X203958028Y-196521900D02*
X203886599Y-196450471D01*
X203886599Y-196450471D02*
X203815170Y-196307614D01*
X203815170Y-196307614D02*
X203743742Y-196021900D01*
X203743742Y-196021900D02*
X203743742Y-195664757D01*
X203743742Y-195664757D02*
X203815170Y-195379042D01*
X203815170Y-195379042D02*
X203886599Y-195236185D01*
X203886599Y-195236185D02*
X203958028Y-195164757D01*
X203958028Y-195164757D02*
X204100885Y-195093328D01*
X205243741Y-196450471D02*
X205315170Y-196521900D01*
X205315170Y-196521900D02*
X205243741Y-196593328D01*
X205243741Y-196593328D02*
X205172313Y-196521900D01*
X205172313Y-196521900D02*
X205243741Y-196450471D01*
X205243741Y-196450471D02*
X205243741Y-196593328D01*
X205815170Y-195093328D02*
X206815170Y-195093328D01*
X206815170Y-195093328D02*
X206172313Y-196593328D01*
D10*
D11*
X177002200Y-191507200D02*
X285002200Y-191507200D01*
D10*
D12*
X264413853Y-193785528D02*
X263913853Y-193071242D01*
X263556710Y-193785528D02*
X263556710Y-192285528D01*
X263556710Y-192285528D02*
X264128139Y-192285528D01*
X264128139Y-192285528D02*
X264270996Y-192356957D01*
X264270996Y-192356957D02*
X264342425Y-192428385D01*
X264342425Y-192428385D02*
X264413853Y-192571242D01*
X264413853Y-192571242D02*
X264413853Y-192785528D01*
X264413853Y-192785528D02*
X264342425Y-192928385D01*
X264342425Y-192928385D02*
X264270996Y-192999814D01*
X264270996Y-192999814D02*
X264128139Y-193071242D01*
X264128139Y-193071242D02*
X263556710Y-193071242D01*
X265628139Y-193714100D02*
X265485282Y-193785528D01*
X265485282Y-193785528D02*
X265199568Y-193785528D01*
X265199568Y-193785528D02*
X265056710Y-193714100D01*
X265056710Y-193714100D02*
X264985282Y-193571242D01*
X264985282Y-193571242D02*
X264985282Y-192999814D01*
X264985282Y-192999814D02*
X265056710Y-192856957D01*
X265056710Y-192856957D02*
X265199568Y-192785528D01*
X265199568Y-192785528D02*
X265485282Y-192785528D01*
X265485282Y-192785528D02*
X265628139Y-192856957D01*
X265628139Y-192856957D02*
X265699568Y-192999814D01*
X265699568Y-192999814D02*
X265699568Y-193142671D01*
X265699568Y-193142671D02*
X264985282Y-193285528D01*
X266199567Y-192785528D02*
X266556710Y-193785528D01*
X266556710Y-193785528D02*
X266913853Y-192785528D01*
X267485281Y-193642671D02*
X267556710Y-193714100D01*
X267556710Y-193714100D02*
X267485281Y-193785528D01*
X267485281Y-193785528D02*
X267413853Y-193714100D01*
X267413853Y-193714100D02*
X267485281Y-193642671D01*
X267485281Y-193642671D02*
X267485281Y-193785528D01*
X267485281Y-192856957D02*
X267556710Y-192928385D01*
X267556710Y-192928385D02*
X267485281Y-192999814D01*
X267485281Y-192999814D02*
X267413853Y-192928385D01*
X267413853Y-192928385D02*
X267485281Y-192856957D01*
X267485281Y-192856957D02*
X267485281Y-192999814D01*
X269199567Y-192785528D02*
X269556710Y-193785528D01*
X269556710Y-193785528D02*
X269913853Y-192785528D01*
X271270996Y-193785528D02*
X270413853Y-193785528D01*
X270842424Y-193785528D02*
X270842424Y-192285528D01*
X270842424Y-192285528D02*
X270699567Y-192499814D01*
X270699567Y-192499814D02*
X270556710Y-192642671D01*
X270556710Y-192642671D02*
X270413853Y-192714100D01*
D10*
D11*
X178386598Y-193721900D02*
X178600884Y-193793328D01*
X178600884Y-193793328D02*
X178958026Y-193793328D01*
X178958026Y-193793328D02*
X179100884Y-193721900D01*
X179100884Y-193721900D02*
X179172312Y-193650471D01*
X179172312Y-193650471D02*
X179243741Y-193507614D01*
X179243741Y-193507614D02*
X179243741Y-193364757D01*
X179243741Y-193364757D02*
X179172312Y-193221900D01*
X179172312Y-193221900D02*
X179100884Y-193150471D01*
X179100884Y-193150471D02*
X178958026Y-193079042D01*
X178958026Y-193079042D02*
X178672312Y-193007614D01*
X178672312Y-193007614D02*
X178529455Y-192936185D01*
X178529455Y-192936185D02*
X178458026Y-192864757D01*
X178458026Y-192864757D02*
X178386598Y-192721900D01*
X178386598Y-192721900D02*
X178386598Y-192579042D01*
X178386598Y-192579042D02*
X178458026Y-192436185D01*
X178458026Y-192436185D02*
X178529455Y-192364757D01*
X178529455Y-192364757D02*
X178672312Y-192293328D01*
X178672312Y-192293328D02*
X179029455Y-192293328D01*
X179029455Y-192293328D02*
X179243741Y-192364757D01*
X179886597Y-193793328D02*
X179886597Y-192793328D01*
X179886597Y-192293328D02*
X179815169Y-192364757D01*
X179815169Y-192364757D02*
X179886597Y-192436185D01*
X179886597Y-192436185D02*
X179958026Y-192364757D01*
X179958026Y-192364757D02*
X179886597Y-192293328D01*
X179886597Y-192293328D02*
X179886597Y-192436185D01*
X180458026Y-192793328D02*
X181243741Y-192793328D01*
X181243741Y-192793328D02*
X180458026Y-193793328D01*
X180458026Y-193793328D02*
X181243741Y-193793328D01*
X182386598Y-193721900D02*
X182243741Y-193793328D01*
X182243741Y-193793328D02*
X181958027Y-193793328D01*
X181958027Y-193793328D02*
X181815169Y-193721900D01*
X181815169Y-193721900D02*
X181743741Y-193579042D01*
X181743741Y-193579042D02*
X181743741Y-193007614D01*
X181743741Y-193007614D02*
X181815169Y-192864757D01*
X181815169Y-192864757D02*
X181958027Y-192793328D01*
X181958027Y-192793328D02*
X182243741Y-192793328D01*
X182243741Y-192793328D02*
X182386598Y-192864757D01*
X182386598Y-192864757D02*
X182458027Y-193007614D01*
X182458027Y-193007614D02*
X182458027Y-193150471D01*
X182458027Y-193150471D02*
X181743741Y-193293328D01*
X183100883Y-193650471D02*
X183172312Y-193721900D01*
X183172312Y-193721900D02*
X183100883Y-193793328D01*
X183100883Y-193793328D02*
X183029455Y-193721900D01*
X183029455Y-193721900D02*
X183100883Y-193650471D01*
X183100883Y-193650471D02*
X183100883Y-193793328D01*
X183100883Y-192864757D02*
X183172312Y-192936185D01*
X183172312Y-192936185D02*
X183100883Y-193007614D01*
X183100883Y-193007614D02*
X183029455Y-192936185D01*
X183029455Y-192936185D02*
X183100883Y-192864757D01*
X183100883Y-192864757D02*
X183100883Y-193007614D01*
X184886598Y-193364757D02*
X185600884Y-193364757D01*
X184743741Y-193793328D02*
X185243741Y-192293328D01*
X185243741Y-192293328D02*
X185743741Y-193793328D01*
X186886598Y-192793328D02*
X186886598Y-193793328D01*
X186529455Y-192221900D02*
X186172312Y-193293328D01*
X186172312Y-193293328D02*
X187100883Y-193293328D01*
D10*
D11*
X263458026Y-196593328D02*
X263458026Y-195093328D01*
X264815170Y-196593328D02*
X264815170Y-195093328D01*
X264815170Y-196521900D02*
X264672312Y-196593328D01*
X264672312Y-196593328D02*
X264386598Y-196593328D01*
X264386598Y-196593328D02*
X264243741Y-196521900D01*
X264243741Y-196521900D02*
X264172312Y-196450471D01*
X264172312Y-196450471D02*
X264100884Y-196307614D01*
X264100884Y-196307614D02*
X264100884Y-195879042D01*
X264100884Y-195879042D02*
X264172312Y-195736185D01*
X264172312Y-195736185D02*
X264243741Y-195664757D01*
X264243741Y-195664757D02*
X264386598Y-195593328D01*
X264386598Y-195593328D02*
X264672312Y-195593328D01*
X264672312Y-195593328D02*
X264815170Y-195664757D01*
X265529455Y-196450471D02*
X265600884Y-196521900D01*
X265600884Y-196521900D02*
X265529455Y-196593328D01*
X265529455Y-196593328D02*
X265458027Y-196521900D01*
X265458027Y-196521900D02*
X265529455Y-196450471D01*
X265529455Y-196450471D02*
X265529455Y-196593328D01*
X265529455Y-195664757D02*
X265600884Y-195736185D01*
X265600884Y-195736185D02*
X265529455Y-195807614D01*
X265529455Y-195807614D02*
X265458027Y-195736185D01*
X265458027Y-195736185D02*
X265529455Y-195664757D01*
X265529455Y-195664757D02*
X265529455Y-195807614D01*
X268172313Y-196593328D02*
X267315170Y-196593328D01*
X267743741Y-196593328D02*
X267743741Y-195093328D01*
X267743741Y-195093328D02*
X267600884Y-195307614D01*
X267600884Y-195307614D02*
X267458027Y-195450471D01*
X267458027Y-195450471D02*
X267315170Y-195521900D01*
X269886598Y-195021900D02*
X268600884Y-196950471D01*
X271172313Y-196593328D02*
X270315170Y-196593328D01*
X270743741Y-196593328D02*
X270743741Y-195093328D01*
X270743741Y-195093328D02*
X270600884Y-195307614D01*
X270600884Y-195307614D02*
X270458027Y-195450471D01*
X270458027Y-195450471D02*
X270315170Y-195521900D01*
D10*
D11*
X177002200Y-187507200D02*
X285002200Y-187507200D01*
D10*
D13*
X178693928Y-188211638D02*
X179836785Y-188211638D01*
X179015357Y-190211638D02*
X179265357Y-188211638D01*
X180253452Y-190211638D02*
X180420119Y-188878304D01*
X180503452Y-188211638D02*
X180396309Y-188306876D01*
X180396309Y-188306876D02*
X180479643Y-188402114D01*
X180479643Y-188402114D02*
X180586786Y-188306876D01*
X180586786Y-188306876D02*
X180503452Y-188211638D01*
X180503452Y-188211638D02*
X180479643Y-188402114D01*
X181086786Y-188878304D02*
X181848690Y-188878304D01*
X181455833Y-188211638D02*
X181241548Y-189925923D01*
X181241548Y-189925923D02*
X181312976Y-190116400D01*
X181312976Y-190116400D02*
X181491548Y-190211638D01*
X181491548Y-190211638D02*
X181682024Y-190211638D01*
X182634405Y-190211638D02*
X182455833Y-190116400D01*
X182455833Y-190116400D02*
X182384405Y-189925923D01*
X182384405Y-189925923D02*
X182598690Y-188211638D01*
X184170119Y-190116400D02*
X183967738Y-190211638D01*
X183967738Y-190211638D02*
X183586785Y-190211638D01*
X183586785Y-190211638D02*
X183408214Y-190116400D01*
X183408214Y-190116400D02*
X183336785Y-189925923D01*
X183336785Y-189925923D02*
X183432024Y-189164019D01*
X183432024Y-189164019D02*
X183551071Y-188973542D01*
X183551071Y-188973542D02*
X183753452Y-188878304D01*
X183753452Y-188878304D02*
X184134404Y-188878304D01*
X184134404Y-188878304D02*
X184312976Y-188973542D01*
X184312976Y-188973542D02*
X184384404Y-189164019D01*
X184384404Y-189164019D02*
X184360595Y-189354495D01*
X184360595Y-189354495D02*
X183384404Y-189544971D01*
X185134405Y-190021161D02*
X185217738Y-190116400D01*
X185217738Y-190116400D02*
X185110595Y-190211638D01*
X185110595Y-190211638D02*
X185027262Y-190116400D01*
X185027262Y-190116400D02*
X185134405Y-190021161D01*
X185134405Y-190021161D02*
X185110595Y-190211638D01*
X185265357Y-188973542D02*
X185348690Y-189068780D01*
X185348690Y-189068780D02*
X185241548Y-189164019D01*
X185241548Y-189164019D02*
X185158214Y-189068780D01*
X185158214Y-189068780D02*
X185265357Y-188973542D01*
X185265357Y-188973542D02*
X185241548Y-189164019D01*
X187586786Y-190211638D02*
X187836786Y-188211638D01*
X187836786Y-188211638D02*
X188598691Y-188211638D01*
X188598691Y-188211638D02*
X188777262Y-188306876D01*
X188777262Y-188306876D02*
X188860596Y-188402114D01*
X188860596Y-188402114D02*
X188932024Y-188592590D01*
X188932024Y-188592590D02*
X188896310Y-188878304D01*
X188896310Y-188878304D02*
X188777262Y-189068780D01*
X188777262Y-189068780D02*
X188670120Y-189164019D01*
X188670120Y-189164019D02*
X188467739Y-189259257D01*
X188467739Y-189259257D02*
X187705834Y-189259257D01*
X189586786Y-190211638D02*
X189753453Y-188878304D01*
X189705834Y-189259257D02*
X189824881Y-189068780D01*
X189824881Y-189068780D02*
X189932024Y-188973542D01*
X189932024Y-188973542D02*
X190134405Y-188878304D01*
X190134405Y-188878304D02*
X190324881Y-188878304D01*
X191110596Y-190211638D02*
X190932024Y-190116400D01*
X190932024Y-190116400D02*
X190848691Y-190021161D01*
X190848691Y-190021161D02*
X190777262Y-189830685D01*
X190777262Y-189830685D02*
X190848691Y-189259257D01*
X190848691Y-189259257D02*
X190967738Y-189068780D01*
X190967738Y-189068780D02*
X191074881Y-188973542D01*
X191074881Y-188973542D02*
X191277262Y-188878304D01*
X191277262Y-188878304D02*
X191562976Y-188878304D01*
X191562976Y-188878304D02*
X191741548Y-188973542D01*
X191741548Y-188973542D02*
X191824881Y-189068780D01*
X191824881Y-189068780D02*
X191896310Y-189259257D01*
X191896310Y-189259257D02*
X191824881Y-189830685D01*
X191824881Y-189830685D02*
X191705834Y-190021161D01*
X191705834Y-190021161D02*
X191598691Y-190116400D01*
X191598691Y-190116400D02*
X191396310Y-190211638D01*
X191396310Y-190211638D02*
X191110596Y-190211638D01*
X192801072Y-188878304D02*
X192586786Y-190592590D01*
X192586786Y-190592590D02*
X192467739Y-190783066D01*
X192467739Y-190783066D02*
X192265358Y-190878304D01*
X192265358Y-190878304D02*
X192170120Y-190878304D01*
X192884405Y-188211638D02*
X192777262Y-188306876D01*
X192777262Y-188306876D02*
X192860596Y-188402114D01*
X192860596Y-188402114D02*
X192967739Y-188306876D01*
X192967739Y-188306876D02*
X192884405Y-188211638D01*
X192884405Y-188211638D02*
X192860596Y-188402114D01*
X194360596Y-190116400D02*
X194158215Y-190211638D01*
X194158215Y-190211638D02*
X193777262Y-190211638D01*
X193777262Y-190211638D02*
X193598691Y-190116400D01*
X193598691Y-190116400D02*
X193527262Y-189925923D01*
X193527262Y-189925923D02*
X193622501Y-189164019D01*
X193622501Y-189164019D02*
X193741548Y-188973542D01*
X193741548Y-188973542D02*
X193943929Y-188878304D01*
X193943929Y-188878304D02*
X194324881Y-188878304D01*
X194324881Y-188878304D02*
X194503453Y-188973542D01*
X194503453Y-188973542D02*
X194574881Y-189164019D01*
X194574881Y-189164019D02*
X194551072Y-189354495D01*
X194551072Y-189354495D02*
X193574881Y-189544971D01*
X196170120Y-190116400D02*
X195967739Y-190211638D01*
X195967739Y-190211638D02*
X195586787Y-190211638D01*
X195586787Y-190211638D02*
X195408215Y-190116400D01*
X195408215Y-190116400D02*
X195324882Y-190021161D01*
X195324882Y-190021161D02*
X195253453Y-189830685D01*
X195253453Y-189830685D02*
X195324882Y-189259257D01*
X195324882Y-189259257D02*
X195443929Y-189068780D01*
X195443929Y-189068780D02*
X195551072Y-188973542D01*
X195551072Y-188973542D02*
X195753453Y-188878304D01*
X195753453Y-188878304D02*
X196134406Y-188878304D01*
X196134406Y-188878304D02*
X196312977Y-188973542D01*
X196896311Y-188878304D02*
X197658215Y-188878304D01*
X197265358Y-188211638D02*
X197051073Y-189925923D01*
X197051073Y-189925923D02*
X197122501Y-190116400D01*
X197122501Y-190116400D02*
X197301073Y-190211638D01*
X197301073Y-190211638D02*
X197491549Y-190211638D01*
X199646311Y-188211638D02*
X200789168Y-188211638D01*
X199967740Y-190211638D02*
X200217740Y-188211638D01*
X202062978Y-190211638D02*
X202193930Y-189164019D01*
X202193930Y-189164019D02*
X202122502Y-188973542D01*
X202122502Y-188973542D02*
X201943930Y-188878304D01*
X201943930Y-188878304D02*
X201562978Y-188878304D01*
X201562978Y-188878304D02*
X201360597Y-188973542D01*
X202074883Y-190116400D02*
X201872502Y-190211638D01*
X201872502Y-190211638D02*
X201396311Y-190211638D01*
X201396311Y-190211638D02*
X201217740Y-190116400D01*
X201217740Y-190116400D02*
X201146311Y-189925923D01*
X201146311Y-189925923D02*
X201170121Y-189735447D01*
X201170121Y-189735447D02*
X201289169Y-189544971D01*
X201289169Y-189544971D02*
X201491550Y-189449733D01*
X201491550Y-189449733D02*
X201967740Y-189449733D01*
X201967740Y-189449733D02*
X202170121Y-189354495D01*
X203884407Y-190116400D02*
X203682026Y-190211638D01*
X203682026Y-190211638D02*
X203301074Y-190211638D01*
X203301074Y-190211638D02*
X203122502Y-190116400D01*
X203122502Y-190116400D02*
X203039169Y-190021161D01*
X203039169Y-190021161D02*
X202967740Y-189830685D01*
X202967740Y-189830685D02*
X203039169Y-189259257D01*
X203039169Y-189259257D02*
X203158216Y-189068780D01*
X203158216Y-189068780D02*
X203265359Y-188973542D01*
X203265359Y-188973542D02*
X203467740Y-188878304D01*
X203467740Y-188878304D02*
X203848693Y-188878304D01*
X203848693Y-188878304D02*
X204027264Y-188973542D01*
X204729645Y-190211638D02*
X204979645Y-188211638D01*
X205586788Y-190211638D02*
X205717740Y-189164019D01*
X205717740Y-189164019D02*
X205646312Y-188973542D01*
X205646312Y-188973542D02*
X205467740Y-188878304D01*
X205467740Y-188878304D02*
X205182026Y-188878304D01*
X205182026Y-188878304D02*
X204979645Y-188973542D01*
X204979645Y-188973542D02*
X204872502Y-189068780D01*
X206824884Y-190211638D02*
X206646312Y-190116400D01*
X206646312Y-190116400D02*
X206562979Y-190021161D01*
X206562979Y-190021161D02*
X206491550Y-189830685D01*
X206491550Y-189830685D02*
X206562979Y-189259257D01*
X206562979Y-189259257D02*
X206682026Y-189068780D01*
X206682026Y-189068780D02*
X206789169Y-188973542D01*
X206789169Y-188973542D02*
X206991550Y-188878304D01*
X206991550Y-188878304D02*
X207277264Y-188878304D01*
X207277264Y-188878304D02*
X207455836Y-188973542D01*
X207455836Y-188973542D02*
X207539169Y-189068780D01*
X207539169Y-189068780D02*
X207610598Y-189259257D01*
X207610598Y-189259257D02*
X207539169Y-189830685D01*
X207539169Y-189830685D02*
X207420122Y-190021161D01*
X207420122Y-190021161D02*
X207312979Y-190116400D01*
X207312979Y-190116400D02*
X207110598Y-190211638D01*
X207110598Y-190211638D02*
X206824884Y-190211638D01*
X208348693Y-190211638D02*
X208515360Y-188878304D01*
X208491550Y-189068780D02*
X208598693Y-188973542D01*
X208598693Y-188973542D02*
X208801074Y-188878304D01*
X208801074Y-188878304D02*
X209086788Y-188878304D01*
X209086788Y-188878304D02*
X209265360Y-188973542D01*
X209265360Y-188973542D02*
X209336788Y-189164019D01*
X209336788Y-189164019D02*
X209205836Y-190211638D01*
X209336788Y-189164019D02*
X209455836Y-188973542D01*
X209455836Y-188973542D02*
X209658217Y-188878304D01*
X209658217Y-188878304D02*
X209943931Y-188878304D01*
X209943931Y-188878304D02*
X210122503Y-188973542D01*
X210122503Y-188973542D02*
X210193931Y-189164019D01*
X210193931Y-189164019D02*
X210062979Y-190211638D01*
X211789170Y-190116400D02*
X211586789Y-190211638D01*
X211586789Y-190211638D02*
X211205836Y-190211638D01*
X211205836Y-190211638D02*
X211027265Y-190116400D01*
X211027265Y-190116400D02*
X210955836Y-189925923D01*
X210955836Y-189925923D02*
X211051075Y-189164019D01*
X211051075Y-189164019D02*
X211170122Y-188973542D01*
X211170122Y-188973542D02*
X211372503Y-188878304D01*
X211372503Y-188878304D02*
X211753455Y-188878304D01*
X211753455Y-188878304D02*
X211932027Y-188973542D01*
X211932027Y-188973542D02*
X212003455Y-189164019D01*
X212003455Y-189164019D02*
X211979646Y-189354495D01*
X211979646Y-189354495D02*
X211003455Y-189544971D01*
X212610599Y-188878304D02*
X213372503Y-188878304D01*
X212979646Y-188211638D02*
X212765361Y-189925923D01*
X212765361Y-189925923D02*
X212836789Y-190116400D01*
X212836789Y-190116400D02*
X213015361Y-190211638D01*
X213015361Y-190211638D02*
X213205837Y-190211638D01*
X214646313Y-190116400D02*
X214443932Y-190211638D01*
X214443932Y-190211638D02*
X214062979Y-190211638D01*
X214062979Y-190211638D02*
X213884408Y-190116400D01*
X213884408Y-190116400D02*
X213812979Y-189925923D01*
X213812979Y-189925923D02*
X213908218Y-189164019D01*
X213908218Y-189164019D02*
X214027265Y-188973542D01*
X214027265Y-188973542D02*
X214229646Y-188878304D01*
X214229646Y-188878304D02*
X214610598Y-188878304D01*
X214610598Y-188878304D02*
X214789170Y-188973542D01*
X214789170Y-188973542D02*
X214860598Y-189164019D01*
X214860598Y-189164019D02*
X214836789Y-189354495D01*
X214836789Y-189354495D02*
X213860598Y-189544971D01*
X215586789Y-190211638D02*
X215753456Y-188878304D01*
X215705837Y-189259257D02*
X215824884Y-189068780D01*
X215824884Y-189068780D02*
X215932027Y-188973542D01*
X215932027Y-188973542D02*
X216134408Y-188878304D01*
X216134408Y-188878304D02*
X216324884Y-188878304D01*
D10*
D11*
X178958026Y-185607614D02*
X178458026Y-185607614D01*
X178458026Y-186393328D02*
X178458026Y-184893328D01*
X178458026Y-184893328D02*
X179172312Y-184893328D01*
X179743740Y-186393328D02*
X179743740Y-185393328D01*
X179743740Y-184893328D02*
X179672312Y-184964757D01*
X179672312Y-184964757D02*
X179743740Y-185036185D01*
X179743740Y-185036185D02*
X179815169Y-184964757D01*
X179815169Y-184964757D02*
X179743740Y-184893328D01*
X179743740Y-184893328D02*
X179743740Y-185036185D01*
X180672312Y-186393328D02*
X180529455Y-186321900D01*
X180529455Y-186321900D02*
X180458026Y-186179042D01*
X180458026Y-186179042D02*
X180458026Y-184893328D01*
X181815169Y-186321900D02*
X181672312Y-186393328D01*
X181672312Y-186393328D02*
X181386598Y-186393328D01*
X181386598Y-186393328D02*
X181243740Y-186321900D01*
X181243740Y-186321900D02*
X181172312Y-186179042D01*
X181172312Y-186179042D02*
X181172312Y-185607614D01*
X181172312Y-185607614D02*
X181243740Y-185464757D01*
X181243740Y-185464757D02*
X181386598Y-185393328D01*
X181386598Y-185393328D02*
X181672312Y-185393328D01*
X181672312Y-185393328D02*
X181815169Y-185464757D01*
X181815169Y-185464757D02*
X181886598Y-185607614D01*
X181886598Y-185607614D02*
X181886598Y-185750471D01*
X181886598Y-185750471D02*
X181172312Y-185893328D01*
X182529454Y-186250471D02*
X182600883Y-186321900D01*
X182600883Y-186321900D02*
X182529454Y-186393328D01*
X182529454Y-186393328D02*
X182458026Y-186321900D01*
X182458026Y-186321900D02*
X182529454Y-186250471D01*
X182529454Y-186250471D02*
X182529454Y-186393328D01*
X182529454Y-185464757D02*
X182600883Y-185536185D01*
X182600883Y-185536185D02*
X182529454Y-185607614D01*
X182529454Y-185607614D02*
X182458026Y-185536185D01*
X182458026Y-185536185D02*
X182529454Y-185464757D01*
X182529454Y-185464757D02*
X182529454Y-185607614D01*
X184172312Y-184893328D02*
X185029455Y-184893328D01*
X184600883Y-186393328D02*
X184600883Y-184893328D01*
X186172312Y-186393328D02*
X186172312Y-185607614D01*
X186172312Y-185607614D02*
X186100883Y-185464757D01*
X186100883Y-185464757D02*
X185958026Y-185393328D01*
X185958026Y-185393328D02*
X185672312Y-185393328D01*
X185672312Y-185393328D02*
X185529454Y-185464757D01*
X186172312Y-186321900D02*
X186029454Y-186393328D01*
X186029454Y-186393328D02*
X185672312Y-186393328D01*
X185672312Y-186393328D02*
X185529454Y-186321900D01*
X185529454Y-186321900D02*
X185458026Y-186179042D01*
X185458026Y-186179042D02*
X185458026Y-186036185D01*
X185458026Y-186036185D02*
X185529454Y-185893328D01*
X185529454Y-185893328D02*
X185672312Y-185821900D01*
X185672312Y-185821900D02*
X186029454Y-185821900D01*
X186029454Y-185821900D02*
X186172312Y-185750471D01*
X187529455Y-186321900D02*
X187386597Y-186393328D01*
X187386597Y-186393328D02*
X187100883Y-186393328D01*
X187100883Y-186393328D02*
X186958026Y-186321900D01*
X186958026Y-186321900D02*
X186886597Y-186250471D01*
X186886597Y-186250471D02*
X186815169Y-186107614D01*
X186815169Y-186107614D02*
X186815169Y-185679042D01*
X186815169Y-185679042D02*
X186886597Y-185536185D01*
X186886597Y-185536185D02*
X186958026Y-185464757D01*
X186958026Y-185464757D02*
X187100883Y-185393328D01*
X187100883Y-185393328D02*
X187386597Y-185393328D01*
X187386597Y-185393328D02*
X187529455Y-185464757D01*
X188172311Y-186393328D02*
X188172311Y-184893328D01*
X188815169Y-186393328D02*
X188815169Y-185607614D01*
X188815169Y-185607614D02*
X188743740Y-185464757D01*
X188743740Y-185464757D02*
X188600883Y-185393328D01*
X188600883Y-185393328D02*
X188386597Y-185393328D01*
X188386597Y-185393328D02*
X188243740Y-185464757D01*
X188243740Y-185464757D02*
X188172311Y-185536185D01*
X189743740Y-186393328D02*
X189600883Y-186321900D01*
X189600883Y-186321900D02*
X189529454Y-186250471D01*
X189529454Y-186250471D02*
X189458026Y-186107614D01*
X189458026Y-186107614D02*
X189458026Y-185679042D01*
X189458026Y-185679042D02*
X189529454Y-185536185D01*
X189529454Y-185536185D02*
X189600883Y-185464757D01*
X189600883Y-185464757D02*
X189743740Y-185393328D01*
X189743740Y-185393328D02*
X189958026Y-185393328D01*
X189958026Y-185393328D02*
X190100883Y-185464757D01*
X190100883Y-185464757D02*
X190172312Y-185536185D01*
X190172312Y-185536185D02*
X190243740Y-185679042D01*
X190243740Y-185679042D02*
X190243740Y-186107614D01*
X190243740Y-186107614D02*
X190172312Y-186250471D01*
X190172312Y-186250471D02*
X190100883Y-186321900D01*
X190100883Y-186321900D02*
X189958026Y-186393328D01*
X189958026Y-186393328D02*
X189743740Y-186393328D01*
X190886597Y-186393328D02*
X190886597Y-185393328D01*
X190886597Y-185536185D02*
X190958026Y-185464757D01*
X190958026Y-185464757D02*
X191100883Y-185393328D01*
X191100883Y-185393328D02*
X191315169Y-185393328D01*
X191315169Y-185393328D02*
X191458026Y-185464757D01*
X191458026Y-185464757D02*
X191529455Y-185607614D01*
X191529455Y-185607614D02*
X191529455Y-186393328D01*
X191529455Y-185607614D02*
X191600883Y-185464757D01*
X191600883Y-185464757D02*
X191743740Y-185393328D01*
X191743740Y-185393328D02*
X191958026Y-185393328D01*
X191958026Y-185393328D02*
X192100883Y-185464757D01*
X192100883Y-185464757D02*
X192172312Y-185607614D01*
X192172312Y-185607614D02*
X192172312Y-186393328D01*
X193458026Y-186321900D02*
X193315169Y-186393328D01*
X193315169Y-186393328D02*
X193029455Y-186393328D01*
X193029455Y-186393328D02*
X192886597Y-186321900D01*
X192886597Y-186321900D02*
X192815169Y-186179042D01*
X192815169Y-186179042D02*
X192815169Y-185607614D01*
X192815169Y-185607614D02*
X192886597Y-185464757D01*
X192886597Y-185464757D02*
X193029455Y-185393328D01*
X193029455Y-185393328D02*
X193315169Y-185393328D01*
X193315169Y-185393328D02*
X193458026Y-185464757D01*
X193458026Y-185464757D02*
X193529455Y-185607614D01*
X193529455Y-185607614D02*
X193529455Y-185750471D01*
X193529455Y-185750471D02*
X192815169Y-185893328D01*
X193958026Y-185393328D02*
X194529454Y-185393328D01*
X194172311Y-184893328D02*
X194172311Y-186179042D01*
X194172311Y-186179042D02*
X194243740Y-186321900D01*
X194243740Y-186321900D02*
X194386597Y-186393328D01*
X194386597Y-186393328D02*
X194529454Y-186393328D01*
X195600883Y-186321900D02*
X195458026Y-186393328D01*
X195458026Y-186393328D02*
X195172312Y-186393328D01*
X195172312Y-186393328D02*
X195029454Y-186321900D01*
X195029454Y-186321900D02*
X194958026Y-186179042D01*
X194958026Y-186179042D02*
X194958026Y-185607614D01*
X194958026Y-185607614D02*
X195029454Y-185464757D01*
X195029454Y-185464757D02*
X195172312Y-185393328D01*
X195172312Y-185393328D02*
X195458026Y-185393328D01*
X195458026Y-185393328D02*
X195600883Y-185464757D01*
X195600883Y-185464757D02*
X195672312Y-185607614D01*
X195672312Y-185607614D02*
X195672312Y-185750471D01*
X195672312Y-185750471D02*
X194958026Y-185893328D01*
X196315168Y-186393328D02*
X196315168Y-185393328D01*
X196315168Y-185679042D02*
X196386597Y-185536185D01*
X196386597Y-185536185D02*
X196458026Y-185464757D01*
X196458026Y-185464757D02*
X196600883Y-185393328D01*
X196600883Y-185393328D02*
X196743740Y-185393328D01*
X197243739Y-186250471D02*
X197315168Y-186321900D01*
X197315168Y-186321900D02*
X197243739Y-186393328D01*
X197243739Y-186393328D02*
X197172311Y-186321900D01*
X197172311Y-186321900D02*
X197243739Y-186250471D01*
X197243739Y-186250471D02*
X197243739Y-186393328D01*
X197958025Y-186393328D02*
X197958025Y-184893328D01*
X198100883Y-185821900D02*
X198529454Y-186393328D01*
X198529454Y-185393328D02*
X197958025Y-185964757D01*
X199172311Y-186393328D02*
X199172311Y-185393328D01*
X199172311Y-184893328D02*
X199100883Y-184964757D01*
X199100883Y-184964757D02*
X199172311Y-185036185D01*
X199172311Y-185036185D02*
X199243740Y-184964757D01*
X199243740Y-184964757D02*
X199172311Y-184893328D01*
X199172311Y-184893328D02*
X199172311Y-185036185D01*
X200529455Y-186321900D02*
X200386597Y-186393328D01*
X200386597Y-186393328D02*
X200100883Y-186393328D01*
X200100883Y-186393328D02*
X199958026Y-186321900D01*
X199958026Y-186321900D02*
X199886597Y-186250471D01*
X199886597Y-186250471D02*
X199815169Y-186107614D01*
X199815169Y-186107614D02*
X199815169Y-185679042D01*
X199815169Y-185679042D02*
X199886597Y-185536185D01*
X199886597Y-185536185D02*
X199958026Y-185464757D01*
X199958026Y-185464757D02*
X200100883Y-185393328D01*
X200100883Y-185393328D02*
X200386597Y-185393328D01*
X200386597Y-185393328D02*
X200529455Y-185464757D01*
X201815169Y-186393328D02*
X201815169Y-185607614D01*
X201815169Y-185607614D02*
X201743740Y-185464757D01*
X201743740Y-185464757D02*
X201600883Y-185393328D01*
X201600883Y-185393328D02*
X201315169Y-185393328D01*
X201315169Y-185393328D02*
X201172311Y-185464757D01*
X201815169Y-186321900D02*
X201672311Y-186393328D01*
X201672311Y-186393328D02*
X201315169Y-186393328D01*
X201315169Y-186393328D02*
X201172311Y-186321900D01*
X201172311Y-186321900D02*
X201100883Y-186179042D01*
X201100883Y-186179042D02*
X201100883Y-186036185D01*
X201100883Y-186036185D02*
X201172311Y-185893328D01*
X201172311Y-185893328D02*
X201315169Y-185821900D01*
X201315169Y-185821900D02*
X201672311Y-185821900D01*
X201672311Y-185821900D02*
X201815169Y-185750471D01*
X203172312Y-186393328D02*
X203172312Y-184893328D01*
X203172312Y-186321900D02*
X203029454Y-186393328D01*
X203029454Y-186393328D02*
X202743740Y-186393328D01*
X202743740Y-186393328D02*
X202600883Y-186321900D01*
X202600883Y-186321900D02*
X202529454Y-186250471D01*
X202529454Y-186250471D02*
X202458026Y-186107614D01*
X202458026Y-186107614D02*
X202458026Y-185679042D01*
X202458026Y-185679042D02*
X202529454Y-185536185D01*
X202529454Y-185536185D02*
X202600883Y-185464757D01*
X202600883Y-185464757D02*
X202743740Y-185393328D01*
X202743740Y-185393328D02*
X203029454Y-185393328D01*
X203029454Y-185393328D02*
X203172312Y-185464757D01*
X203529455Y-186536185D02*
X204672312Y-186536185D01*
X205029454Y-185393328D02*
X205029454Y-186893328D01*
X205029454Y-185464757D02*
X205172312Y-185393328D01*
X205172312Y-185393328D02*
X205458026Y-185393328D01*
X205458026Y-185393328D02*
X205600883Y-185464757D01*
X205600883Y-185464757D02*
X205672312Y-185536185D01*
X205672312Y-185536185D02*
X205743740Y-185679042D01*
X205743740Y-185679042D02*
X205743740Y-186107614D01*
X205743740Y-186107614D02*
X205672312Y-186250471D01*
X205672312Y-186250471D02*
X205600883Y-186321900D01*
X205600883Y-186321900D02*
X205458026Y-186393328D01*
X205458026Y-186393328D02*
X205172312Y-186393328D01*
X205172312Y-186393328D02*
X205029454Y-186321900D01*
X207029455Y-186321900D02*
X206886597Y-186393328D01*
X206886597Y-186393328D02*
X206600883Y-186393328D01*
X206600883Y-186393328D02*
X206458026Y-186321900D01*
X206458026Y-186321900D02*
X206386597Y-186250471D01*
X206386597Y-186250471D02*
X206315169Y-186107614D01*
X206315169Y-186107614D02*
X206315169Y-185679042D01*
X206315169Y-185679042D02*
X206386597Y-185536185D01*
X206386597Y-185536185D02*
X206458026Y-185464757D01*
X206458026Y-185464757D02*
X206600883Y-185393328D01*
X206600883Y-185393328D02*
X206886597Y-185393328D01*
X206886597Y-185393328D02*
X207029455Y-185464757D01*
X207672311Y-186393328D02*
X207672311Y-184893328D01*
X207672311Y-185464757D02*
X207815169Y-185393328D01*
X207815169Y-185393328D02*
X208100883Y-185393328D01*
X208100883Y-185393328D02*
X208243740Y-185464757D01*
X208243740Y-185464757D02*
X208315169Y-185536185D01*
X208315169Y-185536185D02*
X208386597Y-185679042D01*
X208386597Y-185679042D02*
X208386597Y-186107614D01*
X208386597Y-186107614D02*
X208315169Y-186250471D01*
X208315169Y-186250471D02*
X208243740Y-186321900D01*
X208243740Y-186321900D02*
X208100883Y-186393328D01*
X208100883Y-186393328D02*
X207815169Y-186393328D01*
X207815169Y-186393328D02*
X207672311Y-186321900D01*
D10*
D11*
X177002200Y-181507200D02*
X285002200Y-181507200D01*
D10*
D11*
X178386598Y-183621900D02*
X178600884Y-183693328D01*
X178600884Y-183693328D02*
X178958026Y-183693328D01*
X178958026Y-183693328D02*
X179100884Y-183621900D01*
X179100884Y-183621900D02*
X179172312Y-183550471D01*
X179172312Y-183550471D02*
X179243741Y-183407614D01*
X179243741Y-183407614D02*
X179243741Y-183264757D01*
X179243741Y-183264757D02*
X179172312Y-183121900D01*
X179172312Y-183121900D02*
X179100884Y-183050471D01*
X179100884Y-183050471D02*
X178958026Y-182979042D01*
X178958026Y-182979042D02*
X178672312Y-182907614D01*
X178672312Y-182907614D02*
X178529455Y-182836185D01*
X178529455Y-182836185D02*
X178458026Y-182764757D01*
X178458026Y-182764757D02*
X178386598Y-182621900D01*
X178386598Y-182621900D02*
X178386598Y-182479042D01*
X178386598Y-182479042D02*
X178458026Y-182336185D01*
X178458026Y-182336185D02*
X178529455Y-182264757D01*
X178529455Y-182264757D02*
X178672312Y-182193328D01*
X178672312Y-182193328D02*
X179029455Y-182193328D01*
X179029455Y-182193328D02*
X179243741Y-182264757D01*
X179886597Y-183693328D02*
X179886597Y-182193328D01*
X180529455Y-183693328D02*
X180529455Y-182907614D01*
X180529455Y-182907614D02*
X180458026Y-182764757D01*
X180458026Y-182764757D02*
X180315169Y-182693328D01*
X180315169Y-182693328D02*
X180100883Y-182693328D01*
X180100883Y-182693328D02*
X179958026Y-182764757D01*
X179958026Y-182764757D02*
X179886597Y-182836185D01*
X181815169Y-183621900D02*
X181672312Y-183693328D01*
X181672312Y-183693328D02*
X181386598Y-183693328D01*
X181386598Y-183693328D02*
X181243740Y-183621900D01*
X181243740Y-183621900D02*
X181172312Y-183479042D01*
X181172312Y-183479042D02*
X181172312Y-182907614D01*
X181172312Y-182907614D02*
X181243740Y-182764757D01*
X181243740Y-182764757D02*
X181386598Y-182693328D01*
X181386598Y-182693328D02*
X181672312Y-182693328D01*
X181672312Y-182693328D02*
X181815169Y-182764757D01*
X181815169Y-182764757D02*
X181886598Y-182907614D01*
X181886598Y-182907614D02*
X181886598Y-183050471D01*
X181886598Y-183050471D02*
X181172312Y-183193328D01*
X183100883Y-183621900D02*
X182958026Y-183693328D01*
X182958026Y-183693328D02*
X182672312Y-183693328D01*
X182672312Y-183693328D02*
X182529454Y-183621900D01*
X182529454Y-183621900D02*
X182458026Y-183479042D01*
X182458026Y-183479042D02*
X182458026Y-182907614D01*
X182458026Y-182907614D02*
X182529454Y-182764757D01*
X182529454Y-182764757D02*
X182672312Y-182693328D01*
X182672312Y-182693328D02*
X182958026Y-182693328D01*
X182958026Y-182693328D02*
X183100883Y-182764757D01*
X183100883Y-182764757D02*
X183172312Y-182907614D01*
X183172312Y-182907614D02*
X183172312Y-183050471D01*
X183172312Y-183050471D02*
X182458026Y-183193328D01*
X183600883Y-182693328D02*
X184172311Y-182693328D01*
X183815168Y-182193328D02*
X183815168Y-183479042D01*
X183815168Y-183479042D02*
X183886597Y-183621900D01*
X183886597Y-183621900D02*
X184029454Y-183693328D01*
X184029454Y-183693328D02*
X184172311Y-183693328D01*
X184672311Y-183550471D02*
X184743740Y-183621900D01*
X184743740Y-183621900D02*
X184672311Y-183693328D01*
X184672311Y-183693328D02*
X184600883Y-183621900D01*
X184600883Y-183621900D02*
X184672311Y-183550471D01*
X184672311Y-183550471D02*
X184672311Y-183693328D01*
X184672311Y-182764757D02*
X184743740Y-182836185D01*
X184743740Y-182836185D02*
X184672311Y-182907614D01*
X184672311Y-182907614D02*
X184600883Y-182836185D01*
X184600883Y-182836185D02*
X184672311Y-182764757D01*
X184672311Y-182764757D02*
X184672311Y-182907614D01*
D10*
D12*
X179413853Y-180685528D02*
X178913853Y-179971242D01*
X178556710Y-180685528D02*
X178556710Y-179185528D01*
X178556710Y-179185528D02*
X179128139Y-179185528D01*
X179128139Y-179185528D02*
X179270996Y-179256957D01*
X179270996Y-179256957D02*
X179342425Y-179328385D01*
X179342425Y-179328385D02*
X179413853Y-179471242D01*
X179413853Y-179471242D02*
X179413853Y-179685528D01*
X179413853Y-179685528D02*
X179342425Y-179828385D01*
X179342425Y-179828385D02*
X179270996Y-179899814D01*
X179270996Y-179899814D02*
X179128139Y-179971242D01*
X179128139Y-179971242D02*
X178556710Y-179971242D01*
X180270996Y-180685528D02*
X180128139Y-180614100D01*
X180128139Y-180614100D02*
X180056710Y-180542671D01*
X180056710Y-180542671D02*
X179985282Y-180399814D01*
X179985282Y-180399814D02*
X179985282Y-179971242D01*
X179985282Y-179971242D02*
X180056710Y-179828385D01*
X180056710Y-179828385D02*
X180128139Y-179756957D01*
X180128139Y-179756957D02*
X180270996Y-179685528D01*
X180270996Y-179685528D02*
X180485282Y-179685528D01*
X180485282Y-179685528D02*
X180628139Y-179756957D01*
X180628139Y-179756957D02*
X180699568Y-179828385D01*
X180699568Y-179828385D02*
X180770996Y-179971242D01*
X180770996Y-179971242D02*
X180770996Y-180399814D01*
X180770996Y-180399814D02*
X180699568Y-180542671D01*
X180699568Y-180542671D02*
X180628139Y-180614100D01*
X180628139Y-180614100D02*
X180485282Y-180685528D01*
X180485282Y-180685528D02*
X180270996Y-180685528D01*
X181413853Y-180685528D02*
X181413853Y-179185528D01*
X181413853Y-179756957D02*
X181556711Y-179685528D01*
X181556711Y-179685528D02*
X181842425Y-179685528D01*
X181842425Y-179685528D02*
X181985282Y-179756957D01*
X181985282Y-179756957D02*
X182056711Y-179828385D01*
X182056711Y-179828385D02*
X182128139Y-179971242D01*
X182128139Y-179971242D02*
X182128139Y-180399814D01*
X182128139Y-180399814D02*
X182056711Y-180542671D01*
X182056711Y-180542671D02*
X181985282Y-180614100D01*
X181985282Y-180614100D02*
X181842425Y-180685528D01*
X181842425Y-180685528D02*
X181556711Y-180685528D01*
X181556711Y-180685528D02*
X181413853Y-180614100D01*
X182985282Y-180685528D02*
X182842425Y-180614100D01*
X182842425Y-180614100D02*
X182770996Y-180542671D01*
X182770996Y-180542671D02*
X182699568Y-180399814D01*
X182699568Y-180399814D02*
X182699568Y-179971242D01*
X182699568Y-179971242D02*
X182770996Y-179828385D01*
X182770996Y-179828385D02*
X182842425Y-179756957D01*
X182842425Y-179756957D02*
X182985282Y-179685528D01*
X182985282Y-179685528D02*
X183199568Y-179685528D01*
X183199568Y-179685528D02*
X183342425Y-179756957D01*
X183342425Y-179756957D02*
X183413854Y-179828385D01*
X183413854Y-179828385D02*
X183485282Y-179971242D01*
X183485282Y-179971242D02*
X183485282Y-180399814D01*
X183485282Y-180399814D02*
X183413854Y-180542671D01*
X183413854Y-180542671D02*
X183342425Y-180614100D01*
X183342425Y-180614100D02*
X183199568Y-180685528D01*
X183199568Y-180685528D02*
X182985282Y-180685528D01*
X184128139Y-180685528D02*
X184128139Y-179185528D01*
X184128139Y-179185528D02*
X184628139Y-180256957D01*
X184628139Y-180256957D02*
X185128139Y-179185528D01*
X185128139Y-179185528D02*
X185128139Y-180685528D01*
X186485283Y-180685528D02*
X186485283Y-179899814D01*
X186485283Y-179899814D02*
X186413854Y-179756957D01*
X186413854Y-179756957D02*
X186270997Y-179685528D01*
X186270997Y-179685528D02*
X185985283Y-179685528D01*
X185985283Y-179685528D02*
X185842425Y-179756957D01*
X186485283Y-180614100D02*
X186342425Y-180685528D01*
X186342425Y-180685528D02*
X185985283Y-180685528D01*
X185985283Y-180685528D02*
X185842425Y-180614100D01*
X185842425Y-180614100D02*
X185770997Y-180471242D01*
X185770997Y-180471242D02*
X185770997Y-180328385D01*
X185770997Y-180328385D02*
X185842425Y-180185528D01*
X185842425Y-180185528D02*
X185985283Y-180114100D01*
X185985283Y-180114100D02*
X186342425Y-180114100D01*
X186342425Y-180114100D02*
X186485283Y-180042671D01*
X187199568Y-179685528D02*
X187199568Y-180685528D01*
X187199568Y-179828385D02*
X187270997Y-179756957D01*
X187270997Y-179756957D02*
X187413854Y-179685528D01*
X187413854Y-179685528D02*
X187628140Y-179685528D01*
X187628140Y-179685528D02*
X187770997Y-179756957D01*
X187770997Y-179756957D02*
X187842426Y-179899814D01*
X187842426Y-179899814D02*
X187842426Y-180685528D01*
X188556711Y-180685528D02*
X188556711Y-179685528D01*
X188556711Y-179185528D02*
X188485283Y-179256957D01*
X188485283Y-179256957D02*
X188556711Y-179328385D01*
X188556711Y-179328385D02*
X188628140Y-179256957D01*
X188628140Y-179256957D02*
X188556711Y-179185528D01*
X188556711Y-179185528D02*
X188556711Y-179328385D01*
X189270997Y-179685528D02*
X189270997Y-181185528D01*
X189270997Y-179756957D02*
X189413855Y-179685528D01*
X189413855Y-179685528D02*
X189699569Y-179685528D01*
X189699569Y-179685528D02*
X189842426Y-179756957D01*
X189842426Y-179756957D02*
X189913855Y-179828385D01*
X189913855Y-179828385D02*
X189985283Y-179971242D01*
X189985283Y-179971242D02*
X189985283Y-180399814D01*
X189985283Y-180399814D02*
X189913855Y-180542671D01*
X189913855Y-180542671D02*
X189842426Y-180614100D01*
X189842426Y-180614100D02*
X189699569Y-180685528D01*
X189699569Y-180685528D02*
X189413855Y-180685528D01*
X189413855Y-180685528D02*
X189270997Y-180614100D01*
X191270998Y-180685528D02*
X191270998Y-179899814D01*
X191270998Y-179899814D02*
X191199569Y-179756957D01*
X191199569Y-179756957D02*
X191056712Y-179685528D01*
X191056712Y-179685528D02*
X190770998Y-179685528D01*
X190770998Y-179685528D02*
X190628140Y-179756957D01*
X191270998Y-180614100D02*
X191128140Y-180685528D01*
X191128140Y-180685528D02*
X190770998Y-180685528D01*
X190770998Y-180685528D02*
X190628140Y-180614100D01*
X190628140Y-180614100D02*
X190556712Y-180471242D01*
X190556712Y-180471242D02*
X190556712Y-180328385D01*
X190556712Y-180328385D02*
X190628140Y-180185528D01*
X190628140Y-180185528D02*
X190770998Y-180114100D01*
X190770998Y-180114100D02*
X191128140Y-180114100D01*
X191128140Y-180114100D02*
X191270998Y-180042671D01*
X192199569Y-180685528D02*
X192056712Y-180614100D01*
X192056712Y-180614100D02*
X191985283Y-180471242D01*
X191985283Y-180471242D02*
X191985283Y-179185528D01*
D10*
D11*
D10*
D11*
D10*
D11*
D10*
D11*
D10*
D11*
X197002200Y-191507200D02*
X197002200Y-194507200D01*
D10*
D11*
X261002200Y-191507200D02*
X261002200Y-198007200D01*
D14*
X36532009Y-38824791D02*
X36532009Y-38539077D01*
X36532009Y-38681934D02*
X36032009Y-38681934D01*
X36032009Y-38681934D02*
X36103438Y-38634315D01*
X36103438Y-38634315D02*
X36151057Y-38586696D01*
X36151057Y-38586696D02*
X36174866Y-38539077D01*
X36032009Y-39134314D02*
X36032009Y-39181933D01*
X36032009Y-39181933D02*
X36055819Y-39229552D01*
X36055819Y-39229552D02*
X36079628Y-39253362D01*
X36079628Y-39253362D02*
X36127247Y-39277171D01*
X36127247Y-39277171D02*
X36222485Y-39300981D01*
X36222485Y-39300981D02*
X36341533Y-39300981D01*
X36341533Y-39300981D02*
X36436771Y-39277171D01*
X36436771Y-39277171D02*
X36484390Y-39253362D01*
X36484390Y-39253362D02*
X36508200Y-39229552D01*
X36508200Y-39229552D02*
X36532009Y-39181933D01*
X36532009Y-39181933D02*
X36532009Y-39134314D01*
X36532009Y-39134314D02*
X36508200Y-39086695D01*
X36508200Y-39086695D02*
X36484390Y-39062886D01*
X36484390Y-39062886D02*
X36436771Y-39039076D01*
X36436771Y-39039076D02*
X36341533Y-39015267D01*
X36341533Y-39015267D02*
X36222485Y-39015267D01*
X36222485Y-39015267D02*
X36127247Y-39039076D01*
X36127247Y-39039076D02*
X36079628Y-39062886D01*
X36079628Y-39062886D02*
X36055819Y-39086695D01*
X36055819Y-39086695D02*
X36032009Y-39134314D01*
X36032009Y-39610504D02*
X36032009Y-39658123D01*
X36032009Y-39658123D02*
X36055819Y-39705742D01*
X36055819Y-39705742D02*
X36079628Y-39729552D01*
X36079628Y-39729552D02*
X36127247Y-39753361D01*
X36127247Y-39753361D02*
X36222485Y-39777171D01*
X36222485Y-39777171D02*
X36341533Y-39777171D01*
X36341533Y-39777171D02*
X36436771Y-39753361D01*
X36436771Y-39753361D02*
X36484390Y-39729552D01*
X36484390Y-39729552D02*
X36508200Y-39705742D01*
X36508200Y-39705742D02*
X36532009Y-39658123D01*
X36532009Y-39658123D02*
X36532009Y-39610504D01*
X36532009Y-39610504D02*
X36508200Y-39562885D01*
X36508200Y-39562885D02*
X36484390Y-39539076D01*
X36484390Y-39539076D02*
X36436771Y-39515266D01*
X36436771Y-39515266D02*
X36341533Y-39491457D01*
X36341533Y-39491457D02*
X36222485Y-39491457D01*
X36222485Y-39491457D02*
X36127247Y-39515266D01*
X36127247Y-39515266D02*
X36079628Y-39539076D01*
X36079628Y-39539076D02*
X36055819Y-39562885D01*
X36055819Y-39562885D02*
X36032009Y-39610504D01*
X36198676Y-39991456D02*
X36532009Y-39991456D01*
X36246295Y-39991456D02*
X36222485Y-40015266D01*
X36222485Y-40015266D02*
X36198676Y-40062885D01*
X36198676Y-40062885D02*
X36198676Y-40134313D01*
X36198676Y-40134313D02*
X36222485Y-40181932D01*
X36222485Y-40181932D02*
X36270104Y-40205742D01*
X36270104Y-40205742D02*
X36532009Y-40205742D01*
X36270104Y-40610504D02*
X36270104Y-40443837D01*
X36532009Y-40443837D02*
X36032009Y-40443837D01*
X36032009Y-40443837D02*
X36032009Y-40681932D01*
X31852095Y-32105886D02*
X31828285Y-32058267D01*
X31828285Y-32058267D02*
X31804476Y-32034457D01*
X31804476Y-32034457D02*
X31756857Y-32010648D01*
X31756857Y-32010648D02*
X31733047Y-32010648D01*
X31733047Y-32010648D02*
X31685428Y-32034457D01*
X31685428Y-32034457D02*
X31661619Y-32058267D01*
X31661619Y-32058267D02*
X31637809Y-32105886D01*
X31637809Y-32105886D02*
X31637809Y-32201124D01*
X31637809Y-32201124D02*
X31661619Y-32248743D01*
X31661619Y-32248743D02*
X31685428Y-32272552D01*
X31685428Y-32272552D02*
X31733047Y-32296362D01*
X31733047Y-32296362D02*
X31756857Y-32296362D01*
X31756857Y-32296362D02*
X31804476Y-32272552D01*
X31804476Y-32272552D02*
X31828285Y-32248743D01*
X31828285Y-32248743D02*
X31852095Y-32201124D01*
X31852095Y-32201124D02*
X31852095Y-32105886D01*
X31852095Y-32105886D02*
X31875904Y-32058267D01*
X31875904Y-32058267D02*
X31899714Y-32034457D01*
X31899714Y-32034457D02*
X31947333Y-32010648D01*
X31947333Y-32010648D02*
X32042571Y-32010648D01*
X32042571Y-32010648D02*
X32090190Y-32034457D01*
X32090190Y-32034457D02*
X32114000Y-32058267D01*
X32114000Y-32058267D02*
X32137809Y-32105886D01*
X32137809Y-32105886D02*
X32137809Y-32201124D01*
X32137809Y-32201124D02*
X32114000Y-32248743D01*
X32114000Y-32248743D02*
X32090190Y-32272552D01*
X32090190Y-32272552D02*
X32042571Y-32296362D01*
X32042571Y-32296362D02*
X31947333Y-32296362D01*
X31947333Y-32296362D02*
X31899714Y-32272552D01*
X31899714Y-32272552D02*
X31875904Y-32248743D01*
X31875904Y-32248743D02*
X31852095Y-32201124D01*
X32137809Y-32510647D02*
X31637809Y-32510647D01*
X31637809Y-32510647D02*
X31994952Y-32677314D01*
X31994952Y-32677314D02*
X31637809Y-32843980D01*
X31637809Y-32843980D02*
X32137809Y-32843980D01*
X32137809Y-33082076D02*
X31637809Y-33082076D01*
X31875904Y-33082076D02*
X31875904Y-33367790D01*
X32137809Y-33367790D02*
X31637809Y-33367790D01*
X31804476Y-33558267D02*
X31804476Y-33820172D01*
X31804476Y-33820172D02*
X32137809Y-33558267D01*
X32137809Y-33558267D02*
X32137809Y-33820172D01*
X32185428Y-33891601D02*
X32185428Y-34272553D01*
X32090190Y-34677314D02*
X32114000Y-34653505D01*
X32114000Y-34653505D02*
X32137809Y-34582076D01*
X32137809Y-34582076D02*
X32137809Y-34534457D01*
X32137809Y-34534457D02*
X32114000Y-34463029D01*
X32114000Y-34463029D02*
X32066380Y-34415410D01*
X32066380Y-34415410D02*
X32018761Y-34391600D01*
X32018761Y-34391600D02*
X31923523Y-34367791D01*
X31923523Y-34367791D02*
X31852095Y-34367791D01*
X31852095Y-34367791D02*
X31756857Y-34391600D01*
X31756857Y-34391600D02*
X31709238Y-34415410D01*
X31709238Y-34415410D02*
X31661619Y-34463029D01*
X31661619Y-34463029D02*
X31637809Y-34534457D01*
X31637809Y-34534457D02*
X31637809Y-34582076D01*
X31637809Y-34582076D02*
X31661619Y-34653505D01*
X31661619Y-34653505D02*
X31685428Y-34677314D01*
X32137809Y-34891600D02*
X31804476Y-34891600D01*
X31899714Y-34891600D02*
X31852095Y-34915410D01*
X31852095Y-34915410D02*
X31828285Y-34939219D01*
X31828285Y-34939219D02*
X31804476Y-34986838D01*
X31804476Y-34986838D02*
X31804476Y-35034457D01*
X31804476Y-35153505D02*
X32137809Y-35272553D01*
X31804476Y-35391600D02*
X32137809Y-35272553D01*
X32137809Y-35272553D02*
X32256857Y-35224934D01*
X32256857Y-35224934D02*
X32280666Y-35201124D01*
X32280666Y-35201124D02*
X32304476Y-35153505D01*
X32114000Y-35558267D02*
X32137809Y-35605886D01*
X32137809Y-35605886D02*
X32137809Y-35701124D01*
X32137809Y-35701124D02*
X32114000Y-35748743D01*
X32114000Y-35748743D02*
X32066380Y-35772552D01*
X32066380Y-35772552D02*
X32042571Y-35772552D01*
X32042571Y-35772552D02*
X31994952Y-35748743D01*
X31994952Y-35748743D02*
X31971142Y-35701124D01*
X31971142Y-35701124D02*
X31971142Y-35629695D01*
X31971142Y-35629695D02*
X31947333Y-35582076D01*
X31947333Y-35582076D02*
X31899714Y-35558267D01*
X31899714Y-35558267D02*
X31875904Y-35558267D01*
X31875904Y-35558267D02*
X31828285Y-35582076D01*
X31828285Y-35582076D02*
X31804476Y-35629695D01*
X31804476Y-35629695D02*
X31804476Y-35701124D01*
X31804476Y-35701124D02*
X31828285Y-35748743D01*
X31804476Y-35915410D02*
X31804476Y-36105886D01*
X31637809Y-35986838D02*
X32066380Y-35986838D01*
X32066380Y-35986838D02*
X32114000Y-36010648D01*
X32114000Y-36010648D02*
X32137809Y-36058267D01*
X32137809Y-36058267D02*
X32137809Y-36105886D01*
X32137809Y-36486838D02*
X31875904Y-36486838D01*
X31875904Y-36486838D02*
X31828285Y-36463028D01*
X31828285Y-36463028D02*
X31804476Y-36415409D01*
X31804476Y-36415409D02*
X31804476Y-36320171D01*
X31804476Y-36320171D02*
X31828285Y-36272552D01*
X32114000Y-36486838D02*
X32137809Y-36439219D01*
X32137809Y-36439219D02*
X32137809Y-36320171D01*
X32137809Y-36320171D02*
X32114000Y-36272552D01*
X32114000Y-36272552D02*
X32066380Y-36248743D01*
X32066380Y-36248743D02*
X32018761Y-36248743D01*
X32018761Y-36248743D02*
X31971142Y-36272552D01*
X31971142Y-36272552D02*
X31947333Y-36320171D01*
X31947333Y-36320171D02*
X31947333Y-36439219D01*
X31947333Y-36439219D02*
X31923523Y-36486838D01*
X32137809Y-36796362D02*
X32114000Y-36748743D01*
X32114000Y-36748743D02*
X32066380Y-36724933D01*
X32066380Y-36724933D02*
X31637809Y-36724933D01*
X29357865Y-30958809D02*
X29643579Y-30958809D01*
X29500722Y-30958809D02*
X29500722Y-30458809D01*
X29500722Y-30458809D02*
X29548341Y-30530238D01*
X29548341Y-30530238D02*
X29595960Y-30577857D01*
X29595960Y-30577857D02*
X29643579Y-30601666D01*
X29143580Y-30911190D02*
X29119770Y-30935000D01*
X29119770Y-30935000D02*
X29143580Y-30958809D01*
X29143580Y-30958809D02*
X29167389Y-30935000D01*
X29167389Y-30935000D02*
X29143580Y-30911190D01*
X29143580Y-30911190D02*
X29143580Y-30958809D01*
X28667390Y-30458809D02*
X28905485Y-30458809D01*
X28905485Y-30458809D02*
X28929294Y-30696904D01*
X28929294Y-30696904D02*
X28905485Y-30673095D01*
X28905485Y-30673095D02*
X28857866Y-30649285D01*
X28857866Y-30649285D02*
X28738818Y-30649285D01*
X28738818Y-30649285D02*
X28691199Y-30673095D01*
X28691199Y-30673095D02*
X28667390Y-30696904D01*
X28667390Y-30696904D02*
X28643580Y-30744523D01*
X28643580Y-30744523D02*
X28643580Y-30863571D01*
X28643580Y-30863571D02*
X28667390Y-30911190D01*
X28667390Y-30911190D02*
X28691199Y-30935000D01*
X28691199Y-30935000D02*
X28738818Y-30958809D01*
X28738818Y-30958809D02*
X28857866Y-30958809D01*
X28857866Y-30958809D02*
X28905485Y-30935000D01*
X28905485Y-30935000D02*
X28929294Y-30911190D01*
X28429295Y-30958809D02*
X28429295Y-30458809D01*
X28381676Y-30768333D02*
X28238819Y-30958809D01*
X28238819Y-30625476D02*
X28429295Y-30815952D01*
X46779618Y-26132809D02*
X47065332Y-26132809D01*
X46922475Y-26132809D02*
X46922475Y-25632809D01*
X46922475Y-25632809D02*
X46970094Y-25704238D01*
X46970094Y-25704238D02*
X47017713Y-25751857D01*
X47017713Y-25751857D02*
X47065332Y-25775666D01*
X46470095Y-25632809D02*
X46422476Y-25632809D01*
X46422476Y-25632809D02*
X46374857Y-25656619D01*
X46374857Y-25656619D02*
X46351047Y-25680428D01*
X46351047Y-25680428D02*
X46327238Y-25728047D01*
X46327238Y-25728047D02*
X46303428Y-25823285D01*
X46303428Y-25823285D02*
X46303428Y-25942333D01*
X46303428Y-25942333D02*
X46327238Y-26037571D01*
X46327238Y-26037571D02*
X46351047Y-26085190D01*
X46351047Y-26085190D02*
X46374857Y-26109000D01*
X46374857Y-26109000D02*
X46422476Y-26132809D01*
X46422476Y-26132809D02*
X46470095Y-26132809D01*
X46470095Y-26132809D02*
X46517714Y-26109000D01*
X46517714Y-26109000D02*
X46541523Y-26085190D01*
X46541523Y-26085190D02*
X46565333Y-26037571D01*
X46565333Y-26037571D02*
X46589142Y-25942333D01*
X46589142Y-25942333D02*
X46589142Y-25823285D01*
X46589142Y-25823285D02*
X46565333Y-25728047D01*
X46565333Y-25728047D02*
X46541523Y-25680428D01*
X46541523Y-25680428D02*
X46517714Y-25656619D01*
X46517714Y-25656619D02*
X46470095Y-25632809D01*
X46089143Y-26132809D02*
X46089143Y-25632809D01*
X46041524Y-25942333D02*
X45898667Y-26132809D01*
X45898667Y-25799476D02*
X46089143Y-25989952D01*
X45223808Y-26640809D02*
X45509522Y-26640809D01*
X45366665Y-26640809D02*
X45366665Y-26140809D01*
X45366665Y-26140809D02*
X45414284Y-26212238D01*
X45414284Y-26212238D02*
X45461903Y-26259857D01*
X45461903Y-26259857D02*
X45509522Y-26283666D01*
X44914285Y-26140809D02*
X44866666Y-26140809D01*
X44866666Y-26140809D02*
X44819047Y-26164619D01*
X44819047Y-26164619D02*
X44795237Y-26188428D01*
X44795237Y-26188428D02*
X44771428Y-26236047D01*
X44771428Y-26236047D02*
X44747618Y-26331285D01*
X44747618Y-26331285D02*
X44747618Y-26450333D01*
X44747618Y-26450333D02*
X44771428Y-26545571D01*
X44771428Y-26545571D02*
X44795237Y-26593190D01*
X44795237Y-26593190D02*
X44819047Y-26617000D01*
X44819047Y-26617000D02*
X44866666Y-26640809D01*
X44866666Y-26640809D02*
X44914285Y-26640809D01*
X44914285Y-26640809D02*
X44961904Y-26617000D01*
X44961904Y-26617000D02*
X44985713Y-26593190D01*
X44985713Y-26593190D02*
X45009523Y-26545571D01*
X45009523Y-26545571D02*
X45033332Y-26450333D01*
X45033332Y-26450333D02*
X45033332Y-26331285D01*
X45033332Y-26331285D02*
X45009523Y-26236047D01*
X45009523Y-26236047D02*
X44985713Y-26188428D01*
X44985713Y-26188428D02*
X44961904Y-26164619D01*
X44961904Y-26164619D02*
X44914285Y-26140809D01*
X44438095Y-26140809D02*
X44390476Y-26140809D01*
X44390476Y-26140809D02*
X44342857Y-26164619D01*
X44342857Y-26164619D02*
X44319047Y-26188428D01*
X44319047Y-26188428D02*
X44295238Y-26236047D01*
X44295238Y-26236047D02*
X44271428Y-26331285D01*
X44271428Y-26331285D02*
X44271428Y-26450333D01*
X44271428Y-26450333D02*
X44295238Y-26545571D01*
X44295238Y-26545571D02*
X44319047Y-26593190D01*
X44319047Y-26593190D02*
X44342857Y-26617000D01*
X44342857Y-26617000D02*
X44390476Y-26640809D01*
X44390476Y-26640809D02*
X44438095Y-26640809D01*
X44438095Y-26640809D02*
X44485714Y-26617000D01*
X44485714Y-26617000D02*
X44509523Y-26593190D01*
X44509523Y-26593190D02*
X44533333Y-26545571D01*
X44533333Y-26545571D02*
X44557142Y-26450333D01*
X44557142Y-26450333D02*
X44557142Y-26331285D01*
X44557142Y-26331285D02*
X44533333Y-26236047D01*
X44533333Y-26236047D02*
X44509523Y-26188428D01*
X44509523Y-26188428D02*
X44485714Y-26164619D01*
X44485714Y-26164619D02*
X44438095Y-26140809D01*
X44057143Y-26307476D02*
X44057143Y-26640809D01*
X44057143Y-26355095D02*
X44033333Y-26331285D01*
X44033333Y-26331285D02*
X43985714Y-26307476D01*
X43985714Y-26307476D02*
X43914286Y-26307476D01*
X43914286Y-26307476D02*
X43866667Y-26331285D01*
X43866667Y-26331285D02*
X43842857Y-26378904D01*
X43842857Y-26378904D02*
X43842857Y-26640809D01*
X43438095Y-26378904D02*
X43604762Y-26378904D01*
X43604762Y-26640809D02*
X43604762Y-26140809D01*
X43604762Y-26140809D02*
X43366667Y-26140809D01*
X52924809Y-32738095D02*
X53329571Y-32738095D01*
X53329571Y-32738095D02*
X53377190Y-32761905D01*
X53377190Y-32761905D02*
X53401000Y-32785714D01*
X53401000Y-32785714D02*
X53424809Y-32833333D01*
X53424809Y-32833333D02*
X53424809Y-32928571D01*
X53424809Y-32928571D02*
X53401000Y-32976190D01*
X53401000Y-32976190D02*
X53377190Y-33000000D01*
X53377190Y-33000000D02*
X53329571Y-33023809D01*
X53329571Y-33023809D02*
X52924809Y-33023809D01*
X53401000Y-33238096D02*
X53424809Y-33309524D01*
X53424809Y-33309524D02*
X53424809Y-33428572D01*
X53424809Y-33428572D02*
X53401000Y-33476191D01*
X53401000Y-33476191D02*
X53377190Y-33500000D01*
X53377190Y-33500000D02*
X53329571Y-33523810D01*
X53329571Y-33523810D02*
X53281952Y-33523810D01*
X53281952Y-33523810D02*
X53234333Y-33500000D01*
X53234333Y-33500000D02*
X53210523Y-33476191D01*
X53210523Y-33476191D02*
X53186714Y-33428572D01*
X53186714Y-33428572D02*
X53162904Y-33333334D01*
X53162904Y-33333334D02*
X53139095Y-33285715D01*
X53139095Y-33285715D02*
X53115285Y-33261905D01*
X53115285Y-33261905D02*
X53067666Y-33238096D01*
X53067666Y-33238096D02*
X53020047Y-33238096D01*
X53020047Y-33238096D02*
X52972428Y-33261905D01*
X52972428Y-33261905D02*
X52948619Y-33285715D01*
X52948619Y-33285715D02*
X52924809Y-33333334D01*
X52924809Y-33333334D02*
X52924809Y-33452381D01*
X52924809Y-33452381D02*
X52948619Y-33523810D01*
X53162904Y-33904762D02*
X53186714Y-33976190D01*
X53186714Y-33976190D02*
X53210523Y-34000000D01*
X53210523Y-34000000D02*
X53258142Y-34023809D01*
X53258142Y-34023809D02*
X53329571Y-34023809D01*
X53329571Y-34023809D02*
X53377190Y-34000000D01*
X53377190Y-34000000D02*
X53401000Y-33976190D01*
X53401000Y-33976190D02*
X53424809Y-33928571D01*
X53424809Y-33928571D02*
X53424809Y-33738095D01*
X53424809Y-33738095D02*
X52924809Y-33738095D01*
X52924809Y-33738095D02*
X52924809Y-33904762D01*
X52924809Y-33904762D02*
X52948619Y-33952381D01*
X52948619Y-33952381D02*
X52972428Y-33976190D01*
X52972428Y-33976190D02*
X53020047Y-34000000D01*
X53020047Y-34000000D02*
X53067666Y-34000000D01*
X53067666Y-34000000D02*
X53115285Y-33976190D01*
X53115285Y-33976190D02*
X53139095Y-33952381D01*
X53139095Y-33952381D02*
X53162904Y-33904762D01*
X53162904Y-33904762D02*
X53162904Y-33738095D01*
X53472428Y-34119048D02*
X53472428Y-34500000D01*
X53162904Y-34785714D02*
X53186714Y-34857142D01*
X53186714Y-34857142D02*
X53210523Y-34880952D01*
X53210523Y-34880952D02*
X53258142Y-34904761D01*
X53258142Y-34904761D02*
X53329571Y-34904761D01*
X53329571Y-34904761D02*
X53377190Y-34880952D01*
X53377190Y-34880952D02*
X53401000Y-34857142D01*
X53401000Y-34857142D02*
X53424809Y-34809523D01*
X53424809Y-34809523D02*
X53424809Y-34619047D01*
X53424809Y-34619047D02*
X52924809Y-34619047D01*
X52924809Y-34619047D02*
X52924809Y-34785714D01*
X52924809Y-34785714D02*
X52948619Y-34833333D01*
X52948619Y-34833333D02*
X52972428Y-34857142D01*
X52972428Y-34857142D02*
X53020047Y-34880952D01*
X53020047Y-34880952D02*
X53067666Y-34880952D01*
X53067666Y-34880952D02*
X53115285Y-34857142D01*
X53115285Y-34857142D02*
X53139095Y-34833333D01*
X53139095Y-34833333D02*
X53162904Y-34785714D01*
X53162904Y-34785714D02*
X53162904Y-34619047D01*
X53472428Y-35000000D02*
X53472428Y-35380952D01*
X53424809Y-35499999D02*
X52924809Y-35499999D01*
X52924809Y-35499999D02*
X53281952Y-35666666D01*
X53281952Y-35666666D02*
X52924809Y-35833332D01*
X52924809Y-35833332D02*
X53424809Y-35833332D01*
X53424809Y-36071428D02*
X53091476Y-36071428D01*
X52924809Y-36071428D02*
X52948619Y-36047619D01*
X52948619Y-36047619D02*
X52972428Y-36071428D01*
X52972428Y-36071428D02*
X52948619Y-36095238D01*
X52948619Y-36095238D02*
X52924809Y-36071428D01*
X52924809Y-36071428D02*
X52972428Y-36071428D01*
X53401000Y-36523809D02*
X53424809Y-36476190D01*
X53424809Y-36476190D02*
X53424809Y-36380952D01*
X53424809Y-36380952D02*
X53401000Y-36333333D01*
X53401000Y-36333333D02*
X53377190Y-36309523D01*
X53377190Y-36309523D02*
X53329571Y-36285714D01*
X53329571Y-36285714D02*
X53186714Y-36285714D01*
X53186714Y-36285714D02*
X53139095Y-36309523D01*
X53139095Y-36309523D02*
X53115285Y-36333333D01*
X53115285Y-36333333D02*
X53091476Y-36380952D01*
X53091476Y-36380952D02*
X53091476Y-36476190D01*
X53091476Y-36476190D02*
X53115285Y-36523809D01*
X53424809Y-36738094D02*
X53091476Y-36738094D01*
X53186714Y-36738094D02*
X53139095Y-36761904D01*
X53139095Y-36761904D02*
X53115285Y-36785713D01*
X53115285Y-36785713D02*
X53091476Y-36833332D01*
X53091476Y-36833332D02*
X53091476Y-36880951D01*
X53424809Y-37119047D02*
X53401000Y-37071428D01*
X53401000Y-37071428D02*
X53377190Y-37047618D01*
X53377190Y-37047618D02*
X53329571Y-37023809D01*
X53329571Y-37023809D02*
X53186714Y-37023809D01*
X53186714Y-37023809D02*
X53139095Y-37047618D01*
X53139095Y-37047618D02*
X53115285Y-37071428D01*
X53115285Y-37071428D02*
X53091476Y-37119047D01*
X53091476Y-37119047D02*
X53091476Y-37190475D01*
X53091476Y-37190475D02*
X53115285Y-37238094D01*
X53115285Y-37238094D02*
X53139095Y-37261904D01*
X53139095Y-37261904D02*
X53186714Y-37285713D01*
X53186714Y-37285713D02*
X53329571Y-37285713D01*
X53329571Y-37285713D02*
X53377190Y-37261904D01*
X53377190Y-37261904D02*
X53401000Y-37238094D01*
X53401000Y-37238094D02*
X53424809Y-37190475D01*
X53424809Y-37190475D02*
X53424809Y-37119047D01*
X45732913Y-22526009D02*
X46018627Y-22526009D01*
X45875770Y-22526009D02*
X45875770Y-22026009D01*
X45875770Y-22026009D02*
X45923389Y-22097438D01*
X45923389Y-22097438D02*
X45971008Y-22145057D01*
X45971008Y-22145057D02*
X46018627Y-22168866D01*
X45423390Y-22026009D02*
X45375771Y-22026009D01*
X45375771Y-22026009D02*
X45328152Y-22049819D01*
X45328152Y-22049819D02*
X45304342Y-22073628D01*
X45304342Y-22073628D02*
X45280533Y-22121247D01*
X45280533Y-22121247D02*
X45256723Y-22216485D01*
X45256723Y-22216485D02*
X45256723Y-22335533D01*
X45256723Y-22335533D02*
X45280533Y-22430771D01*
X45280533Y-22430771D02*
X45304342Y-22478390D01*
X45304342Y-22478390D02*
X45328152Y-22502200D01*
X45328152Y-22502200D02*
X45375771Y-22526009D01*
X45375771Y-22526009D02*
X45423390Y-22526009D01*
X45423390Y-22526009D02*
X45471009Y-22502200D01*
X45471009Y-22502200D02*
X45494818Y-22478390D01*
X45494818Y-22478390D02*
X45518628Y-22430771D01*
X45518628Y-22430771D02*
X45542437Y-22335533D01*
X45542437Y-22335533D02*
X45542437Y-22216485D01*
X45542437Y-22216485D02*
X45518628Y-22121247D01*
X45518628Y-22121247D02*
X45494818Y-22073628D01*
X45494818Y-22073628D02*
X45471009Y-22049819D01*
X45471009Y-22049819D02*
X45423390Y-22026009D01*
X44828152Y-22192676D02*
X44828152Y-22526009D01*
X45042438Y-22192676D02*
X45042438Y-22454580D01*
X45042438Y-22454580D02*
X45018628Y-22502200D01*
X45018628Y-22502200D02*
X44971009Y-22526009D01*
X44971009Y-22526009D02*
X44899581Y-22526009D01*
X44899581Y-22526009D02*
X44851962Y-22502200D01*
X44851962Y-22502200D02*
X44828152Y-22478390D01*
X44423390Y-22264104D02*
X44590057Y-22264104D01*
X44590057Y-22526009D02*
X44590057Y-22026009D01*
X44590057Y-22026009D02*
X44351962Y-22026009D01*
X25682818Y-27606009D02*
X25968532Y-27606009D01*
X25825675Y-27606009D02*
X25825675Y-27106009D01*
X25825675Y-27106009D02*
X25873294Y-27177438D01*
X25873294Y-27177438D02*
X25920913Y-27225057D01*
X25920913Y-27225057D02*
X25968532Y-27248866D01*
X25373295Y-27106009D02*
X25325676Y-27106009D01*
X25325676Y-27106009D02*
X25278057Y-27129819D01*
X25278057Y-27129819D02*
X25254247Y-27153628D01*
X25254247Y-27153628D02*
X25230438Y-27201247D01*
X25230438Y-27201247D02*
X25206628Y-27296485D01*
X25206628Y-27296485D02*
X25206628Y-27415533D01*
X25206628Y-27415533D02*
X25230438Y-27510771D01*
X25230438Y-27510771D02*
X25254247Y-27558390D01*
X25254247Y-27558390D02*
X25278057Y-27582200D01*
X25278057Y-27582200D02*
X25325676Y-27606009D01*
X25325676Y-27606009D02*
X25373295Y-27606009D01*
X25373295Y-27606009D02*
X25420914Y-27582200D01*
X25420914Y-27582200D02*
X25444723Y-27558390D01*
X25444723Y-27558390D02*
X25468533Y-27510771D01*
X25468533Y-27510771D02*
X25492342Y-27415533D01*
X25492342Y-27415533D02*
X25492342Y-27296485D01*
X25492342Y-27296485D02*
X25468533Y-27201247D01*
X25468533Y-27201247D02*
X25444723Y-27153628D01*
X25444723Y-27153628D02*
X25420914Y-27129819D01*
X25420914Y-27129819D02*
X25373295Y-27106009D01*
X24992343Y-27606009D02*
X24992343Y-27106009D01*
X24944724Y-27415533D02*
X24801867Y-27606009D01*
X24801867Y-27272676D02*
X24992343Y-27463152D01*
X26500342Y-43391409D02*
X26738437Y-43391409D01*
X26738437Y-43391409D02*
X26762246Y-43629504D01*
X26762246Y-43629504D02*
X26738437Y-43605695D01*
X26738437Y-43605695D02*
X26690818Y-43581885D01*
X26690818Y-43581885D02*
X26571770Y-43581885D01*
X26571770Y-43581885D02*
X26524151Y-43605695D01*
X26524151Y-43605695D02*
X26500342Y-43629504D01*
X26500342Y-43629504D02*
X26476532Y-43677123D01*
X26476532Y-43677123D02*
X26476532Y-43796171D01*
X26476532Y-43796171D02*
X26500342Y-43843790D01*
X26500342Y-43843790D02*
X26524151Y-43867600D01*
X26524151Y-43867600D02*
X26571770Y-43891409D01*
X26571770Y-43891409D02*
X26690818Y-43891409D01*
X26690818Y-43891409D02*
X26738437Y-43867600D01*
X26738437Y-43867600D02*
X26762246Y-43843790D01*
X26167009Y-43391409D02*
X26119390Y-43391409D01*
X26119390Y-43391409D02*
X26071771Y-43415219D01*
X26071771Y-43415219D02*
X26047961Y-43439028D01*
X26047961Y-43439028D02*
X26024152Y-43486647D01*
X26024152Y-43486647D02*
X26000342Y-43581885D01*
X26000342Y-43581885D02*
X26000342Y-43700933D01*
X26000342Y-43700933D02*
X26024152Y-43796171D01*
X26024152Y-43796171D02*
X26047961Y-43843790D01*
X26047961Y-43843790D02*
X26071771Y-43867600D01*
X26071771Y-43867600D02*
X26119390Y-43891409D01*
X26119390Y-43891409D02*
X26167009Y-43891409D01*
X26167009Y-43891409D02*
X26214628Y-43867600D01*
X26214628Y-43867600D02*
X26238437Y-43843790D01*
X26238437Y-43843790D02*
X26262247Y-43796171D01*
X26262247Y-43796171D02*
X26286056Y-43700933D01*
X26286056Y-43700933D02*
X26286056Y-43581885D01*
X26286056Y-43581885D02*
X26262247Y-43486647D01*
X26262247Y-43486647D02*
X26238437Y-43439028D01*
X26238437Y-43439028D02*
X26214628Y-43415219D01*
X26214628Y-43415219D02*
X26167009Y-43391409D01*
X25690819Y-43391409D02*
X25643200Y-43391409D01*
X25643200Y-43391409D02*
X25595581Y-43415219D01*
X25595581Y-43415219D02*
X25571771Y-43439028D01*
X25571771Y-43439028D02*
X25547962Y-43486647D01*
X25547962Y-43486647D02*
X25524152Y-43581885D01*
X25524152Y-43581885D02*
X25524152Y-43700933D01*
X25524152Y-43700933D02*
X25547962Y-43796171D01*
X25547962Y-43796171D02*
X25571771Y-43843790D01*
X25571771Y-43843790D02*
X25595581Y-43867600D01*
X25595581Y-43867600D02*
X25643200Y-43891409D01*
X25643200Y-43891409D02*
X25690819Y-43891409D01*
X25690819Y-43891409D02*
X25738438Y-43867600D01*
X25738438Y-43867600D02*
X25762247Y-43843790D01*
X25762247Y-43843790D02*
X25786057Y-43796171D01*
X25786057Y-43796171D02*
X25809866Y-43700933D01*
X25809866Y-43700933D02*
X25809866Y-43581885D01*
X25809866Y-43581885D02*
X25786057Y-43486647D01*
X25786057Y-43486647D02*
X25762247Y-43439028D01*
X25762247Y-43439028D02*
X25738438Y-43415219D01*
X25738438Y-43415219D02*
X25690819Y-43391409D01*
X25024153Y-43891409D02*
X25190819Y-43653314D01*
X25309867Y-43891409D02*
X25309867Y-43391409D01*
X25309867Y-43391409D02*
X25119391Y-43391409D01*
X25119391Y-43391409D02*
X25071772Y-43415219D01*
X25071772Y-43415219D02*
X25047962Y-43439028D01*
X25047962Y-43439028D02*
X25024153Y-43486647D01*
X25024153Y-43486647D02*
X25024153Y-43558076D01*
X25024153Y-43558076D02*
X25047962Y-43605695D01*
X25047962Y-43605695D02*
X25071772Y-43629504D01*
X25071772Y-43629504D02*
X25119391Y-43653314D01*
X25119391Y-43653314D02*
X25309867Y-43653314D01*
X45921000Y-29353240D02*
X45944809Y-29424668D01*
X45944809Y-29424668D02*
X45944809Y-29543716D01*
X45944809Y-29543716D02*
X45921000Y-29591335D01*
X45921000Y-29591335D02*
X45897190Y-29615144D01*
X45897190Y-29615144D02*
X45849571Y-29638954D01*
X45849571Y-29638954D02*
X45801952Y-29638954D01*
X45801952Y-29638954D02*
X45754333Y-29615144D01*
X45754333Y-29615144D02*
X45730523Y-29591335D01*
X45730523Y-29591335D02*
X45706714Y-29543716D01*
X45706714Y-29543716D02*
X45682904Y-29448478D01*
X45682904Y-29448478D02*
X45659095Y-29400859D01*
X45659095Y-29400859D02*
X45635285Y-29377049D01*
X45635285Y-29377049D02*
X45587666Y-29353240D01*
X45587666Y-29353240D02*
X45540047Y-29353240D01*
X45540047Y-29353240D02*
X45492428Y-29377049D01*
X45492428Y-29377049D02*
X45468619Y-29400859D01*
X45468619Y-29400859D02*
X45444809Y-29448478D01*
X45444809Y-29448478D02*
X45444809Y-29567525D01*
X45444809Y-29567525D02*
X45468619Y-29638954D01*
X45444809Y-29781811D02*
X45444809Y-30067525D01*
X45944809Y-29924668D02*
X45444809Y-29924668D01*
X45944809Y-30234191D02*
X45444809Y-30234191D01*
X45444809Y-30234191D02*
X45801952Y-30400858D01*
X45801952Y-30400858D02*
X45444809Y-30567524D01*
X45444809Y-30567524D02*
X45944809Y-30567524D01*
X45444809Y-30758001D02*
X45444809Y-31067525D01*
X45444809Y-31067525D02*
X45635285Y-30900858D01*
X45635285Y-30900858D02*
X45635285Y-30972287D01*
X45635285Y-30972287D02*
X45659095Y-31019906D01*
X45659095Y-31019906D02*
X45682904Y-31043715D01*
X45682904Y-31043715D02*
X45730523Y-31067525D01*
X45730523Y-31067525D02*
X45849571Y-31067525D01*
X45849571Y-31067525D02*
X45897190Y-31043715D01*
X45897190Y-31043715D02*
X45921000Y-31019906D01*
X45921000Y-31019906D02*
X45944809Y-30972287D01*
X45944809Y-30972287D02*
X45944809Y-30829430D01*
X45944809Y-30829430D02*
X45921000Y-30781811D01*
X45921000Y-30781811D02*
X45897190Y-30758001D01*
X45492428Y-31258001D02*
X45468619Y-31281810D01*
X45468619Y-31281810D02*
X45444809Y-31329429D01*
X45444809Y-31329429D02*
X45444809Y-31448477D01*
X45444809Y-31448477D02*
X45468619Y-31496096D01*
X45468619Y-31496096D02*
X45492428Y-31519905D01*
X45492428Y-31519905D02*
X45540047Y-31543715D01*
X45540047Y-31543715D02*
X45587666Y-31543715D01*
X45587666Y-31543715D02*
X45659095Y-31519905D01*
X45659095Y-31519905D02*
X45944809Y-31234191D01*
X45944809Y-31234191D02*
X45944809Y-31543715D01*
X45682904Y-31924667D02*
X45682904Y-31758000D01*
X45944809Y-31758000D02*
X45444809Y-31758000D01*
X45444809Y-31758000D02*
X45444809Y-31996095D01*
X45944809Y-32448476D02*
X45944809Y-32162762D01*
X45944809Y-32305619D02*
X45444809Y-32305619D01*
X45444809Y-32305619D02*
X45516238Y-32258000D01*
X45516238Y-32258000D02*
X45563857Y-32210381D01*
X45563857Y-32210381D02*
X45587666Y-32162762D01*
X45444809Y-32757999D02*
X45444809Y-32805618D01*
X45444809Y-32805618D02*
X45468619Y-32853237D01*
X45468619Y-32853237D02*
X45492428Y-32877047D01*
X45492428Y-32877047D02*
X45540047Y-32900856D01*
X45540047Y-32900856D02*
X45635285Y-32924666D01*
X45635285Y-32924666D02*
X45754333Y-32924666D01*
X45754333Y-32924666D02*
X45849571Y-32900856D01*
X45849571Y-32900856D02*
X45897190Y-32877047D01*
X45897190Y-32877047D02*
X45921000Y-32853237D01*
X45921000Y-32853237D02*
X45944809Y-32805618D01*
X45944809Y-32805618D02*
X45944809Y-32757999D01*
X45944809Y-32757999D02*
X45921000Y-32710380D01*
X45921000Y-32710380D02*
X45897190Y-32686571D01*
X45897190Y-32686571D02*
X45849571Y-32662761D01*
X45849571Y-32662761D02*
X45754333Y-32638952D01*
X45754333Y-32638952D02*
X45635285Y-32638952D01*
X45635285Y-32638952D02*
X45540047Y-32662761D01*
X45540047Y-32662761D02*
X45492428Y-32686571D01*
X45492428Y-32686571D02*
X45468619Y-32710380D01*
X45468619Y-32710380D02*
X45444809Y-32757999D01*
X45444809Y-33091332D02*
X45444809Y-33400856D01*
X45444809Y-33400856D02*
X45635285Y-33234189D01*
X45635285Y-33234189D02*
X45635285Y-33305618D01*
X45635285Y-33305618D02*
X45659095Y-33353237D01*
X45659095Y-33353237D02*
X45682904Y-33377046D01*
X45682904Y-33377046D02*
X45730523Y-33400856D01*
X45730523Y-33400856D02*
X45849571Y-33400856D01*
X45849571Y-33400856D02*
X45897190Y-33377046D01*
X45897190Y-33377046D02*
X45921000Y-33353237D01*
X45921000Y-33353237D02*
X45944809Y-33305618D01*
X45944809Y-33305618D02*
X45944809Y-33162761D01*
X45944809Y-33162761D02*
X45921000Y-33115142D01*
X45921000Y-33115142D02*
X45897190Y-33091332D01*
X45897190Y-33900855D02*
X45921000Y-33877046D01*
X45921000Y-33877046D02*
X45944809Y-33805617D01*
X45944809Y-33805617D02*
X45944809Y-33757998D01*
X45944809Y-33757998D02*
X45921000Y-33686570D01*
X45921000Y-33686570D02*
X45873380Y-33638951D01*
X45873380Y-33638951D02*
X45825761Y-33615141D01*
X45825761Y-33615141D02*
X45730523Y-33591332D01*
X45730523Y-33591332D02*
X45659095Y-33591332D01*
X45659095Y-33591332D02*
X45563857Y-33615141D01*
X45563857Y-33615141D02*
X45516238Y-33638951D01*
X45516238Y-33638951D02*
X45468619Y-33686570D01*
X45468619Y-33686570D02*
X45444809Y-33757998D01*
X45444809Y-33757998D02*
X45444809Y-33805617D01*
X45444809Y-33805617D02*
X45468619Y-33877046D01*
X45468619Y-33877046D02*
X45492428Y-33900855D01*
X45659095Y-34186570D02*
X45635285Y-34138951D01*
X45635285Y-34138951D02*
X45611476Y-34115141D01*
X45611476Y-34115141D02*
X45563857Y-34091332D01*
X45563857Y-34091332D02*
X45540047Y-34091332D01*
X45540047Y-34091332D02*
X45492428Y-34115141D01*
X45492428Y-34115141D02*
X45468619Y-34138951D01*
X45468619Y-34138951D02*
X45444809Y-34186570D01*
X45444809Y-34186570D02*
X45444809Y-34281808D01*
X45444809Y-34281808D02*
X45468619Y-34329427D01*
X45468619Y-34329427D02*
X45492428Y-34353236D01*
X45492428Y-34353236D02*
X45540047Y-34377046D01*
X45540047Y-34377046D02*
X45563857Y-34377046D01*
X45563857Y-34377046D02*
X45611476Y-34353236D01*
X45611476Y-34353236D02*
X45635285Y-34329427D01*
X45635285Y-34329427D02*
X45659095Y-34281808D01*
X45659095Y-34281808D02*
X45659095Y-34186570D01*
X45659095Y-34186570D02*
X45682904Y-34138951D01*
X45682904Y-34138951D02*
X45706714Y-34115141D01*
X45706714Y-34115141D02*
X45754333Y-34091332D01*
X45754333Y-34091332D02*
X45849571Y-34091332D01*
X45849571Y-34091332D02*
X45897190Y-34115141D01*
X45897190Y-34115141D02*
X45921000Y-34138951D01*
X45921000Y-34138951D02*
X45944809Y-34186570D01*
X45944809Y-34186570D02*
X45944809Y-34281808D01*
X45944809Y-34281808D02*
X45921000Y-34329427D01*
X45921000Y-34329427D02*
X45897190Y-34353236D01*
X45897190Y-34353236D02*
X45849571Y-34377046D01*
X45849571Y-34377046D02*
X45754333Y-34377046D01*
X45754333Y-34377046D02*
X45706714Y-34353236D01*
X45706714Y-34353236D02*
X45682904Y-34329427D01*
X45682904Y-34329427D02*
X45659095Y-34281808D01*
X45444809Y-34519903D02*
X45444809Y-34805617D01*
X45944809Y-34662760D02*
X45444809Y-34662760D01*
X45944809Y-34924664D02*
X45611476Y-35186569D01*
X45611476Y-34924664D02*
X45944809Y-35186569D01*
X47823409Y-36647491D02*
X47823409Y-36361777D01*
X47823409Y-36504634D02*
X47323409Y-36504634D01*
X47323409Y-36504634D02*
X47394838Y-36457015D01*
X47394838Y-36457015D02*
X47442457Y-36409396D01*
X47442457Y-36409396D02*
X47466266Y-36361777D01*
X47323409Y-36957014D02*
X47323409Y-37004633D01*
X47323409Y-37004633D02*
X47347219Y-37052252D01*
X47347219Y-37052252D02*
X47371028Y-37076062D01*
X47371028Y-37076062D02*
X47418647Y-37099871D01*
X47418647Y-37099871D02*
X47513885Y-37123681D01*
X47513885Y-37123681D02*
X47632933Y-37123681D01*
X47632933Y-37123681D02*
X47728171Y-37099871D01*
X47728171Y-37099871D02*
X47775790Y-37076062D01*
X47775790Y-37076062D02*
X47799600Y-37052252D01*
X47799600Y-37052252D02*
X47823409Y-37004633D01*
X47823409Y-37004633D02*
X47823409Y-36957014D01*
X47823409Y-36957014D02*
X47799600Y-36909395D01*
X47799600Y-36909395D02*
X47775790Y-36885586D01*
X47775790Y-36885586D02*
X47728171Y-36861776D01*
X47728171Y-36861776D02*
X47632933Y-36837967D01*
X47632933Y-36837967D02*
X47513885Y-36837967D01*
X47513885Y-36837967D02*
X47418647Y-36861776D01*
X47418647Y-36861776D02*
X47371028Y-36885586D01*
X47371028Y-36885586D02*
X47347219Y-36909395D01*
X47347219Y-36909395D02*
X47323409Y-36957014D01*
X47323409Y-37433204D02*
X47323409Y-37480823D01*
X47323409Y-37480823D02*
X47347219Y-37528442D01*
X47347219Y-37528442D02*
X47371028Y-37552252D01*
X47371028Y-37552252D02*
X47418647Y-37576061D01*
X47418647Y-37576061D02*
X47513885Y-37599871D01*
X47513885Y-37599871D02*
X47632933Y-37599871D01*
X47632933Y-37599871D02*
X47728171Y-37576061D01*
X47728171Y-37576061D02*
X47775790Y-37552252D01*
X47775790Y-37552252D02*
X47799600Y-37528442D01*
X47799600Y-37528442D02*
X47823409Y-37480823D01*
X47823409Y-37480823D02*
X47823409Y-37433204D01*
X47823409Y-37433204D02*
X47799600Y-37385585D01*
X47799600Y-37385585D02*
X47775790Y-37361776D01*
X47775790Y-37361776D02*
X47728171Y-37337966D01*
X47728171Y-37337966D02*
X47632933Y-37314157D01*
X47632933Y-37314157D02*
X47513885Y-37314157D01*
X47513885Y-37314157D02*
X47418647Y-37337966D01*
X47418647Y-37337966D02*
X47371028Y-37361776D01*
X47371028Y-37361776D02*
X47347219Y-37385585D01*
X47347219Y-37385585D02*
X47323409Y-37433204D01*
X47490076Y-37814156D02*
X47823409Y-37814156D01*
X47537695Y-37814156D02*
X47513885Y-37837966D01*
X47513885Y-37837966D02*
X47490076Y-37885585D01*
X47490076Y-37885585D02*
X47490076Y-37957013D01*
X47490076Y-37957013D02*
X47513885Y-38004632D01*
X47513885Y-38004632D02*
X47561504Y-38028442D01*
X47561504Y-38028442D02*
X47823409Y-38028442D01*
X47561504Y-38433204D02*
X47561504Y-38266537D01*
X47823409Y-38266537D02*
X47323409Y-38266537D01*
X47323409Y-38266537D02*
X47323409Y-38504632D01*
X40824609Y-38900991D02*
X40824609Y-38615277D01*
X40824609Y-38758134D02*
X40324609Y-38758134D01*
X40324609Y-38758134D02*
X40396038Y-38710515D01*
X40396038Y-38710515D02*
X40443657Y-38662896D01*
X40443657Y-38662896D02*
X40467466Y-38615277D01*
X40324609Y-39210514D02*
X40324609Y-39258133D01*
X40324609Y-39258133D02*
X40348419Y-39305752D01*
X40348419Y-39305752D02*
X40372228Y-39329562D01*
X40372228Y-39329562D02*
X40419847Y-39353371D01*
X40419847Y-39353371D02*
X40515085Y-39377181D01*
X40515085Y-39377181D02*
X40634133Y-39377181D01*
X40634133Y-39377181D02*
X40729371Y-39353371D01*
X40729371Y-39353371D02*
X40776990Y-39329562D01*
X40776990Y-39329562D02*
X40800800Y-39305752D01*
X40800800Y-39305752D02*
X40824609Y-39258133D01*
X40824609Y-39258133D02*
X40824609Y-39210514D01*
X40824609Y-39210514D02*
X40800800Y-39162895D01*
X40800800Y-39162895D02*
X40776990Y-39139086D01*
X40776990Y-39139086D02*
X40729371Y-39115276D01*
X40729371Y-39115276D02*
X40634133Y-39091467D01*
X40634133Y-39091467D02*
X40515085Y-39091467D01*
X40515085Y-39091467D02*
X40419847Y-39115276D01*
X40419847Y-39115276D02*
X40372228Y-39139086D01*
X40372228Y-39139086D02*
X40348419Y-39162895D01*
X40348419Y-39162895D02*
X40324609Y-39210514D01*
X40324609Y-39686704D02*
X40324609Y-39734323D01*
X40324609Y-39734323D02*
X40348419Y-39781942D01*
X40348419Y-39781942D02*
X40372228Y-39805752D01*
X40372228Y-39805752D02*
X40419847Y-39829561D01*
X40419847Y-39829561D02*
X40515085Y-39853371D01*
X40515085Y-39853371D02*
X40634133Y-39853371D01*
X40634133Y-39853371D02*
X40729371Y-39829561D01*
X40729371Y-39829561D02*
X40776990Y-39805752D01*
X40776990Y-39805752D02*
X40800800Y-39781942D01*
X40800800Y-39781942D02*
X40824609Y-39734323D01*
X40824609Y-39734323D02*
X40824609Y-39686704D01*
X40824609Y-39686704D02*
X40800800Y-39639085D01*
X40800800Y-39639085D02*
X40776990Y-39615276D01*
X40776990Y-39615276D02*
X40729371Y-39591466D01*
X40729371Y-39591466D02*
X40634133Y-39567657D01*
X40634133Y-39567657D02*
X40515085Y-39567657D01*
X40515085Y-39567657D02*
X40419847Y-39591466D01*
X40419847Y-39591466D02*
X40372228Y-39615276D01*
X40372228Y-39615276D02*
X40348419Y-39639085D01*
X40348419Y-39639085D02*
X40324609Y-39686704D01*
X40491276Y-40067656D02*
X40824609Y-40067656D01*
X40538895Y-40067656D02*
X40515085Y-40091466D01*
X40515085Y-40091466D02*
X40491276Y-40139085D01*
X40491276Y-40139085D02*
X40491276Y-40210513D01*
X40491276Y-40210513D02*
X40515085Y-40258132D01*
X40515085Y-40258132D02*
X40562704Y-40281942D01*
X40562704Y-40281942D02*
X40824609Y-40281942D01*
X40562704Y-40686704D02*
X40562704Y-40520037D01*
X40824609Y-40520037D02*
X40324609Y-40520037D01*
X40324609Y-40520037D02*
X40324609Y-40758132D01*
D10*
X29165123Y-46153847D02*
X29403218Y-46153847D01*
X29403218Y-46153847D02*
X29403218Y-45753847D01*
X28998456Y-46153847D02*
X28998456Y-45753847D01*
X28998456Y-45753847D02*
X28831789Y-46039561D01*
X28831789Y-46039561D02*
X28665123Y-45753847D01*
X28665123Y-45753847D02*
X28665123Y-46153847D01*
X28498455Y-45753847D02*
X28331789Y-46153847D01*
X28331789Y-46153847D02*
X28165122Y-45753847D01*
X28046075Y-45753847D02*
X27736551Y-45753847D01*
X27736551Y-45753847D02*
X27903218Y-45906228D01*
X27903218Y-45906228D02*
X27831789Y-45906228D01*
X27831789Y-45906228D02*
X27784170Y-45925276D01*
X27784170Y-45925276D02*
X27760361Y-45944323D01*
X27760361Y-45944323D02*
X27736551Y-45982419D01*
X27736551Y-45982419D02*
X27736551Y-46077657D01*
X27736551Y-46077657D02*
X27760361Y-46115752D01*
X27760361Y-46115752D02*
X27784170Y-46134800D01*
X27784170Y-46134800D02*
X27831789Y-46153847D01*
X27831789Y-46153847D02*
X27974646Y-46153847D01*
X27974646Y-46153847D02*
X28022265Y-46134800D01*
X28022265Y-46134800D02*
X28046075Y-46115752D01*
X27546075Y-45791942D02*
X27522266Y-45772895D01*
X27522266Y-45772895D02*
X27474647Y-45753847D01*
X27474647Y-45753847D02*
X27355599Y-45753847D01*
X27355599Y-45753847D02*
X27307980Y-45772895D01*
X27307980Y-45772895D02*
X27284171Y-45791942D01*
X27284171Y-45791942D02*
X27260361Y-45830038D01*
X27260361Y-45830038D02*
X27260361Y-45868133D01*
X27260361Y-45868133D02*
X27284171Y-45925276D01*
X27284171Y-45925276D02*
X27569885Y-46153847D01*
X27569885Y-46153847D02*
X27260361Y-46153847D01*
X26784171Y-46153847D02*
X27069885Y-46153847D01*
X26927028Y-46153847D02*
X26927028Y-45753847D01*
X26927028Y-45753847D02*
X26974647Y-45810990D01*
X26974647Y-45810990D02*
X27022266Y-45849085D01*
X27022266Y-45849085D02*
X27069885Y-45868133D01*
D14*
X38185932Y-26640809D02*
X38471646Y-26640809D01*
X38328789Y-26640809D02*
X38328789Y-26140809D01*
X38328789Y-26140809D02*
X38376408Y-26212238D01*
X38376408Y-26212238D02*
X38424027Y-26259857D01*
X38424027Y-26259857D02*
X38471646Y-26283666D01*
X37995456Y-26188428D02*
X37971647Y-26164619D01*
X37971647Y-26164619D02*
X37924028Y-26140809D01*
X37924028Y-26140809D02*
X37804980Y-26140809D01*
X37804980Y-26140809D02*
X37757361Y-26164619D01*
X37757361Y-26164619D02*
X37733552Y-26188428D01*
X37733552Y-26188428D02*
X37709742Y-26236047D01*
X37709742Y-26236047D02*
X37709742Y-26283666D01*
X37709742Y-26283666D02*
X37733552Y-26355095D01*
X37733552Y-26355095D02*
X38019266Y-26640809D01*
X38019266Y-26640809D02*
X37709742Y-26640809D01*
X37400219Y-26140809D02*
X37352600Y-26140809D01*
X37352600Y-26140809D02*
X37304981Y-26164619D01*
X37304981Y-26164619D02*
X37281171Y-26188428D01*
X37281171Y-26188428D02*
X37257362Y-26236047D01*
X37257362Y-26236047D02*
X37233552Y-26331285D01*
X37233552Y-26331285D02*
X37233552Y-26450333D01*
X37233552Y-26450333D02*
X37257362Y-26545571D01*
X37257362Y-26545571D02*
X37281171Y-26593190D01*
X37281171Y-26593190D02*
X37304981Y-26617000D01*
X37304981Y-26617000D02*
X37352600Y-26640809D01*
X37352600Y-26640809D02*
X37400219Y-26640809D01*
X37400219Y-26640809D02*
X37447838Y-26617000D01*
X37447838Y-26617000D02*
X37471647Y-26593190D01*
X37471647Y-26593190D02*
X37495457Y-26545571D01*
X37495457Y-26545571D02*
X37519266Y-26450333D01*
X37519266Y-26450333D02*
X37519266Y-26331285D01*
X37519266Y-26331285D02*
X37495457Y-26236047D01*
X37495457Y-26236047D02*
X37471647Y-26188428D01*
X37471647Y-26188428D02*
X37447838Y-26164619D01*
X37447838Y-26164619D02*
X37400219Y-26140809D01*
X36733553Y-26640809D02*
X36900219Y-26402714D01*
X37019267Y-26640809D02*
X37019267Y-26140809D01*
X37019267Y-26140809D02*
X36828791Y-26140809D01*
X36828791Y-26140809D02*
X36781172Y-26164619D01*
X36781172Y-26164619D02*
X36757362Y-26188428D01*
X36757362Y-26188428D02*
X36733553Y-26236047D01*
X36733553Y-26236047D02*
X36733553Y-26307476D01*
X36733553Y-26307476D02*
X36757362Y-26355095D01*
X36757362Y-26355095D02*
X36781172Y-26378904D01*
X36781172Y-26378904D02*
X36828791Y-26402714D01*
X36828791Y-26402714D02*
X37019267Y-26402714D01*
X35836408Y-25775609D02*
X36122122Y-25775609D01*
X35979265Y-25775609D02*
X35979265Y-25275609D01*
X35979265Y-25275609D02*
X36026884Y-25347038D01*
X36026884Y-25347038D02*
X36074503Y-25394657D01*
X36074503Y-25394657D02*
X36122122Y-25418466D01*
X35526885Y-25275609D02*
X35479266Y-25275609D01*
X35479266Y-25275609D02*
X35431647Y-25299419D01*
X35431647Y-25299419D02*
X35407837Y-25323228D01*
X35407837Y-25323228D02*
X35384028Y-25370847D01*
X35384028Y-25370847D02*
X35360218Y-25466085D01*
X35360218Y-25466085D02*
X35360218Y-25585133D01*
X35360218Y-25585133D02*
X35384028Y-25680371D01*
X35384028Y-25680371D02*
X35407837Y-25727990D01*
X35407837Y-25727990D02*
X35431647Y-25751800D01*
X35431647Y-25751800D02*
X35479266Y-25775609D01*
X35479266Y-25775609D02*
X35526885Y-25775609D01*
X35526885Y-25775609D02*
X35574504Y-25751800D01*
X35574504Y-25751800D02*
X35598313Y-25727990D01*
X35598313Y-25727990D02*
X35622123Y-25680371D01*
X35622123Y-25680371D02*
X35645932Y-25585133D01*
X35645932Y-25585133D02*
X35645932Y-25466085D01*
X35645932Y-25466085D02*
X35622123Y-25370847D01*
X35622123Y-25370847D02*
X35598313Y-25323228D01*
X35598313Y-25323228D02*
X35574504Y-25299419D01*
X35574504Y-25299419D02*
X35526885Y-25275609D01*
X35050695Y-25275609D02*
X35003076Y-25275609D01*
X35003076Y-25275609D02*
X34955457Y-25299419D01*
X34955457Y-25299419D02*
X34931647Y-25323228D01*
X34931647Y-25323228D02*
X34907838Y-25370847D01*
X34907838Y-25370847D02*
X34884028Y-25466085D01*
X34884028Y-25466085D02*
X34884028Y-25585133D01*
X34884028Y-25585133D02*
X34907838Y-25680371D01*
X34907838Y-25680371D02*
X34931647Y-25727990D01*
X34931647Y-25727990D02*
X34955457Y-25751800D01*
X34955457Y-25751800D02*
X35003076Y-25775609D01*
X35003076Y-25775609D02*
X35050695Y-25775609D01*
X35050695Y-25775609D02*
X35098314Y-25751800D01*
X35098314Y-25751800D02*
X35122123Y-25727990D01*
X35122123Y-25727990D02*
X35145933Y-25680371D01*
X35145933Y-25680371D02*
X35169742Y-25585133D01*
X35169742Y-25585133D02*
X35169742Y-25466085D01*
X35169742Y-25466085D02*
X35145933Y-25370847D01*
X35145933Y-25370847D02*
X35122123Y-25323228D01*
X35122123Y-25323228D02*
X35098314Y-25299419D01*
X35098314Y-25299419D02*
X35050695Y-25275609D01*
X34669743Y-25442276D02*
X34669743Y-25775609D01*
X34669743Y-25489895D02*
X34645933Y-25466085D01*
X34645933Y-25466085D02*
X34598314Y-25442276D01*
X34598314Y-25442276D02*
X34526886Y-25442276D01*
X34526886Y-25442276D02*
X34479267Y-25466085D01*
X34479267Y-25466085D02*
X34455457Y-25513704D01*
X34455457Y-25513704D02*
X34455457Y-25775609D01*
X34050695Y-25513704D02*
X34217362Y-25513704D01*
X34217362Y-25775609D02*
X34217362Y-25275609D01*
X34217362Y-25275609D02*
X33979267Y-25275609D01*
X48484809Y-26384381D02*
X47984809Y-26384381D01*
X47984809Y-26384381D02*
X47984809Y-26574857D01*
X47984809Y-26574857D02*
X48008619Y-26622476D01*
X48008619Y-26622476D02*
X48032428Y-26646286D01*
X48032428Y-26646286D02*
X48080047Y-26670095D01*
X48080047Y-26670095D02*
X48151476Y-26670095D01*
X48151476Y-26670095D02*
X48199095Y-26646286D01*
X48199095Y-26646286D02*
X48222904Y-26622476D01*
X48222904Y-26622476D02*
X48246714Y-26574857D01*
X48246714Y-26574857D02*
X48246714Y-26384381D01*
X48222904Y-27051048D02*
X48246714Y-27122476D01*
X48246714Y-27122476D02*
X48270523Y-27146286D01*
X48270523Y-27146286D02*
X48318142Y-27170095D01*
X48318142Y-27170095D02*
X48389571Y-27170095D01*
X48389571Y-27170095D02*
X48437190Y-27146286D01*
X48437190Y-27146286D02*
X48461000Y-27122476D01*
X48461000Y-27122476D02*
X48484809Y-27074857D01*
X48484809Y-27074857D02*
X48484809Y-26884381D01*
X48484809Y-26884381D02*
X47984809Y-26884381D01*
X47984809Y-26884381D02*
X47984809Y-27051048D01*
X47984809Y-27051048D02*
X48008619Y-27098667D01*
X48008619Y-27098667D02*
X48032428Y-27122476D01*
X48032428Y-27122476D02*
X48080047Y-27146286D01*
X48080047Y-27146286D02*
X48127666Y-27146286D01*
X48127666Y-27146286D02*
X48175285Y-27122476D01*
X48175285Y-27122476D02*
X48199095Y-27098667D01*
X48199095Y-27098667D02*
X48222904Y-27051048D01*
X48222904Y-27051048D02*
X48222904Y-26884381D01*
X48532428Y-27265334D02*
X48532428Y-27646286D01*
X48484809Y-28027238D02*
X48484809Y-27741524D01*
X48484809Y-27884381D02*
X47984809Y-27884381D01*
X47984809Y-27884381D02*
X48056238Y-27836762D01*
X48056238Y-27836762D02*
X48103857Y-27789143D01*
X48103857Y-27789143D02*
X48127666Y-27741524D01*
X48032428Y-28217714D02*
X48008619Y-28241523D01*
X48008619Y-28241523D02*
X47984809Y-28289142D01*
X47984809Y-28289142D02*
X47984809Y-28408190D01*
X47984809Y-28408190D02*
X48008619Y-28455809D01*
X48008619Y-28455809D02*
X48032428Y-28479618D01*
X48032428Y-28479618D02*
X48080047Y-28503428D01*
X48080047Y-28503428D02*
X48127666Y-28503428D01*
X48127666Y-28503428D02*
X48199095Y-28479618D01*
X48199095Y-28479618D02*
X48484809Y-28193904D01*
X48484809Y-28193904D02*
X48484809Y-28503428D01*
X29684837Y-36910409D02*
X29375313Y-36910409D01*
X29375313Y-36910409D02*
X29541980Y-37100885D01*
X29541980Y-37100885D02*
X29470551Y-37100885D01*
X29470551Y-37100885D02*
X29422932Y-37124695D01*
X29422932Y-37124695D02*
X29399123Y-37148504D01*
X29399123Y-37148504D02*
X29375313Y-37196123D01*
X29375313Y-37196123D02*
X29375313Y-37315171D01*
X29375313Y-37315171D02*
X29399123Y-37362790D01*
X29399123Y-37362790D02*
X29422932Y-37386600D01*
X29422932Y-37386600D02*
X29470551Y-37410409D01*
X29470551Y-37410409D02*
X29613408Y-37410409D01*
X29613408Y-37410409D02*
X29661027Y-37386600D01*
X29661027Y-37386600D02*
X29684837Y-37362790D01*
X29208647Y-36910409D02*
X28899123Y-36910409D01*
X28899123Y-36910409D02*
X29065790Y-37100885D01*
X29065790Y-37100885D02*
X28994361Y-37100885D01*
X28994361Y-37100885D02*
X28946742Y-37124695D01*
X28946742Y-37124695D02*
X28922933Y-37148504D01*
X28922933Y-37148504D02*
X28899123Y-37196123D01*
X28899123Y-37196123D02*
X28899123Y-37315171D01*
X28899123Y-37315171D02*
X28922933Y-37362790D01*
X28922933Y-37362790D02*
X28946742Y-37386600D01*
X28946742Y-37386600D02*
X28994361Y-37410409D01*
X28994361Y-37410409D02*
X29137218Y-37410409D01*
X29137218Y-37410409D02*
X29184837Y-37386600D01*
X29184837Y-37386600D02*
X29208647Y-37362790D01*
X28684838Y-37077076D02*
X28684838Y-37577076D01*
X28684838Y-37100885D02*
X28637219Y-37077076D01*
X28637219Y-37077076D02*
X28541981Y-37077076D01*
X28541981Y-37077076D02*
X28494362Y-37100885D01*
X28494362Y-37100885D02*
X28470552Y-37124695D01*
X28470552Y-37124695D02*
X28446743Y-37172314D01*
X28446743Y-37172314D02*
X28446743Y-37315171D01*
X28446743Y-37315171D02*
X28470552Y-37362790D01*
X28470552Y-37362790D02*
X28494362Y-37386600D01*
X28494362Y-37386600D02*
X28541981Y-37410409D01*
X28541981Y-37410409D02*
X28637219Y-37410409D01*
X28637219Y-37410409D02*
X28684838Y-37386600D01*
X28065790Y-37148504D02*
X28232457Y-37148504D01*
X28232457Y-37410409D02*
X28232457Y-36910409D01*
X28232457Y-36910409D02*
X27994362Y-36910409D01*
X29230865Y-34972009D02*
X29516579Y-34972009D01*
X29373722Y-34972009D02*
X29373722Y-34472009D01*
X29373722Y-34472009D02*
X29421341Y-34543438D01*
X29421341Y-34543438D02*
X29468960Y-34591057D01*
X29468960Y-34591057D02*
X29516579Y-34614866D01*
X29016580Y-34924390D02*
X28992770Y-34948200D01*
X28992770Y-34948200D02*
X29016580Y-34972009D01*
X29016580Y-34972009D02*
X29040389Y-34948200D01*
X29040389Y-34948200D02*
X29016580Y-34924390D01*
X29016580Y-34924390D02*
X29016580Y-34972009D01*
X28540390Y-34472009D02*
X28778485Y-34472009D01*
X28778485Y-34472009D02*
X28802294Y-34710104D01*
X28802294Y-34710104D02*
X28778485Y-34686295D01*
X28778485Y-34686295D02*
X28730866Y-34662485D01*
X28730866Y-34662485D02*
X28611818Y-34662485D01*
X28611818Y-34662485D02*
X28564199Y-34686295D01*
X28564199Y-34686295D02*
X28540390Y-34710104D01*
X28540390Y-34710104D02*
X28516580Y-34757723D01*
X28516580Y-34757723D02*
X28516580Y-34876771D01*
X28516580Y-34876771D02*
X28540390Y-34924390D01*
X28540390Y-34924390D02*
X28564199Y-34948200D01*
X28564199Y-34948200D02*
X28611818Y-34972009D01*
X28611818Y-34972009D02*
X28730866Y-34972009D01*
X28730866Y-34972009D02*
X28778485Y-34948200D01*
X28778485Y-34948200D02*
X28802294Y-34924390D01*
X28302295Y-34972009D02*
X28302295Y-34472009D01*
X28254676Y-34781533D02*
X28111819Y-34972009D01*
X28111819Y-34638676D02*
X28302295Y-34829152D01*
X42207618Y-26640809D02*
X42493332Y-26640809D01*
X42350475Y-26640809D02*
X42350475Y-26140809D01*
X42350475Y-26140809D02*
X42398094Y-26212238D01*
X42398094Y-26212238D02*
X42445713Y-26259857D01*
X42445713Y-26259857D02*
X42493332Y-26283666D01*
X41779047Y-26307476D02*
X41779047Y-26640809D01*
X41993333Y-26307476D02*
X41993333Y-26569380D01*
X41993333Y-26569380D02*
X41969523Y-26617000D01*
X41969523Y-26617000D02*
X41921904Y-26640809D01*
X41921904Y-26640809D02*
X41850476Y-26640809D01*
X41850476Y-26640809D02*
X41802857Y-26617000D01*
X41802857Y-26617000D02*
X41779047Y-26593190D01*
X41374285Y-26378904D02*
X41540952Y-26378904D01*
X41540952Y-26640809D02*
X41540952Y-26140809D01*
X41540952Y-26140809D02*
X41302857Y-26140809D01*
X49359009Y-34381334D02*
X49359009Y-34095620D01*
X49359009Y-34238477D02*
X48859009Y-34238477D01*
X48859009Y-34238477D02*
X48930438Y-34190858D01*
X48930438Y-34190858D02*
X48978057Y-34143239D01*
X48978057Y-34143239D02*
X49001866Y-34095620D01*
X49311390Y-34595619D02*
X49335200Y-34619429D01*
X49335200Y-34619429D02*
X49359009Y-34595619D01*
X49359009Y-34595619D02*
X49335200Y-34571810D01*
X49335200Y-34571810D02*
X49311390Y-34595619D01*
X49311390Y-34595619D02*
X49359009Y-34595619D01*
X48859009Y-35071809D02*
X48859009Y-34833714D01*
X48859009Y-34833714D02*
X49097104Y-34809905D01*
X49097104Y-34809905D02*
X49073295Y-34833714D01*
X49073295Y-34833714D02*
X49049485Y-34881333D01*
X49049485Y-34881333D02*
X49049485Y-35000381D01*
X49049485Y-35000381D02*
X49073295Y-35048000D01*
X49073295Y-35048000D02*
X49097104Y-35071809D01*
X49097104Y-35071809D02*
X49144723Y-35095619D01*
X49144723Y-35095619D02*
X49263771Y-35095619D01*
X49263771Y-35095619D02*
X49311390Y-35071809D01*
X49311390Y-35071809D02*
X49335200Y-35048000D01*
X49335200Y-35048000D02*
X49359009Y-35000381D01*
X49359009Y-35000381D02*
X49359009Y-34881333D01*
X49359009Y-34881333D02*
X49335200Y-34833714D01*
X49335200Y-34833714D02*
X49311390Y-34809905D01*
X49359009Y-35309904D02*
X48859009Y-35309904D01*
X49168533Y-35357523D02*
X49359009Y-35500380D01*
X49025676Y-35500380D02*
X49216152Y-35309904D01*
X40433808Y-26640809D02*
X40719522Y-26640809D01*
X40576665Y-26640809D02*
X40576665Y-26140809D01*
X40576665Y-26140809D02*
X40624284Y-26212238D01*
X40624284Y-26212238D02*
X40671903Y-26259857D01*
X40671903Y-26259857D02*
X40719522Y-26283666D01*
X40124285Y-26140809D02*
X40076666Y-26140809D01*
X40076666Y-26140809D02*
X40029047Y-26164619D01*
X40029047Y-26164619D02*
X40005237Y-26188428D01*
X40005237Y-26188428D02*
X39981428Y-26236047D01*
X39981428Y-26236047D02*
X39957618Y-26331285D01*
X39957618Y-26331285D02*
X39957618Y-26450333D01*
X39957618Y-26450333D02*
X39981428Y-26545571D01*
X39981428Y-26545571D02*
X40005237Y-26593190D01*
X40005237Y-26593190D02*
X40029047Y-26617000D01*
X40029047Y-26617000D02*
X40076666Y-26640809D01*
X40076666Y-26640809D02*
X40124285Y-26640809D01*
X40124285Y-26640809D02*
X40171904Y-26617000D01*
X40171904Y-26617000D02*
X40195713Y-26593190D01*
X40195713Y-26593190D02*
X40219523Y-26545571D01*
X40219523Y-26545571D02*
X40243332Y-26450333D01*
X40243332Y-26450333D02*
X40243332Y-26331285D01*
X40243332Y-26331285D02*
X40219523Y-26236047D01*
X40219523Y-26236047D02*
X40195713Y-26188428D01*
X40195713Y-26188428D02*
X40171904Y-26164619D01*
X40171904Y-26164619D02*
X40124285Y-26140809D01*
X39648095Y-26140809D02*
X39600476Y-26140809D01*
X39600476Y-26140809D02*
X39552857Y-26164619D01*
X39552857Y-26164619D02*
X39529047Y-26188428D01*
X39529047Y-26188428D02*
X39505238Y-26236047D01*
X39505238Y-26236047D02*
X39481428Y-26331285D01*
X39481428Y-26331285D02*
X39481428Y-26450333D01*
X39481428Y-26450333D02*
X39505238Y-26545571D01*
X39505238Y-26545571D02*
X39529047Y-26593190D01*
X39529047Y-26593190D02*
X39552857Y-26617000D01*
X39552857Y-26617000D02*
X39600476Y-26640809D01*
X39600476Y-26640809D02*
X39648095Y-26640809D01*
X39648095Y-26640809D02*
X39695714Y-26617000D01*
X39695714Y-26617000D02*
X39719523Y-26593190D01*
X39719523Y-26593190D02*
X39743333Y-26545571D01*
X39743333Y-26545571D02*
X39767142Y-26450333D01*
X39767142Y-26450333D02*
X39767142Y-26331285D01*
X39767142Y-26331285D02*
X39743333Y-26236047D01*
X39743333Y-26236047D02*
X39719523Y-26188428D01*
X39719523Y-26188428D02*
X39695714Y-26164619D01*
X39695714Y-26164619D02*
X39648095Y-26140809D01*
X39267143Y-26307476D02*
X39267143Y-26640809D01*
X39267143Y-26355095D02*
X39243333Y-26331285D01*
X39243333Y-26331285D02*
X39195714Y-26307476D01*
X39195714Y-26307476D02*
X39124286Y-26307476D01*
X39124286Y-26307476D02*
X39076667Y-26331285D01*
X39076667Y-26331285D02*
X39052857Y-26378904D01*
X39052857Y-26378904D02*
X39052857Y-26640809D01*
X38648095Y-26378904D02*
X38814762Y-26378904D01*
X38814762Y-26640809D02*
X38814762Y-26140809D01*
X38814762Y-26140809D02*
X38576667Y-26140809D01*
X29735637Y-27817209D02*
X29426113Y-27817209D01*
X29426113Y-27817209D02*
X29592780Y-28007685D01*
X29592780Y-28007685D02*
X29521351Y-28007685D01*
X29521351Y-28007685D02*
X29473732Y-28031495D01*
X29473732Y-28031495D02*
X29449923Y-28055304D01*
X29449923Y-28055304D02*
X29426113Y-28102923D01*
X29426113Y-28102923D02*
X29426113Y-28221971D01*
X29426113Y-28221971D02*
X29449923Y-28269590D01*
X29449923Y-28269590D02*
X29473732Y-28293400D01*
X29473732Y-28293400D02*
X29521351Y-28317209D01*
X29521351Y-28317209D02*
X29664208Y-28317209D01*
X29664208Y-28317209D02*
X29711827Y-28293400D01*
X29711827Y-28293400D02*
X29735637Y-28269590D01*
X29259447Y-27817209D02*
X28949923Y-27817209D01*
X28949923Y-27817209D02*
X29116590Y-28007685D01*
X29116590Y-28007685D02*
X29045161Y-28007685D01*
X29045161Y-28007685D02*
X28997542Y-28031495D01*
X28997542Y-28031495D02*
X28973733Y-28055304D01*
X28973733Y-28055304D02*
X28949923Y-28102923D01*
X28949923Y-28102923D02*
X28949923Y-28221971D01*
X28949923Y-28221971D02*
X28973733Y-28269590D01*
X28973733Y-28269590D02*
X28997542Y-28293400D01*
X28997542Y-28293400D02*
X29045161Y-28317209D01*
X29045161Y-28317209D02*
X29188018Y-28317209D01*
X29188018Y-28317209D02*
X29235637Y-28293400D01*
X29235637Y-28293400D02*
X29259447Y-28269590D01*
X28735638Y-27983876D02*
X28735638Y-28483876D01*
X28735638Y-28007685D02*
X28688019Y-27983876D01*
X28688019Y-27983876D02*
X28592781Y-27983876D01*
X28592781Y-27983876D02*
X28545162Y-28007685D01*
X28545162Y-28007685D02*
X28521352Y-28031495D01*
X28521352Y-28031495D02*
X28497543Y-28079114D01*
X28497543Y-28079114D02*
X28497543Y-28221971D01*
X28497543Y-28221971D02*
X28521352Y-28269590D01*
X28521352Y-28269590D02*
X28545162Y-28293400D01*
X28545162Y-28293400D02*
X28592781Y-28317209D01*
X28592781Y-28317209D02*
X28688019Y-28317209D01*
X28688019Y-28317209D02*
X28735638Y-28293400D01*
X28116590Y-28055304D02*
X28283257Y-28055304D01*
X28283257Y-28317209D02*
X28283257Y-27817209D01*
X28283257Y-27817209D02*
X28045162Y-27817209D01*
X26482618Y-42497809D02*
X26768332Y-42497809D01*
X26625475Y-42497809D02*
X26625475Y-41997809D01*
X26625475Y-41997809D02*
X26673094Y-42069238D01*
X26673094Y-42069238D02*
X26720713Y-42116857D01*
X26720713Y-42116857D02*
X26768332Y-42140666D01*
X26173095Y-41997809D02*
X26125476Y-41997809D01*
X26125476Y-41997809D02*
X26077857Y-42021619D01*
X26077857Y-42021619D02*
X26054047Y-42045428D01*
X26054047Y-42045428D02*
X26030238Y-42093047D01*
X26030238Y-42093047D02*
X26006428Y-42188285D01*
X26006428Y-42188285D02*
X26006428Y-42307333D01*
X26006428Y-42307333D02*
X26030238Y-42402571D01*
X26030238Y-42402571D02*
X26054047Y-42450190D01*
X26054047Y-42450190D02*
X26077857Y-42474000D01*
X26077857Y-42474000D02*
X26125476Y-42497809D01*
X26125476Y-42497809D02*
X26173095Y-42497809D01*
X26173095Y-42497809D02*
X26220714Y-42474000D01*
X26220714Y-42474000D02*
X26244523Y-42450190D01*
X26244523Y-42450190D02*
X26268333Y-42402571D01*
X26268333Y-42402571D02*
X26292142Y-42307333D01*
X26292142Y-42307333D02*
X26292142Y-42188285D01*
X26292142Y-42188285D02*
X26268333Y-42093047D01*
X26268333Y-42093047D02*
X26244523Y-42045428D01*
X26244523Y-42045428D02*
X26220714Y-42021619D01*
X26220714Y-42021619D02*
X26173095Y-41997809D01*
X25792143Y-42497809D02*
X25792143Y-41997809D01*
X25744524Y-42307333D02*
X25601667Y-42497809D01*
X25601667Y-42164476D02*
X25792143Y-42354952D01*
X34677909Y-27410809D02*
X34630290Y-27410809D01*
X34630290Y-27410809D02*
X34582671Y-27434619D01*
X34582671Y-27434619D02*
X34558861Y-27458428D01*
X34558861Y-27458428D02*
X34535052Y-27506047D01*
X34535052Y-27506047D02*
X34511242Y-27601285D01*
X34511242Y-27601285D02*
X34511242Y-27720333D01*
X34511242Y-27720333D02*
X34535052Y-27815571D01*
X34535052Y-27815571D02*
X34558861Y-27863190D01*
X34558861Y-27863190D02*
X34582671Y-27887000D01*
X34582671Y-27887000D02*
X34630290Y-27910809D01*
X34630290Y-27910809D02*
X34677909Y-27910809D01*
X34677909Y-27910809D02*
X34725528Y-27887000D01*
X34725528Y-27887000D02*
X34749337Y-27863190D01*
X34749337Y-27863190D02*
X34773147Y-27815571D01*
X34773147Y-27815571D02*
X34796956Y-27720333D01*
X34796956Y-27720333D02*
X34796956Y-27601285D01*
X34796956Y-27601285D02*
X34773147Y-27506047D01*
X34773147Y-27506047D02*
X34749337Y-27458428D01*
X34749337Y-27458428D02*
X34725528Y-27434619D01*
X34725528Y-27434619D02*
X34677909Y-27410809D01*
X34011243Y-27910809D02*
X34177909Y-27672714D01*
X34296957Y-27910809D02*
X34296957Y-27410809D01*
X34296957Y-27410809D02*
X34106481Y-27410809D01*
X34106481Y-27410809D02*
X34058862Y-27434619D01*
X34058862Y-27434619D02*
X34035052Y-27458428D01*
X34035052Y-27458428D02*
X34011243Y-27506047D01*
X34011243Y-27506047D02*
X34011243Y-27577476D01*
X34011243Y-27577476D02*
X34035052Y-27625095D01*
X34035052Y-27625095D02*
X34058862Y-27648904D01*
X34058862Y-27648904D02*
X34106481Y-27672714D01*
X34106481Y-27672714D02*
X34296957Y-27672714D01*
X50019409Y-28213181D02*
X49519409Y-28213181D01*
X49519409Y-28213181D02*
X49519409Y-28403657D01*
X49519409Y-28403657D02*
X49543219Y-28451276D01*
X49543219Y-28451276D02*
X49567028Y-28475086D01*
X49567028Y-28475086D02*
X49614647Y-28498895D01*
X49614647Y-28498895D02*
X49686076Y-28498895D01*
X49686076Y-28498895D02*
X49733695Y-28475086D01*
X49733695Y-28475086D02*
X49757504Y-28451276D01*
X49757504Y-28451276D02*
X49781314Y-28403657D01*
X49781314Y-28403657D02*
X49781314Y-28213181D01*
X49757504Y-28879848D02*
X49781314Y-28951276D01*
X49781314Y-28951276D02*
X49805123Y-28975086D01*
X49805123Y-28975086D02*
X49852742Y-28998895D01*
X49852742Y-28998895D02*
X49924171Y-28998895D01*
X49924171Y-28998895D02*
X49971790Y-28975086D01*
X49971790Y-28975086D02*
X49995600Y-28951276D01*
X49995600Y-28951276D02*
X50019409Y-28903657D01*
X50019409Y-28903657D02*
X50019409Y-28713181D01*
X50019409Y-28713181D02*
X49519409Y-28713181D01*
X49519409Y-28713181D02*
X49519409Y-28879848D01*
X49519409Y-28879848D02*
X49543219Y-28927467D01*
X49543219Y-28927467D02*
X49567028Y-28951276D01*
X49567028Y-28951276D02*
X49614647Y-28975086D01*
X49614647Y-28975086D02*
X49662266Y-28975086D01*
X49662266Y-28975086D02*
X49709885Y-28951276D01*
X49709885Y-28951276D02*
X49733695Y-28927467D01*
X49733695Y-28927467D02*
X49757504Y-28879848D01*
X49757504Y-28879848D02*
X49757504Y-28713181D01*
X50067028Y-29094134D02*
X50067028Y-29475086D01*
X50019409Y-29856038D02*
X50019409Y-29570324D01*
X50019409Y-29713181D02*
X49519409Y-29713181D01*
X49519409Y-29713181D02*
X49590838Y-29665562D01*
X49590838Y-29665562D02*
X49638457Y-29617943D01*
X49638457Y-29617943D02*
X49662266Y-29570324D01*
X49519409Y-30022704D02*
X49519409Y-30332228D01*
X49519409Y-30332228D02*
X49709885Y-30165561D01*
X49709885Y-30165561D02*
X49709885Y-30236990D01*
X49709885Y-30236990D02*
X49733695Y-30284609D01*
X49733695Y-30284609D02*
X49757504Y-30308418D01*
X49757504Y-30308418D02*
X49805123Y-30332228D01*
X49805123Y-30332228D02*
X49924171Y-30332228D01*
X49924171Y-30332228D02*
X49971790Y-30308418D01*
X49971790Y-30308418D02*
X49995600Y-30284609D01*
X49995600Y-30284609D02*
X50019409Y-30236990D01*
X50019409Y-30236990D02*
X50019409Y-30094133D01*
X50019409Y-30094133D02*
X49995600Y-30046514D01*
X49995600Y-30046514D02*
X49971790Y-30022704D01*
D10*
%TO.C,C7*%
X37973600Y-38653300D02*
X36723600Y-38653300D01*
X36723600Y-38653300D02*
X36723600Y-40653300D01*
X37973600Y-40653300D02*
X37973600Y-38653300D01*
X36723600Y-40653300D02*
X37973600Y-40653300D01*
%TO.C,Y1*%
X31188600Y-40040800D02*
X31188600Y-28640800D01*
X35888600Y-40040800D02*
X31188600Y-40040800D01*
X31423600Y-37355800D02*
X31423600Y-31325800D01*
X35653600Y-37355800D02*
X35653600Y-31325800D01*
X31188600Y-28640800D02*
X35888600Y-28640800D01*
X35888600Y-28640800D02*
X35888600Y-40040800D01*
X31423600Y-37355800D02*
G75*
G03*
X35653600Y-37355800I2115000J0D01*
G01*
X35653600Y-31325800D02*
G75*
G03*
X31423600Y-31325800I-2115000J0D01*
G01*
%TO.C,R9*%
X28166600Y-31134300D02*
X28166600Y-31959300D01*
X28166600Y-31959300D02*
X29766600Y-31959300D01*
X29766600Y-31134300D02*
X28166600Y-31134300D01*
X29766600Y-31959300D02*
X29766600Y-31134300D01*
%TO.C,R1*%
X46905100Y-23888800D02*
X46080100Y-23888800D01*
X46080100Y-23888800D02*
X46080100Y-25488800D01*
X46905100Y-25488800D02*
X46905100Y-23888800D01*
X46080100Y-25488800D02*
X46905100Y-25488800D01*
%TO.C,C8*%
X43863600Y-25883300D02*
X45113600Y-25883300D01*
X45113600Y-25883300D02*
X45113600Y-23883300D01*
X43863600Y-23883300D02*
X43863600Y-25883300D01*
X45113600Y-23883300D02*
X43863600Y-23883300D01*
%TO.C,J3*%
X56100600Y-31212800D02*
X50550600Y-31212800D01*
X56100600Y-31212800D02*
X56100600Y-38612800D01*
X50550600Y-31212800D02*
X50550600Y-38612800D01*
X54800600Y-31912800D02*
X54800600Y-37912800D01*
X49990600Y-33412800D02*
X50200600Y-33412800D01*
X49990600Y-33412800D02*
X49990600Y-33812800D01*
X50400600Y-33612800D02*
X50200600Y-33412800D01*
X50200600Y-33812800D02*
X50400600Y-33612800D01*
X49990600Y-33812800D02*
X50200600Y-33812800D01*
X56100600Y-38612800D02*
X50550600Y-38612800D01*
%TO.C,C6*%
X46244100Y-21545800D02*
X46244100Y-20295800D01*
X46244100Y-20295800D02*
X44244100Y-20295800D01*
X44244100Y-21545800D02*
X46244100Y-21545800D01*
X44244100Y-20295800D02*
X44244100Y-21545800D01*
%TO.C,R2*%
X23474100Y-28132300D02*
X24299100Y-28132300D01*
X24299100Y-28132300D02*
X24299100Y-26532300D01*
X23474100Y-26532300D02*
X23474100Y-28132300D01*
X24299100Y-26532300D02*
X23474100Y-26532300D01*
%TO.C,R4*%
X24582600Y-44612500D02*
X24582600Y-43787500D01*
X24582600Y-43787500D02*
X22982600Y-43787500D01*
X22982600Y-44612500D02*
X24582600Y-44612500D01*
X22982600Y-43787500D02*
X22982600Y-44612500D01*
%TO.C,U3*%
X37912600Y-28808800D02*
X37912600Y-34808800D01*
X37912600Y-34808800D02*
X38912600Y-35808800D01*
X38912600Y-35808800D02*
X44912600Y-35808800D01*
X44912600Y-28808800D02*
X37912600Y-28808800D01*
X44912600Y-35808800D02*
X44912600Y-28808800D01*
%TO.C,C9*%
X46863600Y-36388800D02*
X45613600Y-36388800D01*
X45613600Y-36388800D02*
X45613600Y-38388800D01*
X46863600Y-38388800D02*
X46863600Y-36388800D01*
X45613600Y-38388800D02*
X46863600Y-38388800D01*
%TO.C,C10*%
X40005600Y-38674800D02*
X38755600Y-38674800D01*
X38755600Y-38674800D02*
X38755600Y-40674800D01*
X40005600Y-40674800D02*
X40005600Y-38674800D01*
X38755600Y-40674800D02*
X40005600Y-40674800D01*
%TO.C,FB1*%
X37456600Y-25742800D02*
X38256600Y-25742800D01*
X38256600Y-25742800D02*
X38256600Y-24142800D01*
X37456600Y-24142800D02*
X37456600Y-25742800D01*
X38256600Y-24142800D02*
X37456600Y-24142800D01*
%TO.C,C5*%
X36062600Y-24805800D02*
X36062600Y-23555800D01*
X36062600Y-23555800D02*
X34062600Y-23555800D01*
X34062600Y-24805800D02*
X36062600Y-24805800D01*
X34062600Y-23555800D02*
X34062600Y-24805800D01*
%TO.C,J6*%
X44968600Y-28366800D02*
X47508600Y-28366800D01*
X47508600Y-28366800D02*
X47508600Y-27106800D01*
X44968600Y-27106800D02*
X44968600Y-28366800D01*
X47508600Y-27106800D02*
X44968600Y-27106800D01*
%TO.C,C11*%
X29945100Y-39283800D02*
X29945100Y-38033800D01*
X29945100Y-38033800D02*
X27945100Y-38033800D01*
X27945100Y-39283800D02*
X29945100Y-39283800D01*
X27945100Y-38033800D02*
X27945100Y-39283800D01*
%TO.C,R8*%
X28166600Y-33166300D02*
X28166600Y-33991300D01*
X28166600Y-33991300D02*
X29766600Y-33991300D01*
X29766600Y-33166300D02*
X28166600Y-33166300D01*
X29766600Y-33991300D02*
X29766600Y-33166300D01*
%TO.C,C4*%
X41295600Y-25921300D02*
X42545600Y-25921300D01*
X42545600Y-25921300D02*
X42545600Y-23921300D01*
X41295600Y-23921300D02*
X41295600Y-25921300D01*
X42545600Y-23921300D02*
X41295600Y-23921300D01*
%TO.C,R7*%
X48429100Y-34021500D02*
X47604100Y-34021500D01*
X47604100Y-34021500D02*
X47604100Y-35621500D01*
X48429100Y-35621500D02*
X48429100Y-34021500D01*
X47604100Y-35621500D02*
X48429100Y-35621500D01*
%TO.C,C3*%
X39009600Y-25921300D02*
X40259600Y-25921300D01*
X40259600Y-25921300D02*
X40259600Y-23921300D01*
X39009600Y-23921300D02*
X39009600Y-25921300D01*
X40259600Y-23921300D02*
X39009600Y-23921300D01*
%TO.C,C12*%
X29945100Y-30139800D02*
X29945100Y-28889800D01*
X29945100Y-28889800D02*
X27945100Y-28889800D01*
X27945100Y-30139800D02*
X29945100Y-30139800D01*
X27945100Y-28889800D02*
X27945100Y-30139800D01*
%TO.C,R3*%
X24600000Y-42812500D02*
X24600000Y-41987500D01*
X24600000Y-41987500D02*
X23000000Y-41987500D01*
X23000000Y-42812500D02*
X24600000Y-42812500D01*
X23000000Y-41987500D02*
X23000000Y-42812500D01*
%TO.C,R6*%
X33604100Y-26308300D02*
X33604100Y-27133300D01*
X33604100Y-27133300D02*
X35204100Y-27133300D01*
X35204100Y-26308300D02*
X33604100Y-26308300D01*
X35204100Y-27133300D02*
X35204100Y-26308300D01*
%TO.C,J7*%
X49286600Y-28630800D02*
X46746600Y-28630800D01*
X46746600Y-28630800D02*
X46746600Y-29890800D01*
X49286600Y-29890800D02*
X49286600Y-28630800D01*
X46746600Y-29890800D02*
X49286600Y-29890800D01*
%TD*%
M02*
