%TF.GenerationSoftware,KiCad,Pcbnew,7.0.7*%
%TF.CreationDate,2023-09-17T23:44:38+05:30*%
%TF.ProjectId,Tachometer,54616368-6f6d-4657-9465-722e6b696361,v1*%
%TF.SameCoordinates,Original*%
%TF.FileFunction,Soldermask,Top*%
%TF.FilePolarity,Negative*%
%FSLAX46Y46*%
G04 Gerber Fmt 4.6, Leading zero omitted, Abs format (unit mm)*
G04 Created by KiCad (PCBNEW 7.0.7) date 2023-09-17 23:44:38*
%MOMM*%
%LPD*%
G01*
G04 APERTURE LIST*
G04 Aperture macros list*
%AMRoundRect*
0 Rectangle with rounded corners*
0 $1 Rounding radius*
0 $2 $3 $4 $5 $6 $7 $8 $9 X,Y pos of 4 corners*
0 Add a 4 corners polygon primitive as box body*
4,1,4,$2,$3,$4,$5,$6,$7,$8,$9,$2,$3,0*
0 Add four circle primitives for the rounded corners*
1,1,$1+$1,$2,$3*
1,1,$1+$1,$4,$5*
1,1,$1+$1,$6,$7*
1,1,$1+$1,$8,$9*
0 Add four rect primitives between the rounded corners*
20,1,$1+$1,$2,$3,$4,$5,0*
20,1,$1+$1,$4,$5,$6,$7,0*
20,1,$1+$1,$6,$7,$8,$9,0*
20,1,$1+$1,$8,$9,$2,$3,0*%
G04 Aperture macros list end*
%ADD10C,0.100000*%
%ADD11C,0.150000*%
%ADD12C,0.300000*%
%ADD13C,0.400000*%
%ADD14R,1.700000X1.700000*%
%ADD15O,1.700000X1.700000*%
%ADD16RoundRect,0.102000X0.550000X0.500000X-0.550000X0.500000X-0.550000X-0.500000X0.550000X-0.500000X0*%
%ADD17RoundRect,0.250000X0.475000X-0.337500X0.475000X0.337500X-0.475000X0.337500X-0.475000X-0.337500X0*%
%ADD18RoundRect,0.250000X0.750000X-0.250000X0.750000X0.250000X-0.750000X0.250000X-0.750000X-0.250000X0*%
%ADD19RoundRect,0.250000X-0.337500X-0.475000X0.337500X-0.475000X0.337500X0.475000X-0.337500X0.475000X0*%
%ADD20RoundRect,0.250000X-0.475000X0.337500X-0.475000X-0.337500X0.475000X-0.337500X0.475000X0.337500X0*%
%ADD21C,1.440000*%
%ADD22RoundRect,0.237500X-0.237500X0.250000X-0.237500X-0.250000X0.237500X-0.250000X0.237500X0.250000X0*%
%ADD23R,2.000000X2.000000*%
%ADD24C,2.000000*%
%ADD25R,1.000000X0.800000*%
%ADD26C,0.900000*%
%ADD27R,0.700000X1.500000*%
%ADD28R,1.500000X2.000000*%
%ADD29R,3.800000X2.000000*%
%ADD30C,1.400000*%
%ADD31O,1.400000X1.400000*%
%ADD32RoundRect,0.102000X-0.550000X-0.500000X0.550000X-0.500000X0.550000X0.500000X-0.550000X0.500000X0*%
%ADD33RoundRect,0.237500X-0.250000X-0.237500X0.250000X-0.237500X0.250000X0.237500X-0.250000X0.237500X0*%
%ADD34RoundRect,0.237500X-0.237500X0.287500X-0.237500X-0.287500X0.237500X-0.287500X0.237500X0.287500X0*%
%ADD35RoundRect,0.237500X0.237500X-0.250000X0.237500X0.250000X-0.237500X0.250000X-0.237500X-0.250000X0*%
%ADD36O,1.900000X1.050000*%
G04 APERTURE END LIST*
D10*
D11*
X177002200Y-166007200D02*
X285002200Y-166007200D01*
X285002200Y-198007200D01*
X177002200Y-198007200D01*
X177002200Y-166007200D01*
D10*
D11*
X10000000Y-10000000D02*
X287002200Y-10000000D01*
X287002200Y-200007200D01*
X10000000Y-200007200D01*
X10000000Y-10000000D01*
D10*
D11*
X12000000Y-12000000D02*
X285002200Y-12000000D01*
X285002200Y-198007200D01*
X12000000Y-198007200D01*
X12000000Y-12000000D01*
D10*
D11*
X60000000Y-12000000D02*
X60000000Y-10000000D01*
D10*
D11*
X110000000Y-12000000D02*
X110000000Y-10000000D01*
D10*
D11*
X160000000Y-12000000D02*
X160000000Y-10000000D01*
D10*
D11*
X210000000Y-12000000D02*
X210000000Y-10000000D01*
D10*
D11*
X260000000Y-12000000D02*
X260000000Y-10000000D01*
D10*
D11*
X36089160Y-11593604D02*
X35346303Y-11593604D01*
X35717731Y-11593604D02*
X35717731Y-10293604D01*
X35717731Y-10293604D02*
X35593922Y-10479319D01*
X35593922Y-10479319D02*
X35470112Y-10603128D01*
X35470112Y-10603128D02*
X35346303Y-10665033D01*
D10*
D11*
X85346303Y-10417414D02*
X85408207Y-10355509D01*
X85408207Y-10355509D02*
X85532017Y-10293604D01*
X85532017Y-10293604D02*
X85841541Y-10293604D01*
X85841541Y-10293604D02*
X85965350Y-10355509D01*
X85965350Y-10355509D02*
X86027255Y-10417414D01*
X86027255Y-10417414D02*
X86089160Y-10541223D01*
X86089160Y-10541223D02*
X86089160Y-10665033D01*
X86089160Y-10665033D02*
X86027255Y-10850747D01*
X86027255Y-10850747D02*
X85284398Y-11593604D01*
X85284398Y-11593604D02*
X86089160Y-11593604D01*
D10*
D11*
X135284398Y-10293604D02*
X136089160Y-10293604D01*
X136089160Y-10293604D02*
X135655826Y-10788842D01*
X135655826Y-10788842D02*
X135841541Y-10788842D01*
X135841541Y-10788842D02*
X135965350Y-10850747D01*
X135965350Y-10850747D02*
X136027255Y-10912652D01*
X136027255Y-10912652D02*
X136089160Y-11036461D01*
X136089160Y-11036461D02*
X136089160Y-11345985D01*
X136089160Y-11345985D02*
X136027255Y-11469795D01*
X136027255Y-11469795D02*
X135965350Y-11531700D01*
X135965350Y-11531700D02*
X135841541Y-11593604D01*
X135841541Y-11593604D02*
X135470112Y-11593604D01*
X135470112Y-11593604D02*
X135346303Y-11531700D01*
X135346303Y-11531700D02*
X135284398Y-11469795D01*
D10*
D11*
X185965350Y-10726938D02*
X185965350Y-11593604D01*
X185655826Y-10231700D02*
X185346303Y-11160271D01*
X185346303Y-11160271D02*
X186151064Y-11160271D01*
D10*
D11*
X236027255Y-10293604D02*
X235408207Y-10293604D01*
X235408207Y-10293604D02*
X235346303Y-10912652D01*
X235346303Y-10912652D02*
X235408207Y-10850747D01*
X235408207Y-10850747D02*
X235532017Y-10788842D01*
X235532017Y-10788842D02*
X235841541Y-10788842D01*
X235841541Y-10788842D02*
X235965350Y-10850747D01*
X235965350Y-10850747D02*
X236027255Y-10912652D01*
X236027255Y-10912652D02*
X236089160Y-11036461D01*
X236089160Y-11036461D02*
X236089160Y-11345985D01*
X236089160Y-11345985D02*
X236027255Y-11469795D01*
X236027255Y-11469795D02*
X235965350Y-11531700D01*
X235965350Y-11531700D02*
X235841541Y-11593604D01*
X235841541Y-11593604D02*
X235532017Y-11593604D01*
X235532017Y-11593604D02*
X235408207Y-11531700D01*
X235408207Y-11531700D02*
X235346303Y-11469795D01*
D10*
D11*
X285965350Y-10293604D02*
X285717731Y-10293604D01*
X285717731Y-10293604D02*
X285593922Y-10355509D01*
X285593922Y-10355509D02*
X285532017Y-10417414D01*
X285532017Y-10417414D02*
X285408207Y-10603128D01*
X285408207Y-10603128D02*
X285346303Y-10850747D01*
X285346303Y-10850747D02*
X285346303Y-11345985D01*
X285346303Y-11345985D02*
X285408207Y-11469795D01*
X285408207Y-11469795D02*
X285470112Y-11531700D01*
X285470112Y-11531700D02*
X285593922Y-11593604D01*
X285593922Y-11593604D02*
X285841541Y-11593604D01*
X285841541Y-11593604D02*
X285965350Y-11531700D01*
X285965350Y-11531700D02*
X286027255Y-11469795D01*
X286027255Y-11469795D02*
X286089160Y-11345985D01*
X286089160Y-11345985D02*
X286089160Y-11036461D01*
X286089160Y-11036461D02*
X286027255Y-10912652D01*
X286027255Y-10912652D02*
X285965350Y-10850747D01*
X285965350Y-10850747D02*
X285841541Y-10788842D01*
X285841541Y-10788842D02*
X285593922Y-10788842D01*
X285593922Y-10788842D02*
X285470112Y-10850747D01*
X285470112Y-10850747D02*
X285408207Y-10912652D01*
X285408207Y-10912652D02*
X285346303Y-11036461D01*
D10*
D11*
X60000000Y-198007200D02*
X60000000Y-200007200D01*
D10*
D11*
X110000000Y-198007200D02*
X110000000Y-200007200D01*
D10*
D11*
X160000000Y-198007200D02*
X160000000Y-200007200D01*
D10*
D11*
X210000000Y-198007200D02*
X210000000Y-200007200D01*
D10*
D11*
X260000000Y-198007200D02*
X260000000Y-200007200D01*
D10*
D11*
X36089160Y-199600804D02*
X35346303Y-199600804D01*
X35717731Y-199600804D02*
X35717731Y-198300804D01*
X35717731Y-198300804D02*
X35593922Y-198486519D01*
X35593922Y-198486519D02*
X35470112Y-198610328D01*
X35470112Y-198610328D02*
X35346303Y-198672233D01*
D10*
D11*
X85346303Y-198424614D02*
X85408207Y-198362709D01*
X85408207Y-198362709D02*
X85532017Y-198300804D01*
X85532017Y-198300804D02*
X85841541Y-198300804D01*
X85841541Y-198300804D02*
X85965350Y-198362709D01*
X85965350Y-198362709D02*
X86027255Y-198424614D01*
X86027255Y-198424614D02*
X86089160Y-198548423D01*
X86089160Y-198548423D02*
X86089160Y-198672233D01*
X86089160Y-198672233D02*
X86027255Y-198857947D01*
X86027255Y-198857947D02*
X85284398Y-199600804D01*
X85284398Y-199600804D02*
X86089160Y-199600804D01*
D10*
D11*
X135284398Y-198300804D02*
X136089160Y-198300804D01*
X136089160Y-198300804D02*
X135655826Y-198796042D01*
X135655826Y-198796042D02*
X135841541Y-198796042D01*
X135841541Y-198796042D02*
X135965350Y-198857947D01*
X135965350Y-198857947D02*
X136027255Y-198919852D01*
X136027255Y-198919852D02*
X136089160Y-199043661D01*
X136089160Y-199043661D02*
X136089160Y-199353185D01*
X136089160Y-199353185D02*
X136027255Y-199476995D01*
X136027255Y-199476995D02*
X135965350Y-199538900D01*
X135965350Y-199538900D02*
X135841541Y-199600804D01*
X135841541Y-199600804D02*
X135470112Y-199600804D01*
X135470112Y-199600804D02*
X135346303Y-199538900D01*
X135346303Y-199538900D02*
X135284398Y-199476995D01*
D10*
D11*
X185965350Y-198734138D02*
X185965350Y-199600804D01*
X185655826Y-198238900D02*
X185346303Y-199167471D01*
X185346303Y-199167471D02*
X186151064Y-199167471D01*
D10*
D11*
X236027255Y-198300804D02*
X235408207Y-198300804D01*
X235408207Y-198300804D02*
X235346303Y-198919852D01*
X235346303Y-198919852D02*
X235408207Y-198857947D01*
X235408207Y-198857947D02*
X235532017Y-198796042D01*
X235532017Y-198796042D02*
X235841541Y-198796042D01*
X235841541Y-198796042D02*
X235965350Y-198857947D01*
X235965350Y-198857947D02*
X236027255Y-198919852D01*
X236027255Y-198919852D02*
X236089160Y-199043661D01*
X236089160Y-199043661D02*
X236089160Y-199353185D01*
X236089160Y-199353185D02*
X236027255Y-199476995D01*
X236027255Y-199476995D02*
X235965350Y-199538900D01*
X235965350Y-199538900D02*
X235841541Y-199600804D01*
X235841541Y-199600804D02*
X235532017Y-199600804D01*
X235532017Y-199600804D02*
X235408207Y-199538900D01*
X235408207Y-199538900D02*
X235346303Y-199476995D01*
D10*
D11*
X285965350Y-198300804D02*
X285717731Y-198300804D01*
X285717731Y-198300804D02*
X285593922Y-198362709D01*
X285593922Y-198362709D02*
X285532017Y-198424614D01*
X285532017Y-198424614D02*
X285408207Y-198610328D01*
X285408207Y-198610328D02*
X285346303Y-198857947D01*
X285346303Y-198857947D02*
X285346303Y-199353185D01*
X285346303Y-199353185D02*
X285408207Y-199476995D01*
X285408207Y-199476995D02*
X285470112Y-199538900D01*
X285470112Y-199538900D02*
X285593922Y-199600804D01*
X285593922Y-199600804D02*
X285841541Y-199600804D01*
X285841541Y-199600804D02*
X285965350Y-199538900D01*
X285965350Y-199538900D02*
X286027255Y-199476995D01*
X286027255Y-199476995D02*
X286089160Y-199353185D01*
X286089160Y-199353185D02*
X286089160Y-199043661D01*
X286089160Y-199043661D02*
X286027255Y-198919852D01*
X286027255Y-198919852D02*
X285965350Y-198857947D01*
X285965350Y-198857947D02*
X285841541Y-198796042D01*
X285841541Y-198796042D02*
X285593922Y-198796042D01*
X285593922Y-198796042D02*
X285470112Y-198857947D01*
X285470112Y-198857947D02*
X285408207Y-198919852D01*
X285408207Y-198919852D02*
X285346303Y-199043661D01*
D10*
D11*
X10000000Y-60000000D02*
X12000000Y-60000000D01*
D10*
D11*
X10000000Y-110000000D02*
X12000000Y-110000000D01*
D10*
D11*
X10000000Y-160000000D02*
X12000000Y-160000000D01*
D10*
D11*
X10690476Y-35222176D02*
X11309523Y-35222176D01*
X10566666Y-35593604D02*
X10999999Y-34293604D01*
X10999999Y-34293604D02*
X11433333Y-35593604D01*
D10*
D11*
X11092857Y-84912652D02*
X11278571Y-84974557D01*
X11278571Y-84974557D02*
X11340476Y-85036461D01*
X11340476Y-85036461D02*
X11402380Y-85160271D01*
X11402380Y-85160271D02*
X11402380Y-85345985D01*
X11402380Y-85345985D02*
X11340476Y-85469795D01*
X11340476Y-85469795D02*
X11278571Y-85531700D01*
X11278571Y-85531700D02*
X11154761Y-85593604D01*
X11154761Y-85593604D02*
X10659523Y-85593604D01*
X10659523Y-85593604D02*
X10659523Y-84293604D01*
X10659523Y-84293604D02*
X11092857Y-84293604D01*
X11092857Y-84293604D02*
X11216666Y-84355509D01*
X11216666Y-84355509D02*
X11278571Y-84417414D01*
X11278571Y-84417414D02*
X11340476Y-84541223D01*
X11340476Y-84541223D02*
X11340476Y-84665033D01*
X11340476Y-84665033D02*
X11278571Y-84788842D01*
X11278571Y-84788842D02*
X11216666Y-84850747D01*
X11216666Y-84850747D02*
X11092857Y-84912652D01*
X11092857Y-84912652D02*
X10659523Y-84912652D01*
D10*
D11*
X11402380Y-135469795D02*
X11340476Y-135531700D01*
X11340476Y-135531700D02*
X11154761Y-135593604D01*
X11154761Y-135593604D02*
X11030952Y-135593604D01*
X11030952Y-135593604D02*
X10845238Y-135531700D01*
X10845238Y-135531700D02*
X10721428Y-135407890D01*
X10721428Y-135407890D02*
X10659523Y-135284080D01*
X10659523Y-135284080D02*
X10597619Y-135036461D01*
X10597619Y-135036461D02*
X10597619Y-134850747D01*
X10597619Y-134850747D02*
X10659523Y-134603128D01*
X10659523Y-134603128D02*
X10721428Y-134479319D01*
X10721428Y-134479319D02*
X10845238Y-134355509D01*
X10845238Y-134355509D02*
X11030952Y-134293604D01*
X11030952Y-134293604D02*
X11154761Y-134293604D01*
X11154761Y-134293604D02*
X11340476Y-134355509D01*
X11340476Y-134355509D02*
X11402380Y-134417414D01*
D10*
D11*
X10659523Y-185593604D02*
X10659523Y-184293604D01*
X10659523Y-184293604D02*
X10969047Y-184293604D01*
X10969047Y-184293604D02*
X11154761Y-184355509D01*
X11154761Y-184355509D02*
X11278571Y-184479319D01*
X11278571Y-184479319D02*
X11340476Y-184603128D01*
X11340476Y-184603128D02*
X11402380Y-184850747D01*
X11402380Y-184850747D02*
X11402380Y-185036461D01*
X11402380Y-185036461D02*
X11340476Y-185284080D01*
X11340476Y-185284080D02*
X11278571Y-185407890D01*
X11278571Y-185407890D02*
X11154761Y-185531700D01*
X11154761Y-185531700D02*
X10969047Y-185593604D01*
X10969047Y-185593604D02*
X10659523Y-185593604D01*
D10*
D11*
X287002200Y-60000000D02*
X285002200Y-60000000D01*
D10*
D11*
X287002200Y-110000000D02*
X285002200Y-110000000D01*
D10*
D11*
X287002200Y-160000000D02*
X285002200Y-160000000D01*
D10*
D11*
X285692676Y-35222176D02*
X286311723Y-35222176D01*
X285568866Y-35593604D02*
X286002199Y-34293604D01*
X286002199Y-34293604D02*
X286435533Y-35593604D01*
D10*
D11*
X286095057Y-84912652D02*
X286280771Y-84974557D01*
X286280771Y-84974557D02*
X286342676Y-85036461D01*
X286342676Y-85036461D02*
X286404580Y-85160271D01*
X286404580Y-85160271D02*
X286404580Y-85345985D01*
X286404580Y-85345985D02*
X286342676Y-85469795D01*
X286342676Y-85469795D02*
X286280771Y-85531700D01*
X286280771Y-85531700D02*
X286156961Y-85593604D01*
X286156961Y-85593604D02*
X285661723Y-85593604D01*
X285661723Y-85593604D02*
X285661723Y-84293604D01*
X285661723Y-84293604D02*
X286095057Y-84293604D01*
X286095057Y-84293604D02*
X286218866Y-84355509D01*
X286218866Y-84355509D02*
X286280771Y-84417414D01*
X286280771Y-84417414D02*
X286342676Y-84541223D01*
X286342676Y-84541223D02*
X286342676Y-84665033D01*
X286342676Y-84665033D02*
X286280771Y-84788842D01*
X286280771Y-84788842D02*
X286218866Y-84850747D01*
X286218866Y-84850747D02*
X286095057Y-84912652D01*
X286095057Y-84912652D02*
X285661723Y-84912652D01*
D10*
D11*
X286404580Y-135469795D02*
X286342676Y-135531700D01*
X286342676Y-135531700D02*
X286156961Y-135593604D01*
X286156961Y-135593604D02*
X286033152Y-135593604D01*
X286033152Y-135593604D02*
X285847438Y-135531700D01*
X285847438Y-135531700D02*
X285723628Y-135407890D01*
X285723628Y-135407890D02*
X285661723Y-135284080D01*
X285661723Y-135284080D02*
X285599819Y-135036461D01*
X285599819Y-135036461D02*
X285599819Y-134850747D01*
X285599819Y-134850747D02*
X285661723Y-134603128D01*
X285661723Y-134603128D02*
X285723628Y-134479319D01*
X285723628Y-134479319D02*
X285847438Y-134355509D01*
X285847438Y-134355509D02*
X286033152Y-134293604D01*
X286033152Y-134293604D02*
X286156961Y-134293604D01*
X286156961Y-134293604D02*
X286342676Y-134355509D01*
X286342676Y-134355509D02*
X286404580Y-134417414D01*
D10*
D11*
X285661723Y-185593604D02*
X285661723Y-184293604D01*
X285661723Y-184293604D02*
X285971247Y-184293604D01*
X285971247Y-184293604D02*
X286156961Y-184355509D01*
X286156961Y-184355509D02*
X286280771Y-184479319D01*
X286280771Y-184479319D02*
X286342676Y-184603128D01*
X286342676Y-184603128D02*
X286404580Y-184850747D01*
X286404580Y-184850747D02*
X286404580Y-185036461D01*
X286404580Y-185036461D02*
X286342676Y-185284080D01*
X286342676Y-185284080D02*
X286280771Y-185407890D01*
X286280771Y-185407890D02*
X286156961Y-185531700D01*
X286156961Y-185531700D02*
X285971247Y-185593604D01*
X285971247Y-185593604D02*
X285661723Y-185593604D01*
D10*
D11*
X200458026Y-193793328D02*
X200458026Y-192293328D01*
X200458026Y-192293328D02*
X200815169Y-192293328D01*
X200815169Y-192293328D02*
X201029455Y-192364757D01*
X201029455Y-192364757D02*
X201172312Y-192507614D01*
X201172312Y-192507614D02*
X201243741Y-192650471D01*
X201243741Y-192650471D02*
X201315169Y-192936185D01*
X201315169Y-192936185D02*
X201315169Y-193150471D01*
X201315169Y-193150471D02*
X201243741Y-193436185D01*
X201243741Y-193436185D02*
X201172312Y-193579042D01*
X201172312Y-193579042D02*
X201029455Y-193721900D01*
X201029455Y-193721900D02*
X200815169Y-193793328D01*
X200815169Y-193793328D02*
X200458026Y-193793328D01*
X202600884Y-193793328D02*
X202600884Y-193007614D01*
X202600884Y-193007614D02*
X202529455Y-192864757D01*
X202529455Y-192864757D02*
X202386598Y-192793328D01*
X202386598Y-192793328D02*
X202100884Y-192793328D01*
X202100884Y-192793328D02*
X201958026Y-192864757D01*
X202600884Y-193721900D02*
X202458026Y-193793328D01*
X202458026Y-193793328D02*
X202100884Y-193793328D01*
X202100884Y-193793328D02*
X201958026Y-193721900D01*
X201958026Y-193721900D02*
X201886598Y-193579042D01*
X201886598Y-193579042D02*
X201886598Y-193436185D01*
X201886598Y-193436185D02*
X201958026Y-193293328D01*
X201958026Y-193293328D02*
X202100884Y-193221900D01*
X202100884Y-193221900D02*
X202458026Y-193221900D01*
X202458026Y-193221900D02*
X202600884Y-193150471D01*
X203100884Y-192793328D02*
X203672312Y-192793328D01*
X203315169Y-192293328D02*
X203315169Y-193579042D01*
X203315169Y-193579042D02*
X203386598Y-193721900D01*
X203386598Y-193721900D02*
X203529455Y-193793328D01*
X203529455Y-193793328D02*
X203672312Y-193793328D01*
X204743741Y-193721900D02*
X204600884Y-193793328D01*
X204600884Y-193793328D02*
X204315170Y-193793328D01*
X204315170Y-193793328D02*
X204172312Y-193721900D01*
X204172312Y-193721900D02*
X204100884Y-193579042D01*
X204100884Y-193579042D02*
X204100884Y-193007614D01*
X204100884Y-193007614D02*
X204172312Y-192864757D01*
X204172312Y-192864757D02*
X204315170Y-192793328D01*
X204315170Y-192793328D02*
X204600884Y-192793328D01*
X204600884Y-192793328D02*
X204743741Y-192864757D01*
X204743741Y-192864757D02*
X204815170Y-193007614D01*
X204815170Y-193007614D02*
X204815170Y-193150471D01*
X204815170Y-193150471D02*
X204100884Y-193293328D01*
X205458026Y-193650471D02*
X205529455Y-193721900D01*
X205529455Y-193721900D02*
X205458026Y-193793328D01*
X205458026Y-193793328D02*
X205386598Y-193721900D01*
X205386598Y-193721900D02*
X205458026Y-193650471D01*
X205458026Y-193650471D02*
X205458026Y-193793328D01*
X205458026Y-192864757D02*
X205529455Y-192936185D01*
X205529455Y-192936185D02*
X205458026Y-193007614D01*
X205458026Y-193007614D02*
X205386598Y-192936185D01*
X205386598Y-192936185D02*
X205458026Y-192864757D01*
X205458026Y-192864757D02*
X205458026Y-193007614D01*
X207243741Y-192436185D02*
X207315169Y-192364757D01*
X207315169Y-192364757D02*
X207458027Y-192293328D01*
X207458027Y-192293328D02*
X207815169Y-192293328D01*
X207815169Y-192293328D02*
X207958027Y-192364757D01*
X207958027Y-192364757D02*
X208029455Y-192436185D01*
X208029455Y-192436185D02*
X208100884Y-192579042D01*
X208100884Y-192579042D02*
X208100884Y-192721900D01*
X208100884Y-192721900D02*
X208029455Y-192936185D01*
X208029455Y-192936185D02*
X207172312Y-193793328D01*
X207172312Y-193793328D02*
X208100884Y-193793328D01*
X209029455Y-192293328D02*
X209172312Y-192293328D01*
X209172312Y-192293328D02*
X209315169Y-192364757D01*
X209315169Y-192364757D02*
X209386598Y-192436185D01*
X209386598Y-192436185D02*
X209458026Y-192579042D01*
X209458026Y-192579042D02*
X209529455Y-192864757D01*
X209529455Y-192864757D02*
X209529455Y-193221900D01*
X209529455Y-193221900D02*
X209458026Y-193507614D01*
X209458026Y-193507614D02*
X209386598Y-193650471D01*
X209386598Y-193650471D02*
X209315169Y-193721900D01*
X209315169Y-193721900D02*
X209172312Y-193793328D01*
X209172312Y-193793328D02*
X209029455Y-193793328D01*
X209029455Y-193793328D02*
X208886598Y-193721900D01*
X208886598Y-193721900D02*
X208815169Y-193650471D01*
X208815169Y-193650471D02*
X208743740Y-193507614D01*
X208743740Y-193507614D02*
X208672312Y-193221900D01*
X208672312Y-193221900D02*
X208672312Y-192864757D01*
X208672312Y-192864757D02*
X208743740Y-192579042D01*
X208743740Y-192579042D02*
X208815169Y-192436185D01*
X208815169Y-192436185D02*
X208886598Y-192364757D01*
X208886598Y-192364757D02*
X209029455Y-192293328D01*
X210100883Y-192436185D02*
X210172311Y-192364757D01*
X210172311Y-192364757D02*
X210315169Y-192293328D01*
X210315169Y-192293328D02*
X210672311Y-192293328D01*
X210672311Y-192293328D02*
X210815169Y-192364757D01*
X210815169Y-192364757D02*
X210886597Y-192436185D01*
X210886597Y-192436185D02*
X210958026Y-192579042D01*
X210958026Y-192579042D02*
X210958026Y-192721900D01*
X210958026Y-192721900D02*
X210886597Y-192936185D01*
X210886597Y-192936185D02*
X210029454Y-193793328D01*
X210029454Y-193793328D02*
X210958026Y-193793328D01*
X211458025Y-192293328D02*
X212386597Y-192293328D01*
X212386597Y-192293328D02*
X211886597Y-192864757D01*
X211886597Y-192864757D02*
X212100882Y-192864757D01*
X212100882Y-192864757D02*
X212243740Y-192936185D01*
X212243740Y-192936185D02*
X212315168Y-193007614D01*
X212315168Y-193007614D02*
X212386597Y-193150471D01*
X212386597Y-193150471D02*
X212386597Y-193507614D01*
X212386597Y-193507614D02*
X212315168Y-193650471D01*
X212315168Y-193650471D02*
X212243740Y-193721900D01*
X212243740Y-193721900D02*
X212100882Y-193793328D01*
X212100882Y-193793328D02*
X211672311Y-193793328D01*
X211672311Y-193793328D02*
X211529454Y-193721900D01*
X211529454Y-193721900D02*
X211458025Y-193650471D01*
X213029453Y-193221900D02*
X214172311Y-193221900D01*
X215172311Y-192293328D02*
X215315168Y-192293328D01*
X215315168Y-192293328D02*
X215458025Y-192364757D01*
X215458025Y-192364757D02*
X215529454Y-192436185D01*
X215529454Y-192436185D02*
X215600882Y-192579042D01*
X215600882Y-192579042D02*
X215672311Y-192864757D01*
X215672311Y-192864757D02*
X215672311Y-193221900D01*
X215672311Y-193221900D02*
X215600882Y-193507614D01*
X215600882Y-193507614D02*
X215529454Y-193650471D01*
X215529454Y-193650471D02*
X215458025Y-193721900D01*
X215458025Y-193721900D02*
X215315168Y-193793328D01*
X215315168Y-193793328D02*
X215172311Y-193793328D01*
X215172311Y-193793328D02*
X215029454Y-193721900D01*
X215029454Y-193721900D02*
X214958025Y-193650471D01*
X214958025Y-193650471D02*
X214886596Y-193507614D01*
X214886596Y-193507614D02*
X214815168Y-193221900D01*
X214815168Y-193221900D02*
X214815168Y-192864757D01*
X214815168Y-192864757D02*
X214886596Y-192579042D01*
X214886596Y-192579042D02*
X214958025Y-192436185D01*
X214958025Y-192436185D02*
X215029454Y-192364757D01*
X215029454Y-192364757D02*
X215172311Y-192293328D01*
X216386596Y-193793328D02*
X216672310Y-193793328D01*
X216672310Y-193793328D02*
X216815167Y-193721900D01*
X216815167Y-193721900D02*
X216886596Y-193650471D01*
X216886596Y-193650471D02*
X217029453Y-193436185D01*
X217029453Y-193436185D02*
X217100882Y-193150471D01*
X217100882Y-193150471D02*
X217100882Y-192579042D01*
X217100882Y-192579042D02*
X217029453Y-192436185D01*
X217029453Y-192436185D02*
X216958025Y-192364757D01*
X216958025Y-192364757D02*
X216815167Y-192293328D01*
X216815167Y-192293328D02*
X216529453Y-192293328D01*
X216529453Y-192293328D02*
X216386596Y-192364757D01*
X216386596Y-192364757D02*
X216315167Y-192436185D01*
X216315167Y-192436185D02*
X216243739Y-192579042D01*
X216243739Y-192579042D02*
X216243739Y-192936185D01*
X216243739Y-192936185D02*
X216315167Y-193079042D01*
X216315167Y-193079042D02*
X216386596Y-193150471D01*
X216386596Y-193150471D02*
X216529453Y-193221900D01*
X216529453Y-193221900D02*
X216815167Y-193221900D01*
X216815167Y-193221900D02*
X216958025Y-193150471D01*
X216958025Y-193150471D02*
X217029453Y-193079042D01*
X217029453Y-193079042D02*
X217100882Y-192936185D01*
X217743738Y-193221900D02*
X218886596Y-193221900D01*
X219886596Y-192293328D02*
X220029453Y-192293328D01*
X220029453Y-192293328D02*
X220172310Y-192364757D01*
X220172310Y-192364757D02*
X220243739Y-192436185D01*
X220243739Y-192436185D02*
X220315167Y-192579042D01*
X220315167Y-192579042D02*
X220386596Y-192864757D01*
X220386596Y-192864757D02*
X220386596Y-193221900D01*
X220386596Y-193221900D02*
X220315167Y-193507614D01*
X220315167Y-193507614D02*
X220243739Y-193650471D01*
X220243739Y-193650471D02*
X220172310Y-193721900D01*
X220172310Y-193721900D02*
X220029453Y-193793328D01*
X220029453Y-193793328D02*
X219886596Y-193793328D01*
X219886596Y-193793328D02*
X219743739Y-193721900D01*
X219743739Y-193721900D02*
X219672310Y-193650471D01*
X219672310Y-193650471D02*
X219600881Y-193507614D01*
X219600881Y-193507614D02*
X219529453Y-193221900D01*
X219529453Y-193221900D02*
X219529453Y-192864757D01*
X219529453Y-192864757D02*
X219600881Y-192579042D01*
X219600881Y-192579042D02*
X219672310Y-192436185D01*
X219672310Y-192436185D02*
X219743739Y-192364757D01*
X219743739Y-192364757D02*
X219886596Y-192293328D01*
X221100881Y-193793328D02*
X221386595Y-193793328D01*
X221386595Y-193793328D02*
X221529452Y-193721900D01*
X221529452Y-193721900D02*
X221600881Y-193650471D01*
X221600881Y-193650471D02*
X221743738Y-193436185D01*
X221743738Y-193436185D02*
X221815167Y-193150471D01*
X221815167Y-193150471D02*
X221815167Y-192579042D01*
X221815167Y-192579042D02*
X221743738Y-192436185D01*
X221743738Y-192436185D02*
X221672310Y-192364757D01*
X221672310Y-192364757D02*
X221529452Y-192293328D01*
X221529452Y-192293328D02*
X221243738Y-192293328D01*
X221243738Y-192293328D02*
X221100881Y-192364757D01*
X221100881Y-192364757D02*
X221029452Y-192436185D01*
X221029452Y-192436185D02*
X220958024Y-192579042D01*
X220958024Y-192579042D02*
X220958024Y-192936185D01*
X220958024Y-192936185D02*
X221029452Y-193079042D01*
X221029452Y-193079042D02*
X221100881Y-193150471D01*
X221100881Y-193150471D02*
X221243738Y-193221900D01*
X221243738Y-193221900D02*
X221529452Y-193221900D01*
X221529452Y-193221900D02*
X221672310Y-193150471D01*
X221672310Y-193150471D02*
X221743738Y-193079042D01*
X221743738Y-193079042D02*
X221815167Y-192936185D01*
D10*
D11*
X177002200Y-194507200D02*
X285002200Y-194507200D01*
D10*
D11*
X178458026Y-196593328D02*
X178458026Y-195093328D01*
X179315169Y-196593328D02*
X178672312Y-195736185D01*
X179315169Y-195093328D02*
X178458026Y-195950471D01*
X179958026Y-196593328D02*
X179958026Y-195593328D01*
X179958026Y-195093328D02*
X179886598Y-195164757D01*
X179886598Y-195164757D02*
X179958026Y-195236185D01*
X179958026Y-195236185D02*
X180029455Y-195164757D01*
X180029455Y-195164757D02*
X179958026Y-195093328D01*
X179958026Y-195093328D02*
X179958026Y-195236185D01*
X181529455Y-196450471D02*
X181458027Y-196521900D01*
X181458027Y-196521900D02*
X181243741Y-196593328D01*
X181243741Y-196593328D02*
X181100884Y-196593328D01*
X181100884Y-196593328D02*
X180886598Y-196521900D01*
X180886598Y-196521900D02*
X180743741Y-196379042D01*
X180743741Y-196379042D02*
X180672312Y-196236185D01*
X180672312Y-196236185D02*
X180600884Y-195950471D01*
X180600884Y-195950471D02*
X180600884Y-195736185D01*
X180600884Y-195736185D02*
X180672312Y-195450471D01*
X180672312Y-195450471D02*
X180743741Y-195307614D01*
X180743741Y-195307614D02*
X180886598Y-195164757D01*
X180886598Y-195164757D02*
X181100884Y-195093328D01*
X181100884Y-195093328D02*
X181243741Y-195093328D01*
X181243741Y-195093328D02*
X181458027Y-195164757D01*
X181458027Y-195164757D02*
X181529455Y-195236185D01*
X182815170Y-196593328D02*
X182815170Y-195807614D01*
X182815170Y-195807614D02*
X182743741Y-195664757D01*
X182743741Y-195664757D02*
X182600884Y-195593328D01*
X182600884Y-195593328D02*
X182315170Y-195593328D01*
X182315170Y-195593328D02*
X182172312Y-195664757D01*
X182815170Y-196521900D02*
X182672312Y-196593328D01*
X182672312Y-196593328D02*
X182315170Y-196593328D01*
X182315170Y-196593328D02*
X182172312Y-196521900D01*
X182172312Y-196521900D02*
X182100884Y-196379042D01*
X182100884Y-196379042D02*
X182100884Y-196236185D01*
X182100884Y-196236185D02*
X182172312Y-196093328D01*
X182172312Y-196093328D02*
X182315170Y-196021900D01*
X182315170Y-196021900D02*
X182672312Y-196021900D01*
X182672312Y-196021900D02*
X182815170Y-195950471D01*
X184172313Y-196593328D02*
X184172313Y-195093328D01*
X184172313Y-196521900D02*
X184029455Y-196593328D01*
X184029455Y-196593328D02*
X183743741Y-196593328D01*
X183743741Y-196593328D02*
X183600884Y-196521900D01*
X183600884Y-196521900D02*
X183529455Y-196450471D01*
X183529455Y-196450471D02*
X183458027Y-196307614D01*
X183458027Y-196307614D02*
X183458027Y-195879042D01*
X183458027Y-195879042D02*
X183529455Y-195736185D01*
X183529455Y-195736185D02*
X183600884Y-195664757D01*
X183600884Y-195664757D02*
X183743741Y-195593328D01*
X183743741Y-195593328D02*
X184029455Y-195593328D01*
X184029455Y-195593328D02*
X184172313Y-195664757D01*
X186029455Y-195807614D02*
X186529455Y-195807614D01*
X186743741Y-196593328D02*
X186029455Y-196593328D01*
X186029455Y-196593328D02*
X186029455Y-195093328D01*
X186029455Y-195093328D02*
X186743741Y-195093328D01*
X187386598Y-196450471D02*
X187458027Y-196521900D01*
X187458027Y-196521900D02*
X187386598Y-196593328D01*
X187386598Y-196593328D02*
X187315170Y-196521900D01*
X187315170Y-196521900D02*
X187386598Y-196450471D01*
X187386598Y-196450471D02*
X187386598Y-196593328D01*
X188100884Y-196593328D02*
X188100884Y-195093328D01*
X188100884Y-195093328D02*
X188458027Y-195093328D01*
X188458027Y-195093328D02*
X188672313Y-195164757D01*
X188672313Y-195164757D02*
X188815170Y-195307614D01*
X188815170Y-195307614D02*
X188886599Y-195450471D01*
X188886599Y-195450471D02*
X188958027Y-195736185D01*
X188958027Y-195736185D02*
X188958027Y-195950471D01*
X188958027Y-195950471D02*
X188886599Y-196236185D01*
X188886599Y-196236185D02*
X188815170Y-196379042D01*
X188815170Y-196379042D02*
X188672313Y-196521900D01*
X188672313Y-196521900D02*
X188458027Y-196593328D01*
X188458027Y-196593328D02*
X188100884Y-196593328D01*
X189600884Y-196450471D02*
X189672313Y-196521900D01*
X189672313Y-196521900D02*
X189600884Y-196593328D01*
X189600884Y-196593328D02*
X189529456Y-196521900D01*
X189529456Y-196521900D02*
X189600884Y-196450471D01*
X189600884Y-196450471D02*
X189600884Y-196593328D01*
X190243742Y-196164757D02*
X190958028Y-196164757D01*
X190100885Y-196593328D02*
X190600885Y-195093328D01*
X190600885Y-195093328D02*
X191100885Y-196593328D01*
X191600884Y-196450471D02*
X191672313Y-196521900D01*
X191672313Y-196521900D02*
X191600884Y-196593328D01*
X191600884Y-196593328D02*
X191529456Y-196521900D01*
X191529456Y-196521900D02*
X191600884Y-196450471D01*
X191600884Y-196450471D02*
X191600884Y-196593328D01*
X194600884Y-196593328D02*
X194600884Y-195093328D01*
X194743742Y-196021900D02*
X195172313Y-196593328D01*
X195172313Y-195593328D02*
X194600884Y-196164757D01*
X195815170Y-196593328D02*
X195815170Y-195593328D01*
X195815170Y-195093328D02*
X195743742Y-195164757D01*
X195743742Y-195164757D02*
X195815170Y-195236185D01*
X195815170Y-195236185D02*
X195886599Y-195164757D01*
X195886599Y-195164757D02*
X195815170Y-195093328D01*
X195815170Y-195093328D02*
X195815170Y-195236185D01*
X197172314Y-196521900D02*
X197029456Y-196593328D01*
X197029456Y-196593328D02*
X196743742Y-196593328D01*
X196743742Y-196593328D02*
X196600885Y-196521900D01*
X196600885Y-196521900D02*
X196529456Y-196450471D01*
X196529456Y-196450471D02*
X196458028Y-196307614D01*
X196458028Y-196307614D02*
X196458028Y-195879042D01*
X196458028Y-195879042D02*
X196529456Y-195736185D01*
X196529456Y-195736185D02*
X196600885Y-195664757D01*
X196600885Y-195664757D02*
X196743742Y-195593328D01*
X196743742Y-195593328D02*
X197029456Y-195593328D01*
X197029456Y-195593328D02*
X197172314Y-195664757D01*
X198458028Y-196593328D02*
X198458028Y-195807614D01*
X198458028Y-195807614D02*
X198386599Y-195664757D01*
X198386599Y-195664757D02*
X198243742Y-195593328D01*
X198243742Y-195593328D02*
X197958028Y-195593328D01*
X197958028Y-195593328D02*
X197815170Y-195664757D01*
X198458028Y-196521900D02*
X198315170Y-196593328D01*
X198315170Y-196593328D02*
X197958028Y-196593328D01*
X197958028Y-196593328D02*
X197815170Y-196521900D01*
X197815170Y-196521900D02*
X197743742Y-196379042D01*
X197743742Y-196379042D02*
X197743742Y-196236185D01*
X197743742Y-196236185D02*
X197815170Y-196093328D01*
X197815170Y-196093328D02*
X197958028Y-196021900D01*
X197958028Y-196021900D02*
X198315170Y-196021900D01*
X198315170Y-196021900D02*
X198458028Y-195950471D01*
X199815171Y-196593328D02*
X199815171Y-195093328D01*
X199815171Y-196521900D02*
X199672313Y-196593328D01*
X199672313Y-196593328D02*
X199386599Y-196593328D01*
X199386599Y-196593328D02*
X199243742Y-196521900D01*
X199243742Y-196521900D02*
X199172313Y-196450471D01*
X199172313Y-196450471D02*
X199100885Y-196307614D01*
X199100885Y-196307614D02*
X199100885Y-195879042D01*
X199100885Y-195879042D02*
X199172313Y-195736185D01*
X199172313Y-195736185D02*
X199243742Y-195664757D01*
X199243742Y-195664757D02*
X199386599Y-195593328D01*
X199386599Y-195593328D02*
X199672313Y-195593328D01*
X199672313Y-195593328D02*
X199815171Y-195664757D01*
X201529456Y-195093328D02*
X202529456Y-195093328D01*
X202529456Y-195093328D02*
X201886599Y-196593328D01*
X203100884Y-196450471D02*
X203172313Y-196521900D01*
X203172313Y-196521900D02*
X203100884Y-196593328D01*
X203100884Y-196593328D02*
X203029456Y-196521900D01*
X203029456Y-196521900D02*
X203100884Y-196450471D01*
X203100884Y-196450471D02*
X203100884Y-196593328D01*
X204100885Y-195093328D02*
X204243742Y-195093328D01*
X204243742Y-195093328D02*
X204386599Y-195164757D01*
X204386599Y-195164757D02*
X204458028Y-195236185D01*
X204458028Y-195236185D02*
X204529456Y-195379042D01*
X204529456Y-195379042D02*
X204600885Y-195664757D01*
X204600885Y-195664757D02*
X204600885Y-196021900D01*
X204600885Y-196021900D02*
X204529456Y-196307614D01*
X204529456Y-196307614D02*
X204458028Y-196450471D01*
X204458028Y-196450471D02*
X204386599Y-196521900D01*
X204386599Y-196521900D02*
X204243742Y-196593328D01*
X204243742Y-196593328D02*
X204100885Y-196593328D01*
X204100885Y-196593328D02*
X203958028Y-196521900D01*
X203958028Y-196521900D02*
X203886599Y-196450471D01*
X203886599Y-196450471D02*
X203815170Y-196307614D01*
X203815170Y-196307614D02*
X203743742Y-196021900D01*
X203743742Y-196021900D02*
X203743742Y-195664757D01*
X203743742Y-195664757D02*
X203815170Y-195379042D01*
X203815170Y-195379042D02*
X203886599Y-195236185D01*
X203886599Y-195236185D02*
X203958028Y-195164757D01*
X203958028Y-195164757D02*
X204100885Y-195093328D01*
X205243741Y-196450471D02*
X205315170Y-196521900D01*
X205315170Y-196521900D02*
X205243741Y-196593328D01*
X205243741Y-196593328D02*
X205172313Y-196521900D01*
X205172313Y-196521900D02*
X205243741Y-196450471D01*
X205243741Y-196450471D02*
X205243741Y-196593328D01*
X205815170Y-195093328D02*
X206815170Y-195093328D01*
X206815170Y-195093328D02*
X206172313Y-196593328D01*
D10*
D11*
X177002200Y-191507200D02*
X285002200Y-191507200D01*
D10*
D12*
X264413853Y-193785528D02*
X263913853Y-193071242D01*
X263556710Y-193785528D02*
X263556710Y-192285528D01*
X263556710Y-192285528D02*
X264128139Y-192285528D01*
X264128139Y-192285528D02*
X264270996Y-192356957D01*
X264270996Y-192356957D02*
X264342425Y-192428385D01*
X264342425Y-192428385D02*
X264413853Y-192571242D01*
X264413853Y-192571242D02*
X264413853Y-192785528D01*
X264413853Y-192785528D02*
X264342425Y-192928385D01*
X264342425Y-192928385D02*
X264270996Y-192999814D01*
X264270996Y-192999814D02*
X264128139Y-193071242D01*
X264128139Y-193071242D02*
X263556710Y-193071242D01*
X265628139Y-193714100D02*
X265485282Y-193785528D01*
X265485282Y-193785528D02*
X265199568Y-193785528D01*
X265199568Y-193785528D02*
X265056710Y-193714100D01*
X265056710Y-193714100D02*
X264985282Y-193571242D01*
X264985282Y-193571242D02*
X264985282Y-192999814D01*
X264985282Y-192999814D02*
X265056710Y-192856957D01*
X265056710Y-192856957D02*
X265199568Y-192785528D01*
X265199568Y-192785528D02*
X265485282Y-192785528D01*
X265485282Y-192785528D02*
X265628139Y-192856957D01*
X265628139Y-192856957D02*
X265699568Y-192999814D01*
X265699568Y-192999814D02*
X265699568Y-193142671D01*
X265699568Y-193142671D02*
X264985282Y-193285528D01*
X266199567Y-192785528D02*
X266556710Y-193785528D01*
X266556710Y-193785528D02*
X266913853Y-192785528D01*
X267485281Y-193642671D02*
X267556710Y-193714100D01*
X267556710Y-193714100D02*
X267485281Y-193785528D01*
X267485281Y-193785528D02*
X267413853Y-193714100D01*
X267413853Y-193714100D02*
X267485281Y-193642671D01*
X267485281Y-193642671D02*
X267485281Y-193785528D01*
X267485281Y-192856957D02*
X267556710Y-192928385D01*
X267556710Y-192928385D02*
X267485281Y-192999814D01*
X267485281Y-192999814D02*
X267413853Y-192928385D01*
X267413853Y-192928385D02*
X267485281Y-192856957D01*
X267485281Y-192856957D02*
X267485281Y-192999814D01*
X269199567Y-192785528D02*
X269556710Y-193785528D01*
X269556710Y-193785528D02*
X269913853Y-192785528D01*
X271270996Y-193785528D02*
X270413853Y-193785528D01*
X270842424Y-193785528D02*
X270842424Y-192285528D01*
X270842424Y-192285528D02*
X270699567Y-192499814D01*
X270699567Y-192499814D02*
X270556710Y-192642671D01*
X270556710Y-192642671D02*
X270413853Y-192714100D01*
D10*
D11*
X178386598Y-193721900D02*
X178600884Y-193793328D01*
X178600884Y-193793328D02*
X178958026Y-193793328D01*
X178958026Y-193793328D02*
X179100884Y-193721900D01*
X179100884Y-193721900D02*
X179172312Y-193650471D01*
X179172312Y-193650471D02*
X179243741Y-193507614D01*
X179243741Y-193507614D02*
X179243741Y-193364757D01*
X179243741Y-193364757D02*
X179172312Y-193221900D01*
X179172312Y-193221900D02*
X179100884Y-193150471D01*
X179100884Y-193150471D02*
X178958026Y-193079042D01*
X178958026Y-193079042D02*
X178672312Y-193007614D01*
X178672312Y-193007614D02*
X178529455Y-192936185D01*
X178529455Y-192936185D02*
X178458026Y-192864757D01*
X178458026Y-192864757D02*
X178386598Y-192721900D01*
X178386598Y-192721900D02*
X178386598Y-192579042D01*
X178386598Y-192579042D02*
X178458026Y-192436185D01*
X178458026Y-192436185D02*
X178529455Y-192364757D01*
X178529455Y-192364757D02*
X178672312Y-192293328D01*
X178672312Y-192293328D02*
X179029455Y-192293328D01*
X179029455Y-192293328D02*
X179243741Y-192364757D01*
X179886597Y-193793328D02*
X179886597Y-192793328D01*
X179886597Y-192293328D02*
X179815169Y-192364757D01*
X179815169Y-192364757D02*
X179886597Y-192436185D01*
X179886597Y-192436185D02*
X179958026Y-192364757D01*
X179958026Y-192364757D02*
X179886597Y-192293328D01*
X179886597Y-192293328D02*
X179886597Y-192436185D01*
X180458026Y-192793328D02*
X181243741Y-192793328D01*
X181243741Y-192793328D02*
X180458026Y-193793328D01*
X180458026Y-193793328D02*
X181243741Y-193793328D01*
X182386598Y-193721900D02*
X182243741Y-193793328D01*
X182243741Y-193793328D02*
X181958027Y-193793328D01*
X181958027Y-193793328D02*
X181815169Y-193721900D01*
X181815169Y-193721900D02*
X181743741Y-193579042D01*
X181743741Y-193579042D02*
X181743741Y-193007614D01*
X181743741Y-193007614D02*
X181815169Y-192864757D01*
X181815169Y-192864757D02*
X181958027Y-192793328D01*
X181958027Y-192793328D02*
X182243741Y-192793328D01*
X182243741Y-192793328D02*
X182386598Y-192864757D01*
X182386598Y-192864757D02*
X182458027Y-193007614D01*
X182458027Y-193007614D02*
X182458027Y-193150471D01*
X182458027Y-193150471D02*
X181743741Y-193293328D01*
X183100883Y-193650471D02*
X183172312Y-193721900D01*
X183172312Y-193721900D02*
X183100883Y-193793328D01*
X183100883Y-193793328D02*
X183029455Y-193721900D01*
X183029455Y-193721900D02*
X183100883Y-193650471D01*
X183100883Y-193650471D02*
X183100883Y-193793328D01*
X183100883Y-192864757D02*
X183172312Y-192936185D01*
X183172312Y-192936185D02*
X183100883Y-193007614D01*
X183100883Y-193007614D02*
X183029455Y-192936185D01*
X183029455Y-192936185D02*
X183100883Y-192864757D01*
X183100883Y-192864757D02*
X183100883Y-193007614D01*
X184886598Y-193364757D02*
X185600884Y-193364757D01*
X184743741Y-193793328D02*
X185243741Y-192293328D01*
X185243741Y-192293328D02*
X185743741Y-193793328D01*
X186886598Y-192793328D02*
X186886598Y-193793328D01*
X186529455Y-192221900D02*
X186172312Y-193293328D01*
X186172312Y-193293328D02*
X187100883Y-193293328D01*
D10*
D11*
X263458026Y-196593328D02*
X263458026Y-195093328D01*
X264815170Y-196593328D02*
X264815170Y-195093328D01*
X264815170Y-196521900D02*
X264672312Y-196593328D01*
X264672312Y-196593328D02*
X264386598Y-196593328D01*
X264386598Y-196593328D02*
X264243741Y-196521900D01*
X264243741Y-196521900D02*
X264172312Y-196450471D01*
X264172312Y-196450471D02*
X264100884Y-196307614D01*
X264100884Y-196307614D02*
X264100884Y-195879042D01*
X264100884Y-195879042D02*
X264172312Y-195736185D01*
X264172312Y-195736185D02*
X264243741Y-195664757D01*
X264243741Y-195664757D02*
X264386598Y-195593328D01*
X264386598Y-195593328D02*
X264672312Y-195593328D01*
X264672312Y-195593328D02*
X264815170Y-195664757D01*
X265529455Y-196450471D02*
X265600884Y-196521900D01*
X265600884Y-196521900D02*
X265529455Y-196593328D01*
X265529455Y-196593328D02*
X265458027Y-196521900D01*
X265458027Y-196521900D02*
X265529455Y-196450471D01*
X265529455Y-196450471D02*
X265529455Y-196593328D01*
X265529455Y-195664757D02*
X265600884Y-195736185D01*
X265600884Y-195736185D02*
X265529455Y-195807614D01*
X265529455Y-195807614D02*
X265458027Y-195736185D01*
X265458027Y-195736185D02*
X265529455Y-195664757D01*
X265529455Y-195664757D02*
X265529455Y-195807614D01*
X268172313Y-196593328D02*
X267315170Y-196593328D01*
X267743741Y-196593328D02*
X267743741Y-195093328D01*
X267743741Y-195093328D02*
X267600884Y-195307614D01*
X267600884Y-195307614D02*
X267458027Y-195450471D01*
X267458027Y-195450471D02*
X267315170Y-195521900D01*
X269886598Y-195021900D02*
X268600884Y-196950471D01*
X271172313Y-196593328D02*
X270315170Y-196593328D01*
X270743741Y-196593328D02*
X270743741Y-195093328D01*
X270743741Y-195093328D02*
X270600884Y-195307614D01*
X270600884Y-195307614D02*
X270458027Y-195450471D01*
X270458027Y-195450471D02*
X270315170Y-195521900D01*
D10*
D11*
X177002200Y-187507200D02*
X285002200Y-187507200D01*
D10*
D13*
X178693928Y-188211638D02*
X179836785Y-188211638D01*
X179015357Y-190211638D02*
X179265357Y-188211638D01*
X180253452Y-190211638D02*
X180420119Y-188878304D01*
X180503452Y-188211638D02*
X180396309Y-188306876D01*
X180396309Y-188306876D02*
X180479643Y-188402114D01*
X180479643Y-188402114D02*
X180586786Y-188306876D01*
X180586786Y-188306876D02*
X180503452Y-188211638D01*
X180503452Y-188211638D02*
X180479643Y-188402114D01*
X181086786Y-188878304D02*
X181848690Y-188878304D01*
X181455833Y-188211638D02*
X181241548Y-189925923D01*
X181241548Y-189925923D02*
X181312976Y-190116400D01*
X181312976Y-190116400D02*
X181491548Y-190211638D01*
X181491548Y-190211638D02*
X181682024Y-190211638D01*
X182634405Y-190211638D02*
X182455833Y-190116400D01*
X182455833Y-190116400D02*
X182384405Y-189925923D01*
X182384405Y-189925923D02*
X182598690Y-188211638D01*
X184170119Y-190116400D02*
X183967738Y-190211638D01*
X183967738Y-190211638D02*
X183586785Y-190211638D01*
X183586785Y-190211638D02*
X183408214Y-190116400D01*
X183408214Y-190116400D02*
X183336785Y-189925923D01*
X183336785Y-189925923D02*
X183432024Y-189164019D01*
X183432024Y-189164019D02*
X183551071Y-188973542D01*
X183551071Y-188973542D02*
X183753452Y-188878304D01*
X183753452Y-188878304D02*
X184134404Y-188878304D01*
X184134404Y-188878304D02*
X184312976Y-188973542D01*
X184312976Y-188973542D02*
X184384404Y-189164019D01*
X184384404Y-189164019D02*
X184360595Y-189354495D01*
X184360595Y-189354495D02*
X183384404Y-189544971D01*
X185134405Y-190021161D02*
X185217738Y-190116400D01*
X185217738Y-190116400D02*
X185110595Y-190211638D01*
X185110595Y-190211638D02*
X185027262Y-190116400D01*
X185027262Y-190116400D02*
X185134405Y-190021161D01*
X185134405Y-190021161D02*
X185110595Y-190211638D01*
X185265357Y-188973542D02*
X185348690Y-189068780D01*
X185348690Y-189068780D02*
X185241548Y-189164019D01*
X185241548Y-189164019D02*
X185158214Y-189068780D01*
X185158214Y-189068780D02*
X185265357Y-188973542D01*
X185265357Y-188973542D02*
X185241548Y-189164019D01*
X187586786Y-190211638D02*
X187836786Y-188211638D01*
X187836786Y-188211638D02*
X188598691Y-188211638D01*
X188598691Y-188211638D02*
X188777262Y-188306876D01*
X188777262Y-188306876D02*
X188860596Y-188402114D01*
X188860596Y-188402114D02*
X188932024Y-188592590D01*
X188932024Y-188592590D02*
X188896310Y-188878304D01*
X188896310Y-188878304D02*
X188777262Y-189068780D01*
X188777262Y-189068780D02*
X188670120Y-189164019D01*
X188670120Y-189164019D02*
X188467739Y-189259257D01*
X188467739Y-189259257D02*
X187705834Y-189259257D01*
X189586786Y-190211638D02*
X189753453Y-188878304D01*
X189705834Y-189259257D02*
X189824881Y-189068780D01*
X189824881Y-189068780D02*
X189932024Y-188973542D01*
X189932024Y-188973542D02*
X190134405Y-188878304D01*
X190134405Y-188878304D02*
X190324881Y-188878304D01*
X191110596Y-190211638D02*
X190932024Y-190116400D01*
X190932024Y-190116400D02*
X190848691Y-190021161D01*
X190848691Y-190021161D02*
X190777262Y-189830685D01*
X190777262Y-189830685D02*
X190848691Y-189259257D01*
X190848691Y-189259257D02*
X190967738Y-189068780D01*
X190967738Y-189068780D02*
X191074881Y-188973542D01*
X191074881Y-188973542D02*
X191277262Y-188878304D01*
X191277262Y-188878304D02*
X191562976Y-188878304D01*
X191562976Y-188878304D02*
X191741548Y-188973542D01*
X191741548Y-188973542D02*
X191824881Y-189068780D01*
X191824881Y-189068780D02*
X191896310Y-189259257D01*
X191896310Y-189259257D02*
X191824881Y-189830685D01*
X191824881Y-189830685D02*
X191705834Y-190021161D01*
X191705834Y-190021161D02*
X191598691Y-190116400D01*
X191598691Y-190116400D02*
X191396310Y-190211638D01*
X191396310Y-190211638D02*
X191110596Y-190211638D01*
X192801072Y-188878304D02*
X192586786Y-190592590D01*
X192586786Y-190592590D02*
X192467739Y-190783066D01*
X192467739Y-190783066D02*
X192265358Y-190878304D01*
X192265358Y-190878304D02*
X192170120Y-190878304D01*
X192884405Y-188211638D02*
X192777262Y-188306876D01*
X192777262Y-188306876D02*
X192860596Y-188402114D01*
X192860596Y-188402114D02*
X192967739Y-188306876D01*
X192967739Y-188306876D02*
X192884405Y-188211638D01*
X192884405Y-188211638D02*
X192860596Y-188402114D01*
X194360596Y-190116400D02*
X194158215Y-190211638D01*
X194158215Y-190211638D02*
X193777262Y-190211638D01*
X193777262Y-190211638D02*
X193598691Y-190116400D01*
X193598691Y-190116400D02*
X193527262Y-189925923D01*
X193527262Y-189925923D02*
X193622501Y-189164019D01*
X193622501Y-189164019D02*
X193741548Y-188973542D01*
X193741548Y-188973542D02*
X193943929Y-188878304D01*
X193943929Y-188878304D02*
X194324881Y-188878304D01*
X194324881Y-188878304D02*
X194503453Y-188973542D01*
X194503453Y-188973542D02*
X194574881Y-189164019D01*
X194574881Y-189164019D02*
X194551072Y-189354495D01*
X194551072Y-189354495D02*
X193574881Y-189544971D01*
X196170120Y-190116400D02*
X195967739Y-190211638D01*
X195967739Y-190211638D02*
X195586787Y-190211638D01*
X195586787Y-190211638D02*
X195408215Y-190116400D01*
X195408215Y-190116400D02*
X195324882Y-190021161D01*
X195324882Y-190021161D02*
X195253453Y-189830685D01*
X195253453Y-189830685D02*
X195324882Y-189259257D01*
X195324882Y-189259257D02*
X195443929Y-189068780D01*
X195443929Y-189068780D02*
X195551072Y-188973542D01*
X195551072Y-188973542D02*
X195753453Y-188878304D01*
X195753453Y-188878304D02*
X196134406Y-188878304D01*
X196134406Y-188878304D02*
X196312977Y-188973542D01*
X196896311Y-188878304D02*
X197658215Y-188878304D01*
X197265358Y-188211638D02*
X197051073Y-189925923D01*
X197051073Y-189925923D02*
X197122501Y-190116400D01*
X197122501Y-190116400D02*
X197301073Y-190211638D01*
X197301073Y-190211638D02*
X197491549Y-190211638D01*
X199646311Y-188211638D02*
X200789168Y-188211638D01*
X199967740Y-190211638D02*
X200217740Y-188211638D01*
X202062978Y-190211638D02*
X202193930Y-189164019D01*
X202193930Y-189164019D02*
X202122502Y-188973542D01*
X202122502Y-188973542D02*
X201943930Y-188878304D01*
X201943930Y-188878304D02*
X201562978Y-188878304D01*
X201562978Y-188878304D02*
X201360597Y-188973542D01*
X202074883Y-190116400D02*
X201872502Y-190211638D01*
X201872502Y-190211638D02*
X201396311Y-190211638D01*
X201396311Y-190211638D02*
X201217740Y-190116400D01*
X201217740Y-190116400D02*
X201146311Y-189925923D01*
X201146311Y-189925923D02*
X201170121Y-189735447D01*
X201170121Y-189735447D02*
X201289169Y-189544971D01*
X201289169Y-189544971D02*
X201491550Y-189449733D01*
X201491550Y-189449733D02*
X201967740Y-189449733D01*
X201967740Y-189449733D02*
X202170121Y-189354495D01*
X203884407Y-190116400D02*
X203682026Y-190211638D01*
X203682026Y-190211638D02*
X203301074Y-190211638D01*
X203301074Y-190211638D02*
X203122502Y-190116400D01*
X203122502Y-190116400D02*
X203039169Y-190021161D01*
X203039169Y-190021161D02*
X202967740Y-189830685D01*
X202967740Y-189830685D02*
X203039169Y-189259257D01*
X203039169Y-189259257D02*
X203158216Y-189068780D01*
X203158216Y-189068780D02*
X203265359Y-188973542D01*
X203265359Y-188973542D02*
X203467740Y-188878304D01*
X203467740Y-188878304D02*
X203848693Y-188878304D01*
X203848693Y-188878304D02*
X204027264Y-188973542D01*
X204729645Y-190211638D02*
X204979645Y-188211638D01*
X205586788Y-190211638D02*
X205717740Y-189164019D01*
X205717740Y-189164019D02*
X205646312Y-188973542D01*
X205646312Y-188973542D02*
X205467740Y-188878304D01*
X205467740Y-188878304D02*
X205182026Y-188878304D01*
X205182026Y-188878304D02*
X204979645Y-188973542D01*
X204979645Y-188973542D02*
X204872502Y-189068780D01*
X206824884Y-190211638D02*
X206646312Y-190116400D01*
X206646312Y-190116400D02*
X206562979Y-190021161D01*
X206562979Y-190021161D02*
X206491550Y-189830685D01*
X206491550Y-189830685D02*
X206562979Y-189259257D01*
X206562979Y-189259257D02*
X206682026Y-189068780D01*
X206682026Y-189068780D02*
X206789169Y-188973542D01*
X206789169Y-188973542D02*
X206991550Y-188878304D01*
X206991550Y-188878304D02*
X207277264Y-188878304D01*
X207277264Y-188878304D02*
X207455836Y-188973542D01*
X207455836Y-188973542D02*
X207539169Y-189068780D01*
X207539169Y-189068780D02*
X207610598Y-189259257D01*
X207610598Y-189259257D02*
X207539169Y-189830685D01*
X207539169Y-189830685D02*
X207420122Y-190021161D01*
X207420122Y-190021161D02*
X207312979Y-190116400D01*
X207312979Y-190116400D02*
X207110598Y-190211638D01*
X207110598Y-190211638D02*
X206824884Y-190211638D01*
X208348693Y-190211638D02*
X208515360Y-188878304D01*
X208491550Y-189068780D02*
X208598693Y-188973542D01*
X208598693Y-188973542D02*
X208801074Y-188878304D01*
X208801074Y-188878304D02*
X209086788Y-188878304D01*
X209086788Y-188878304D02*
X209265360Y-188973542D01*
X209265360Y-188973542D02*
X209336788Y-189164019D01*
X209336788Y-189164019D02*
X209205836Y-190211638D01*
X209336788Y-189164019D02*
X209455836Y-188973542D01*
X209455836Y-188973542D02*
X209658217Y-188878304D01*
X209658217Y-188878304D02*
X209943931Y-188878304D01*
X209943931Y-188878304D02*
X210122503Y-188973542D01*
X210122503Y-188973542D02*
X210193931Y-189164019D01*
X210193931Y-189164019D02*
X210062979Y-190211638D01*
X211789170Y-190116400D02*
X211586789Y-190211638D01*
X211586789Y-190211638D02*
X211205836Y-190211638D01*
X211205836Y-190211638D02*
X211027265Y-190116400D01*
X211027265Y-190116400D02*
X210955836Y-189925923D01*
X210955836Y-189925923D02*
X211051075Y-189164019D01*
X211051075Y-189164019D02*
X211170122Y-188973542D01*
X211170122Y-188973542D02*
X211372503Y-188878304D01*
X211372503Y-188878304D02*
X211753455Y-188878304D01*
X211753455Y-188878304D02*
X211932027Y-188973542D01*
X211932027Y-188973542D02*
X212003455Y-189164019D01*
X212003455Y-189164019D02*
X211979646Y-189354495D01*
X211979646Y-189354495D02*
X211003455Y-189544971D01*
X212610599Y-188878304D02*
X213372503Y-188878304D01*
X212979646Y-188211638D02*
X212765361Y-189925923D01*
X212765361Y-189925923D02*
X212836789Y-190116400D01*
X212836789Y-190116400D02*
X213015361Y-190211638D01*
X213015361Y-190211638D02*
X213205837Y-190211638D01*
X214646313Y-190116400D02*
X214443932Y-190211638D01*
X214443932Y-190211638D02*
X214062979Y-190211638D01*
X214062979Y-190211638D02*
X213884408Y-190116400D01*
X213884408Y-190116400D02*
X213812979Y-189925923D01*
X213812979Y-189925923D02*
X213908218Y-189164019D01*
X213908218Y-189164019D02*
X214027265Y-188973542D01*
X214027265Y-188973542D02*
X214229646Y-188878304D01*
X214229646Y-188878304D02*
X214610598Y-188878304D01*
X214610598Y-188878304D02*
X214789170Y-188973542D01*
X214789170Y-188973542D02*
X214860598Y-189164019D01*
X214860598Y-189164019D02*
X214836789Y-189354495D01*
X214836789Y-189354495D02*
X213860598Y-189544971D01*
X215586789Y-190211638D02*
X215753456Y-188878304D01*
X215705837Y-189259257D02*
X215824884Y-189068780D01*
X215824884Y-189068780D02*
X215932027Y-188973542D01*
X215932027Y-188973542D02*
X216134408Y-188878304D01*
X216134408Y-188878304D02*
X216324884Y-188878304D01*
D10*
D11*
X178958026Y-185607614D02*
X178458026Y-185607614D01*
X178458026Y-186393328D02*
X178458026Y-184893328D01*
X178458026Y-184893328D02*
X179172312Y-184893328D01*
X179743740Y-186393328D02*
X179743740Y-185393328D01*
X179743740Y-184893328D02*
X179672312Y-184964757D01*
X179672312Y-184964757D02*
X179743740Y-185036185D01*
X179743740Y-185036185D02*
X179815169Y-184964757D01*
X179815169Y-184964757D02*
X179743740Y-184893328D01*
X179743740Y-184893328D02*
X179743740Y-185036185D01*
X180672312Y-186393328D02*
X180529455Y-186321900D01*
X180529455Y-186321900D02*
X180458026Y-186179042D01*
X180458026Y-186179042D02*
X180458026Y-184893328D01*
X181815169Y-186321900D02*
X181672312Y-186393328D01*
X181672312Y-186393328D02*
X181386598Y-186393328D01*
X181386598Y-186393328D02*
X181243740Y-186321900D01*
X181243740Y-186321900D02*
X181172312Y-186179042D01*
X181172312Y-186179042D02*
X181172312Y-185607614D01*
X181172312Y-185607614D02*
X181243740Y-185464757D01*
X181243740Y-185464757D02*
X181386598Y-185393328D01*
X181386598Y-185393328D02*
X181672312Y-185393328D01*
X181672312Y-185393328D02*
X181815169Y-185464757D01*
X181815169Y-185464757D02*
X181886598Y-185607614D01*
X181886598Y-185607614D02*
X181886598Y-185750471D01*
X181886598Y-185750471D02*
X181172312Y-185893328D01*
X182529454Y-186250471D02*
X182600883Y-186321900D01*
X182600883Y-186321900D02*
X182529454Y-186393328D01*
X182529454Y-186393328D02*
X182458026Y-186321900D01*
X182458026Y-186321900D02*
X182529454Y-186250471D01*
X182529454Y-186250471D02*
X182529454Y-186393328D01*
X182529454Y-185464757D02*
X182600883Y-185536185D01*
X182600883Y-185536185D02*
X182529454Y-185607614D01*
X182529454Y-185607614D02*
X182458026Y-185536185D01*
X182458026Y-185536185D02*
X182529454Y-185464757D01*
X182529454Y-185464757D02*
X182529454Y-185607614D01*
X184172312Y-184893328D02*
X185029455Y-184893328D01*
X184600883Y-186393328D02*
X184600883Y-184893328D01*
X186172312Y-186393328D02*
X186172312Y-185607614D01*
X186172312Y-185607614D02*
X186100883Y-185464757D01*
X186100883Y-185464757D02*
X185958026Y-185393328D01*
X185958026Y-185393328D02*
X185672312Y-185393328D01*
X185672312Y-185393328D02*
X185529454Y-185464757D01*
X186172312Y-186321900D02*
X186029454Y-186393328D01*
X186029454Y-186393328D02*
X185672312Y-186393328D01*
X185672312Y-186393328D02*
X185529454Y-186321900D01*
X185529454Y-186321900D02*
X185458026Y-186179042D01*
X185458026Y-186179042D02*
X185458026Y-186036185D01*
X185458026Y-186036185D02*
X185529454Y-185893328D01*
X185529454Y-185893328D02*
X185672312Y-185821900D01*
X185672312Y-185821900D02*
X186029454Y-185821900D01*
X186029454Y-185821900D02*
X186172312Y-185750471D01*
X187529455Y-186321900D02*
X187386597Y-186393328D01*
X187386597Y-186393328D02*
X187100883Y-186393328D01*
X187100883Y-186393328D02*
X186958026Y-186321900D01*
X186958026Y-186321900D02*
X186886597Y-186250471D01*
X186886597Y-186250471D02*
X186815169Y-186107614D01*
X186815169Y-186107614D02*
X186815169Y-185679042D01*
X186815169Y-185679042D02*
X186886597Y-185536185D01*
X186886597Y-185536185D02*
X186958026Y-185464757D01*
X186958026Y-185464757D02*
X187100883Y-185393328D01*
X187100883Y-185393328D02*
X187386597Y-185393328D01*
X187386597Y-185393328D02*
X187529455Y-185464757D01*
X188172311Y-186393328D02*
X188172311Y-184893328D01*
X188815169Y-186393328D02*
X188815169Y-185607614D01*
X188815169Y-185607614D02*
X188743740Y-185464757D01*
X188743740Y-185464757D02*
X188600883Y-185393328D01*
X188600883Y-185393328D02*
X188386597Y-185393328D01*
X188386597Y-185393328D02*
X188243740Y-185464757D01*
X188243740Y-185464757D02*
X188172311Y-185536185D01*
X189743740Y-186393328D02*
X189600883Y-186321900D01*
X189600883Y-186321900D02*
X189529454Y-186250471D01*
X189529454Y-186250471D02*
X189458026Y-186107614D01*
X189458026Y-186107614D02*
X189458026Y-185679042D01*
X189458026Y-185679042D02*
X189529454Y-185536185D01*
X189529454Y-185536185D02*
X189600883Y-185464757D01*
X189600883Y-185464757D02*
X189743740Y-185393328D01*
X189743740Y-185393328D02*
X189958026Y-185393328D01*
X189958026Y-185393328D02*
X190100883Y-185464757D01*
X190100883Y-185464757D02*
X190172312Y-185536185D01*
X190172312Y-185536185D02*
X190243740Y-185679042D01*
X190243740Y-185679042D02*
X190243740Y-186107614D01*
X190243740Y-186107614D02*
X190172312Y-186250471D01*
X190172312Y-186250471D02*
X190100883Y-186321900D01*
X190100883Y-186321900D02*
X189958026Y-186393328D01*
X189958026Y-186393328D02*
X189743740Y-186393328D01*
X190886597Y-186393328D02*
X190886597Y-185393328D01*
X190886597Y-185536185D02*
X190958026Y-185464757D01*
X190958026Y-185464757D02*
X191100883Y-185393328D01*
X191100883Y-185393328D02*
X191315169Y-185393328D01*
X191315169Y-185393328D02*
X191458026Y-185464757D01*
X191458026Y-185464757D02*
X191529455Y-185607614D01*
X191529455Y-185607614D02*
X191529455Y-186393328D01*
X191529455Y-185607614D02*
X191600883Y-185464757D01*
X191600883Y-185464757D02*
X191743740Y-185393328D01*
X191743740Y-185393328D02*
X191958026Y-185393328D01*
X191958026Y-185393328D02*
X192100883Y-185464757D01*
X192100883Y-185464757D02*
X192172312Y-185607614D01*
X192172312Y-185607614D02*
X192172312Y-186393328D01*
X193458026Y-186321900D02*
X193315169Y-186393328D01*
X193315169Y-186393328D02*
X193029455Y-186393328D01*
X193029455Y-186393328D02*
X192886597Y-186321900D01*
X192886597Y-186321900D02*
X192815169Y-186179042D01*
X192815169Y-186179042D02*
X192815169Y-185607614D01*
X192815169Y-185607614D02*
X192886597Y-185464757D01*
X192886597Y-185464757D02*
X193029455Y-185393328D01*
X193029455Y-185393328D02*
X193315169Y-185393328D01*
X193315169Y-185393328D02*
X193458026Y-185464757D01*
X193458026Y-185464757D02*
X193529455Y-185607614D01*
X193529455Y-185607614D02*
X193529455Y-185750471D01*
X193529455Y-185750471D02*
X192815169Y-185893328D01*
X193958026Y-185393328D02*
X194529454Y-185393328D01*
X194172311Y-184893328D02*
X194172311Y-186179042D01*
X194172311Y-186179042D02*
X194243740Y-186321900D01*
X194243740Y-186321900D02*
X194386597Y-186393328D01*
X194386597Y-186393328D02*
X194529454Y-186393328D01*
X195600883Y-186321900D02*
X195458026Y-186393328D01*
X195458026Y-186393328D02*
X195172312Y-186393328D01*
X195172312Y-186393328D02*
X195029454Y-186321900D01*
X195029454Y-186321900D02*
X194958026Y-186179042D01*
X194958026Y-186179042D02*
X194958026Y-185607614D01*
X194958026Y-185607614D02*
X195029454Y-185464757D01*
X195029454Y-185464757D02*
X195172312Y-185393328D01*
X195172312Y-185393328D02*
X195458026Y-185393328D01*
X195458026Y-185393328D02*
X195600883Y-185464757D01*
X195600883Y-185464757D02*
X195672312Y-185607614D01*
X195672312Y-185607614D02*
X195672312Y-185750471D01*
X195672312Y-185750471D02*
X194958026Y-185893328D01*
X196315168Y-186393328D02*
X196315168Y-185393328D01*
X196315168Y-185679042D02*
X196386597Y-185536185D01*
X196386597Y-185536185D02*
X196458026Y-185464757D01*
X196458026Y-185464757D02*
X196600883Y-185393328D01*
X196600883Y-185393328D02*
X196743740Y-185393328D01*
X197243739Y-186250471D02*
X197315168Y-186321900D01*
X197315168Y-186321900D02*
X197243739Y-186393328D01*
X197243739Y-186393328D02*
X197172311Y-186321900D01*
X197172311Y-186321900D02*
X197243739Y-186250471D01*
X197243739Y-186250471D02*
X197243739Y-186393328D01*
X197958025Y-186393328D02*
X197958025Y-184893328D01*
X198100883Y-185821900D02*
X198529454Y-186393328D01*
X198529454Y-185393328D02*
X197958025Y-185964757D01*
X199172311Y-186393328D02*
X199172311Y-185393328D01*
X199172311Y-184893328D02*
X199100883Y-184964757D01*
X199100883Y-184964757D02*
X199172311Y-185036185D01*
X199172311Y-185036185D02*
X199243740Y-184964757D01*
X199243740Y-184964757D02*
X199172311Y-184893328D01*
X199172311Y-184893328D02*
X199172311Y-185036185D01*
X200529455Y-186321900D02*
X200386597Y-186393328D01*
X200386597Y-186393328D02*
X200100883Y-186393328D01*
X200100883Y-186393328D02*
X199958026Y-186321900D01*
X199958026Y-186321900D02*
X199886597Y-186250471D01*
X199886597Y-186250471D02*
X199815169Y-186107614D01*
X199815169Y-186107614D02*
X199815169Y-185679042D01*
X199815169Y-185679042D02*
X199886597Y-185536185D01*
X199886597Y-185536185D02*
X199958026Y-185464757D01*
X199958026Y-185464757D02*
X200100883Y-185393328D01*
X200100883Y-185393328D02*
X200386597Y-185393328D01*
X200386597Y-185393328D02*
X200529455Y-185464757D01*
X201815169Y-186393328D02*
X201815169Y-185607614D01*
X201815169Y-185607614D02*
X201743740Y-185464757D01*
X201743740Y-185464757D02*
X201600883Y-185393328D01*
X201600883Y-185393328D02*
X201315169Y-185393328D01*
X201315169Y-185393328D02*
X201172311Y-185464757D01*
X201815169Y-186321900D02*
X201672311Y-186393328D01*
X201672311Y-186393328D02*
X201315169Y-186393328D01*
X201315169Y-186393328D02*
X201172311Y-186321900D01*
X201172311Y-186321900D02*
X201100883Y-186179042D01*
X201100883Y-186179042D02*
X201100883Y-186036185D01*
X201100883Y-186036185D02*
X201172311Y-185893328D01*
X201172311Y-185893328D02*
X201315169Y-185821900D01*
X201315169Y-185821900D02*
X201672311Y-185821900D01*
X201672311Y-185821900D02*
X201815169Y-185750471D01*
X203172312Y-186393328D02*
X203172312Y-184893328D01*
X203172312Y-186321900D02*
X203029454Y-186393328D01*
X203029454Y-186393328D02*
X202743740Y-186393328D01*
X202743740Y-186393328D02*
X202600883Y-186321900D01*
X202600883Y-186321900D02*
X202529454Y-186250471D01*
X202529454Y-186250471D02*
X202458026Y-186107614D01*
X202458026Y-186107614D02*
X202458026Y-185679042D01*
X202458026Y-185679042D02*
X202529454Y-185536185D01*
X202529454Y-185536185D02*
X202600883Y-185464757D01*
X202600883Y-185464757D02*
X202743740Y-185393328D01*
X202743740Y-185393328D02*
X203029454Y-185393328D01*
X203029454Y-185393328D02*
X203172312Y-185464757D01*
X203529455Y-186536185D02*
X204672312Y-186536185D01*
X205029454Y-185393328D02*
X205029454Y-186893328D01*
X205029454Y-185464757D02*
X205172312Y-185393328D01*
X205172312Y-185393328D02*
X205458026Y-185393328D01*
X205458026Y-185393328D02*
X205600883Y-185464757D01*
X205600883Y-185464757D02*
X205672312Y-185536185D01*
X205672312Y-185536185D02*
X205743740Y-185679042D01*
X205743740Y-185679042D02*
X205743740Y-186107614D01*
X205743740Y-186107614D02*
X205672312Y-186250471D01*
X205672312Y-186250471D02*
X205600883Y-186321900D01*
X205600883Y-186321900D02*
X205458026Y-186393328D01*
X205458026Y-186393328D02*
X205172312Y-186393328D01*
X205172312Y-186393328D02*
X205029454Y-186321900D01*
X207029455Y-186321900D02*
X206886597Y-186393328D01*
X206886597Y-186393328D02*
X206600883Y-186393328D01*
X206600883Y-186393328D02*
X206458026Y-186321900D01*
X206458026Y-186321900D02*
X206386597Y-186250471D01*
X206386597Y-186250471D02*
X206315169Y-186107614D01*
X206315169Y-186107614D02*
X206315169Y-185679042D01*
X206315169Y-185679042D02*
X206386597Y-185536185D01*
X206386597Y-185536185D02*
X206458026Y-185464757D01*
X206458026Y-185464757D02*
X206600883Y-185393328D01*
X206600883Y-185393328D02*
X206886597Y-185393328D01*
X206886597Y-185393328D02*
X207029455Y-185464757D01*
X207672311Y-186393328D02*
X207672311Y-184893328D01*
X207672311Y-185464757D02*
X207815169Y-185393328D01*
X207815169Y-185393328D02*
X208100883Y-185393328D01*
X208100883Y-185393328D02*
X208243740Y-185464757D01*
X208243740Y-185464757D02*
X208315169Y-185536185D01*
X208315169Y-185536185D02*
X208386597Y-185679042D01*
X208386597Y-185679042D02*
X208386597Y-186107614D01*
X208386597Y-186107614D02*
X208315169Y-186250471D01*
X208315169Y-186250471D02*
X208243740Y-186321900D01*
X208243740Y-186321900D02*
X208100883Y-186393328D01*
X208100883Y-186393328D02*
X207815169Y-186393328D01*
X207815169Y-186393328D02*
X207672311Y-186321900D01*
D10*
D11*
X177002200Y-181507200D02*
X285002200Y-181507200D01*
D10*
D11*
X178386598Y-183621900D02*
X178600884Y-183693328D01*
X178600884Y-183693328D02*
X178958026Y-183693328D01*
X178958026Y-183693328D02*
X179100884Y-183621900D01*
X179100884Y-183621900D02*
X179172312Y-183550471D01*
X179172312Y-183550471D02*
X179243741Y-183407614D01*
X179243741Y-183407614D02*
X179243741Y-183264757D01*
X179243741Y-183264757D02*
X179172312Y-183121900D01*
X179172312Y-183121900D02*
X179100884Y-183050471D01*
X179100884Y-183050471D02*
X178958026Y-182979042D01*
X178958026Y-182979042D02*
X178672312Y-182907614D01*
X178672312Y-182907614D02*
X178529455Y-182836185D01*
X178529455Y-182836185D02*
X178458026Y-182764757D01*
X178458026Y-182764757D02*
X178386598Y-182621900D01*
X178386598Y-182621900D02*
X178386598Y-182479042D01*
X178386598Y-182479042D02*
X178458026Y-182336185D01*
X178458026Y-182336185D02*
X178529455Y-182264757D01*
X178529455Y-182264757D02*
X178672312Y-182193328D01*
X178672312Y-182193328D02*
X179029455Y-182193328D01*
X179029455Y-182193328D02*
X179243741Y-182264757D01*
X179886597Y-183693328D02*
X179886597Y-182193328D01*
X180529455Y-183693328D02*
X180529455Y-182907614D01*
X180529455Y-182907614D02*
X180458026Y-182764757D01*
X180458026Y-182764757D02*
X180315169Y-182693328D01*
X180315169Y-182693328D02*
X180100883Y-182693328D01*
X180100883Y-182693328D02*
X179958026Y-182764757D01*
X179958026Y-182764757D02*
X179886597Y-182836185D01*
X181815169Y-183621900D02*
X181672312Y-183693328D01*
X181672312Y-183693328D02*
X181386598Y-183693328D01*
X181386598Y-183693328D02*
X181243740Y-183621900D01*
X181243740Y-183621900D02*
X181172312Y-183479042D01*
X181172312Y-183479042D02*
X181172312Y-182907614D01*
X181172312Y-182907614D02*
X181243740Y-182764757D01*
X181243740Y-182764757D02*
X181386598Y-182693328D01*
X181386598Y-182693328D02*
X181672312Y-182693328D01*
X181672312Y-182693328D02*
X181815169Y-182764757D01*
X181815169Y-182764757D02*
X181886598Y-182907614D01*
X181886598Y-182907614D02*
X181886598Y-183050471D01*
X181886598Y-183050471D02*
X181172312Y-183193328D01*
X183100883Y-183621900D02*
X182958026Y-183693328D01*
X182958026Y-183693328D02*
X182672312Y-183693328D01*
X182672312Y-183693328D02*
X182529454Y-183621900D01*
X182529454Y-183621900D02*
X182458026Y-183479042D01*
X182458026Y-183479042D02*
X182458026Y-182907614D01*
X182458026Y-182907614D02*
X182529454Y-182764757D01*
X182529454Y-182764757D02*
X182672312Y-182693328D01*
X182672312Y-182693328D02*
X182958026Y-182693328D01*
X182958026Y-182693328D02*
X183100883Y-182764757D01*
X183100883Y-182764757D02*
X183172312Y-182907614D01*
X183172312Y-182907614D02*
X183172312Y-183050471D01*
X183172312Y-183050471D02*
X182458026Y-183193328D01*
X183600883Y-182693328D02*
X184172311Y-182693328D01*
X183815168Y-182193328D02*
X183815168Y-183479042D01*
X183815168Y-183479042D02*
X183886597Y-183621900D01*
X183886597Y-183621900D02*
X184029454Y-183693328D01*
X184029454Y-183693328D02*
X184172311Y-183693328D01*
X184672311Y-183550471D02*
X184743740Y-183621900D01*
X184743740Y-183621900D02*
X184672311Y-183693328D01*
X184672311Y-183693328D02*
X184600883Y-183621900D01*
X184600883Y-183621900D02*
X184672311Y-183550471D01*
X184672311Y-183550471D02*
X184672311Y-183693328D01*
X184672311Y-182764757D02*
X184743740Y-182836185D01*
X184743740Y-182836185D02*
X184672311Y-182907614D01*
X184672311Y-182907614D02*
X184600883Y-182836185D01*
X184600883Y-182836185D02*
X184672311Y-182764757D01*
X184672311Y-182764757D02*
X184672311Y-182907614D01*
D10*
D12*
X179413853Y-180685528D02*
X178913853Y-179971242D01*
X178556710Y-180685528D02*
X178556710Y-179185528D01*
X178556710Y-179185528D02*
X179128139Y-179185528D01*
X179128139Y-179185528D02*
X179270996Y-179256957D01*
X179270996Y-179256957D02*
X179342425Y-179328385D01*
X179342425Y-179328385D02*
X179413853Y-179471242D01*
X179413853Y-179471242D02*
X179413853Y-179685528D01*
X179413853Y-179685528D02*
X179342425Y-179828385D01*
X179342425Y-179828385D02*
X179270996Y-179899814D01*
X179270996Y-179899814D02*
X179128139Y-179971242D01*
X179128139Y-179971242D02*
X178556710Y-179971242D01*
X180270996Y-180685528D02*
X180128139Y-180614100D01*
X180128139Y-180614100D02*
X180056710Y-180542671D01*
X180056710Y-180542671D02*
X179985282Y-180399814D01*
X179985282Y-180399814D02*
X179985282Y-179971242D01*
X179985282Y-179971242D02*
X180056710Y-179828385D01*
X180056710Y-179828385D02*
X180128139Y-179756957D01*
X180128139Y-179756957D02*
X180270996Y-179685528D01*
X180270996Y-179685528D02*
X180485282Y-179685528D01*
X180485282Y-179685528D02*
X180628139Y-179756957D01*
X180628139Y-179756957D02*
X180699568Y-179828385D01*
X180699568Y-179828385D02*
X180770996Y-179971242D01*
X180770996Y-179971242D02*
X180770996Y-180399814D01*
X180770996Y-180399814D02*
X180699568Y-180542671D01*
X180699568Y-180542671D02*
X180628139Y-180614100D01*
X180628139Y-180614100D02*
X180485282Y-180685528D01*
X180485282Y-180685528D02*
X180270996Y-180685528D01*
X181413853Y-180685528D02*
X181413853Y-179185528D01*
X181413853Y-179756957D02*
X181556711Y-179685528D01*
X181556711Y-179685528D02*
X181842425Y-179685528D01*
X181842425Y-179685528D02*
X181985282Y-179756957D01*
X181985282Y-179756957D02*
X182056711Y-179828385D01*
X182056711Y-179828385D02*
X182128139Y-179971242D01*
X182128139Y-179971242D02*
X182128139Y-180399814D01*
X182128139Y-180399814D02*
X182056711Y-180542671D01*
X182056711Y-180542671D02*
X181985282Y-180614100D01*
X181985282Y-180614100D02*
X181842425Y-180685528D01*
X181842425Y-180685528D02*
X181556711Y-180685528D01*
X181556711Y-180685528D02*
X181413853Y-180614100D01*
X182985282Y-180685528D02*
X182842425Y-180614100D01*
X182842425Y-180614100D02*
X182770996Y-180542671D01*
X182770996Y-180542671D02*
X182699568Y-180399814D01*
X182699568Y-180399814D02*
X182699568Y-179971242D01*
X182699568Y-179971242D02*
X182770996Y-179828385D01*
X182770996Y-179828385D02*
X182842425Y-179756957D01*
X182842425Y-179756957D02*
X182985282Y-179685528D01*
X182985282Y-179685528D02*
X183199568Y-179685528D01*
X183199568Y-179685528D02*
X183342425Y-179756957D01*
X183342425Y-179756957D02*
X183413854Y-179828385D01*
X183413854Y-179828385D02*
X183485282Y-179971242D01*
X183485282Y-179971242D02*
X183485282Y-180399814D01*
X183485282Y-180399814D02*
X183413854Y-180542671D01*
X183413854Y-180542671D02*
X183342425Y-180614100D01*
X183342425Y-180614100D02*
X183199568Y-180685528D01*
X183199568Y-180685528D02*
X182985282Y-180685528D01*
X184128139Y-180685528D02*
X184128139Y-179185528D01*
X184128139Y-179185528D02*
X184628139Y-180256957D01*
X184628139Y-180256957D02*
X185128139Y-179185528D01*
X185128139Y-179185528D02*
X185128139Y-180685528D01*
X186485283Y-180685528D02*
X186485283Y-179899814D01*
X186485283Y-179899814D02*
X186413854Y-179756957D01*
X186413854Y-179756957D02*
X186270997Y-179685528D01*
X186270997Y-179685528D02*
X185985283Y-179685528D01*
X185985283Y-179685528D02*
X185842425Y-179756957D01*
X186485283Y-180614100D02*
X186342425Y-180685528D01*
X186342425Y-180685528D02*
X185985283Y-180685528D01*
X185985283Y-180685528D02*
X185842425Y-180614100D01*
X185842425Y-180614100D02*
X185770997Y-180471242D01*
X185770997Y-180471242D02*
X185770997Y-180328385D01*
X185770997Y-180328385D02*
X185842425Y-180185528D01*
X185842425Y-180185528D02*
X185985283Y-180114100D01*
X185985283Y-180114100D02*
X186342425Y-180114100D01*
X186342425Y-180114100D02*
X186485283Y-180042671D01*
X187199568Y-179685528D02*
X187199568Y-180685528D01*
X187199568Y-179828385D02*
X187270997Y-179756957D01*
X187270997Y-179756957D02*
X187413854Y-179685528D01*
X187413854Y-179685528D02*
X187628140Y-179685528D01*
X187628140Y-179685528D02*
X187770997Y-179756957D01*
X187770997Y-179756957D02*
X187842426Y-179899814D01*
X187842426Y-179899814D02*
X187842426Y-180685528D01*
X188556711Y-180685528D02*
X188556711Y-179685528D01*
X188556711Y-179185528D02*
X188485283Y-179256957D01*
X188485283Y-179256957D02*
X188556711Y-179328385D01*
X188556711Y-179328385D02*
X188628140Y-179256957D01*
X188628140Y-179256957D02*
X188556711Y-179185528D01*
X188556711Y-179185528D02*
X188556711Y-179328385D01*
X189270997Y-179685528D02*
X189270997Y-181185528D01*
X189270997Y-179756957D02*
X189413855Y-179685528D01*
X189413855Y-179685528D02*
X189699569Y-179685528D01*
X189699569Y-179685528D02*
X189842426Y-179756957D01*
X189842426Y-179756957D02*
X189913855Y-179828385D01*
X189913855Y-179828385D02*
X189985283Y-179971242D01*
X189985283Y-179971242D02*
X189985283Y-180399814D01*
X189985283Y-180399814D02*
X189913855Y-180542671D01*
X189913855Y-180542671D02*
X189842426Y-180614100D01*
X189842426Y-180614100D02*
X189699569Y-180685528D01*
X189699569Y-180685528D02*
X189413855Y-180685528D01*
X189413855Y-180685528D02*
X189270997Y-180614100D01*
X191270998Y-180685528D02*
X191270998Y-179899814D01*
X191270998Y-179899814D02*
X191199569Y-179756957D01*
X191199569Y-179756957D02*
X191056712Y-179685528D01*
X191056712Y-179685528D02*
X190770998Y-179685528D01*
X190770998Y-179685528D02*
X190628140Y-179756957D01*
X191270998Y-180614100D02*
X191128140Y-180685528D01*
X191128140Y-180685528D02*
X190770998Y-180685528D01*
X190770998Y-180685528D02*
X190628140Y-180614100D01*
X190628140Y-180614100D02*
X190556712Y-180471242D01*
X190556712Y-180471242D02*
X190556712Y-180328385D01*
X190556712Y-180328385D02*
X190628140Y-180185528D01*
X190628140Y-180185528D02*
X190770998Y-180114100D01*
X190770998Y-180114100D02*
X191128140Y-180114100D01*
X191128140Y-180114100D02*
X191270998Y-180042671D01*
X192199569Y-180685528D02*
X192056712Y-180614100D01*
X192056712Y-180614100D02*
X191985283Y-180471242D01*
X191985283Y-180471242D02*
X191985283Y-179185528D01*
D10*
D11*
D10*
D11*
D10*
D11*
D10*
D11*
D10*
D11*
X197002200Y-191507200D02*
X197002200Y-194507200D01*
D10*
D11*
X261002200Y-191507200D02*
X261002200Y-198007200D01*
D14*
%TO.C,J1*%
X25410600Y-38658800D03*
D15*
X25410600Y-36118800D03*
X25410600Y-33578800D03*
X25410600Y-31038800D03*
%TD*%
D16*
%TO.C,SW3*%
X41860600Y-21132800D03*
X34360600Y-21132800D03*
%TD*%
%TO.C,SW4*%
X39888600Y-48818800D03*
X32388600Y-48818800D03*
%TD*%
D17*
%TO.C,C13*%
X26680600Y-28266300D03*
X26680600Y-26191300D03*
%TD*%
D18*
%TO.C,J8*%
X46238600Y-30022800D03*
%TD*%
D19*
%TO.C,C1*%
X30955600Y-36270800D03*
X33030600Y-36270800D03*
%TD*%
D14*
%TO.C,J2*%
X48778600Y-20878800D03*
D15*
X48778600Y-23418800D03*
X48778600Y-25958800D03*
%TD*%
D20*
%TO.C,C15*%
X40650600Y-44987300D03*
X40650600Y-47062300D03*
%TD*%
D19*
%TO.C,C2*%
X34765600Y-36270800D03*
X36840600Y-36270800D03*
%TD*%
D21*
%TO.C,RV1*%
X20330600Y-26466800D03*
X20330600Y-23926800D03*
X20330600Y-21386800D03*
%TD*%
D22*
%TO.C,R11*%
X40904600Y-24030300D03*
X40904600Y-25855300D03*
%TD*%
D14*
%TO.C,J4*%
X52588600Y-20888800D03*
D15*
X52588600Y-23428800D03*
X52588600Y-25968800D03*
X52588600Y-28508800D03*
%TD*%
D23*
%TO.C,D2*%
X20076600Y-39674800D03*
D24*
X20076600Y-37134800D03*
%TD*%
D14*
%TO.C,J5*%
X52588600Y-41380800D03*
D15*
X52588600Y-43920800D03*
X52588600Y-46460800D03*
X52588600Y-49000800D03*
%TD*%
D25*
%TO.C,SW1*%
X42552600Y-47450000D03*
X42552600Y-49660000D03*
D26*
X44702600Y-48560000D03*
X47702600Y-48560000D03*
D25*
X49852600Y-47450000D03*
X49852600Y-49660000D03*
D27*
X43952600Y-46800000D03*
X46952600Y-46800000D03*
X48452600Y-46800000D03*
%TD*%
D28*
%TO.C,U1*%
X36346600Y-38708800D03*
X34046600Y-38708800D03*
D29*
X34046600Y-45008800D03*
D28*
X31746600Y-38708800D03*
%TD*%
D23*
%TO.C,D1*%
X20076600Y-32816800D03*
D24*
X20076600Y-30276800D03*
%TD*%
D17*
%TO.C,C14*%
X42936600Y-24964300D03*
X42936600Y-22889300D03*
%TD*%
D30*
%TO.C,R5*%
X20076600Y-42722800D03*
D31*
X20076600Y-47802800D03*
%TD*%
D18*
%TO.C,J9*%
X46238600Y-31292800D03*
%TD*%
D32*
%TO.C,SW2*%
X24648600Y-21132800D03*
X32148600Y-21132800D03*
%TD*%
D33*
%TO.C,R10*%
X27663600Y-24434800D03*
X29488600Y-24434800D03*
%TD*%
D34*
%TO.C,D3*%
X22160000Y-46207500D03*
X22160000Y-47957500D03*
%TD*%
D35*
%TO.C,R12*%
X38872600Y-45921300D03*
X38872600Y-44096300D03*
%TD*%
D36*
%TO.C,J3*%
X53350600Y-31337800D03*
X53350600Y-38487800D03*
%TD*%
M02*
