M48
; DRILL file {KiCad 7.0.7} date Sun 17 Sep 2023 12:12:59 AM +0530
; FORMAT={-:-/ absolute / inch / decimal}
; #@! TF.CreationDate,2023-09-17T00:12:59+05:30
; #@! TF.GenerationSoftware,Kicad,Pcbnew,7.0.7
; #@! TF.FileFunction,Plated,1,2,PTH
FMAT,2
INCH
; #@! TA.AperFunction,Plated,PTH,ViaDrill
T1C0.0157
; #@! TA.AperFunction,Plated,PTH,ComponentDrill
T2C0.0177
; #@! TA.AperFunction,Plated,PTH,ComponentDrill
T3C0.0276
; #@! TA.AperFunction,Plated,PTH,ComponentDrill
T4C0.0315
; #@! TA.AperFunction,Plated,PTH,ComponentDrill
T5C0.0394
%
G90
G05
T1
X0.9114Y-1.16
X1.0075Y-1.7686
X1.1181Y-1.0315
X1.1777Y-1.712
X1.1944Y-1.1063
X1.2047Y-1.7953
X1.2204Y-1.322
X1.4016Y-1.5984
X1.53Y-1.2622
X1.6004Y-1.362
X1.631Y-1.2931
X1.6457Y-1.7244
X1.6704Y-1.262
X1.8189Y-1.0487
X1.8804Y-1.2326
X1.893Y-1.1954
X1.9538Y-1.3003
T3
X0.7904Y-1.682
X0.7904Y-1.882
T4
X0.8004Y-0.842
X0.8004Y-0.942
X0.8004Y-1.042
T5
X0.7904Y-1.192
X0.7904Y-1.292
X0.7904Y-1.462
X0.7904Y-1.562
X1.0004Y-1.222
X1.0004Y-1.322
X1.0004Y-1.422
X1.0004Y-1.522
X1.9204Y-0.822
X1.9204Y-0.922
X1.9204Y-1.022
X2.0704Y-0.8224
X2.0704Y-0.9224
X2.0704Y-1.0224
X2.0704Y-1.1224
X2.0704Y-1.6292
X2.0704Y-1.7292
X2.0704Y-1.8292
X2.0704Y-1.9292
T2
G00X2.0847Y-1.2338
M15
G01X2.1162Y-1.2338
M16
G05
G00X2.1162Y-1.5153
M15
G01X2.0847Y-1.5153
M16
G05
T0
M30
